<svg width="150" height="85" viewBox="0 0 150 85" fill="none" xmlns="http://www.w3.org/2000/svg">
<path d="M75.3432 67.3137C88.9608 67.3137 100 56.2744 100 42.6568C100 29.0392 88.9608 18 75.3432 18C61.7256 18 50.6863 29.0392 50.6863 42.6568C50.6863 56.2744 61.7256 67.3137 75.3432 67.3137Z" fill="#5C2D91"/>
<path opacity="0.1" d="M58.2529 24.9348C55.7463 27.1684 53.7224 29.8904 52.305 32.9339C50.8876 35.9774 50.1067 39.2783 50.0102 42.6343C49.9137 45.9902 50.5035 49.3305 51.7436 52.4505C52.9836 55.5704 54.8478 58.4042 57.2218 60.7783C59.5958 63.1523 62.4297 65.0164 65.5496 66.2565C68.6695 67.4966 72.0099 68.0864 75.3658 67.9899C78.7218 67.8933 82.0227 67.1125 85.0662 65.6951C88.1097 64.2777 90.8317 62.2537 93.0653 59.7472L58.2529 24.9348Z" fill="white"/>
<path d="M56.3882 46.7022C56.2444 46.7044 56.1017 46.6769 55.969 46.6212C55.8364 46.5654 55.7168 46.4828 55.6177 46.3786C55.5159 46.278 55.4355 46.1579 55.3812 46.0255C55.3269 45.8931 55.2999 45.7511 55.3018 45.608C55.3008 45.4651 55.3282 45.3233 55.3824 45.1911C55.4366 45.0588 55.5166 44.9386 55.6177 44.8375C55.7158 44.7314 55.8351 44.6471 55.9678 44.5901C56.1005 44.533 56.2438 44.5044 56.3882 44.5062C56.5325 44.5058 56.6753 44.535 56.8078 44.592C56.9403 44.649 57.0598 44.7326 57.1588 44.8375C57.2616 44.9377 57.3432 45.0575 57.3988 45.1899C57.4544 45.3223 57.4828 45.4645 57.4824 45.608C57.4837 45.7517 57.4557 45.8942 57.4001 46.0267C57.3444 46.1592 57.2623 46.2789 57.1588 46.3786C57.0588 46.4817 56.9391 46.5636 56.8066 46.6192C56.6742 46.6749 56.5319 46.7031 56.3882 46.7022Z" fill="white"/>
<path d="M71.6986 46.5096H69.6798L62.46 35.3061C62.2801 35.0301 62.1303 34.7356 62.0131 34.4277H61.9514C62.02 35.0674 62.0458 35.7109 62.0285 36.354V46.5096H60.3873V32.4629H62.5216L69.5488 43.466C69.8416 43.9232 70.0317 44.2365 70.119 44.406H70.1575C70.0762 43.7209 70.0428 43.0309 70.0574 42.341V32.4629H71.6986V46.5096Z" fill="white"/>
<path d="M82.8096 46.5096H75.3432V32.4629H82.4628V33.95H77.0229V38.6194H82.093V40.0988H77.0229V44.9685H82.8173L82.8096 46.5096Z" fill="white"/>
<path d="M93.8358 33.95H89.752V46.5096H88.1108V33.95H84.0732V32.4629H93.8358V33.95Z" fill="white"/>
<path d="M70.8125 56.0639C70.2562 56.3333 69.6426 56.4629 69.0248 56.4414C68.6144 56.4599 68.2047 56.3904 67.8233 56.2376C67.4419 56.0848 67.0976 55.8521 66.8134 55.5553C66.2473 54.9216 65.949 54.093 65.9813 53.2438C65.9605 52.784 66.0324 52.3247 66.1925 51.8932C66.3527 51.4617 66.5979 51.0668 66.9136 50.7318C67.2213 50.4167 67.5911 50.169 67.9997 50.0045C68.4083 49.84 68.8466 49.7623 69.2868 49.7764C69.8137 49.7584 70.3385 49.8502 70.8279 50.0461V50.8166C70.3567 50.5557 69.8253 50.4229 69.2868 50.4313C68.9473 50.4218 68.6098 50.4857 68.2972 50.6187C67.9847 50.7516 67.7046 50.9506 67.4761 51.2019C66.9955 51.7493 66.7468 52.4622 66.7826 53.1898C66.7466 53.879 66.9786 54.5555 67.4299 55.0776C67.6463 55.3104 67.9106 55.4936 68.2045 55.6146C68.4985 55.7356 68.8151 55.7916 69.1327 55.7788C69.7243 55.7943 70.3086 55.6449 70.8202 55.3473L70.8125 56.0639Z" fill="#F2F2F2"/>
<path d="M73.9639 56.4414C73.6572 56.4513 73.3519 56.3952 73.0688 56.2769C72.7856 56.1586 72.5312 55.9808 72.3227 55.7556C71.9014 55.2854 71.6826 54.6679 71.714 54.0374C71.6948 53.707 71.7414 53.3761 71.8512 53.0639C71.961 52.7517 72.1317 52.4645 72.3535 52.2189C72.5799 51.998 72.8492 51.8259 73.1447 51.7132C73.4403 51.6006 73.7558 51.5498 74.0718 51.564C74.3705 51.5481 74.6691 51.597 74.947 51.7074C75.225 51.8178 75.4758 51.987 75.6822 52.2035C76.0917 52.697 76.2983 53.3278 76.2601 53.968C76.2924 54.6177 76.0683 55.2541 75.636 55.7402C75.4236 55.9698 75.1644 56.1512 74.876 56.2721C74.5876 56.3931 74.2766 56.4508 73.9639 56.4414V56.4414ZM74.0179 52.2266C73.8059 52.2177 73.5947 52.2567 73.3999 52.3408C73.2051 52.4248 73.0318 52.5517 72.8929 52.7121C72.5964 53.0938 72.4486 53.5702 72.4768 54.0528C72.4499 54.521 72.5982 54.9824 72.8929 55.3473C73.0333 55.5053 73.207 55.6302 73.4016 55.7128C73.5962 55.7954 73.8067 55.8337 74.0179 55.825C74.2246 55.8372 74.4315 55.8019 74.6225 55.7217C74.8135 55.6416 74.9836 55.5188 75.1197 55.3627C75.3999 54.9799 75.5363 54.5107 75.505 54.0374C75.5355 53.5617 75.3992 53.0904 75.1197 52.7043C74.9855 52.545 74.8161 52.4189 74.6249 52.336C74.4337 52.2532 74.226 52.2157 74.0179 52.2266V52.2266Z" fill="#F2F2F2"/>
<path d="M79.8584 52.458C79.692 52.349 79.4944 52.2975 79.296 52.3116C79.1407 52.3173 78.9893 52.361 78.8549 52.4389C78.7206 52.5168 78.6074 52.6266 78.5254 52.7585C78.2961 53.1216 78.1857 53.5472 78.2095 53.9759V56.3338H77.439V51.7106H78.2095V52.6738C78.2942 52.3757 78.4627 52.1083 78.695 51.9032C78.8959 51.7288 79.1532 51.633 79.4192 51.6335C79.5682 51.6269 79.7171 51.6477 79.8584 51.6952V52.458Z" fill="#F2F2F2"/>
<path d="M84.3737 54.2148H81.1144C81.0925 54.6455 81.2327 55.0689 81.5074 55.4014C81.6502 55.5439 81.8215 55.6546 82.01 55.7263C82.1986 55.798 82.4001 55.829 82.6015 55.8175C83.1239 55.8123 83.629 55.6303 84.0347 55.3012V55.9947C83.5583 56.3087 82.9942 56.4626 82.4243 56.4339C82.1368 56.4484 81.8496 56.3993 81.5832 56.2901C81.3168 56.1809 81.0778 56.0143 80.8833 55.8021C80.4821 55.3017 80.2816 54.67 80.3208 54.0299C80.2931 53.3882 80.5107 52.7601 80.9295 52.2731C81.1201 52.0529 81.3572 51.8779 81.6237 51.7606C81.8902 51.6434 82.1795 51.5868 82.4705 51.595C82.7333 51.5803 82.9961 51.6253 83.239 51.7268C83.4819 51.8282 83.6986 51.9834 83.8729 52.1806C84.2277 52.6484 84.4027 53.2281 84.366 53.8141L84.3737 54.2148ZM83.6032 53.5907C83.6188 53.2336 83.5099 52.8823 83.295 52.5967C83.1896 52.4776 83.0586 52.3838 82.9118 52.3224C82.765 52.2611 82.6063 52.2336 82.4474 52.2423C82.2816 52.2402 82.1172 52.2727 81.9646 52.3377C81.8121 52.4028 81.6747 52.4988 81.5613 52.6198C81.3077 52.8881 81.1482 53.2315 81.1067 53.5984L83.6032 53.5907Z" fill="#F2F2F2"/>
</svg>
