<svg width="150" height="85" viewBox="0 0 150 85" fill="none" xmlns="http://www.w3.org/2000/svg">
<path fill-rule="evenodd" clip-rule="evenodd" d="M52.3555 50.0859V36.5508H54.0957L62.3672 47.4434V36.5508H64.0215V50.0859H62.2813L54.0098 39.0859V50.0859H52.3555Z" fill="#B52E31"/>
<path fill-rule="evenodd" clip-rule="evenodd" d="M77.4922 49.5488C76.3965 49.957 75.2148 50.1719 73.9687 50.1719C69.0703 50.1719 66.6211 47.8301 66.6211 43.125C66.6211 38.6777 68.9844 36.4434 73.7109 36.4434C75.0645 36.4434 76.332 36.6367 77.4922 37.002V38.5059C76.332 38.0547 75.1289 37.8398 73.9043 37.8398C70.209 37.8398 68.3613 39.6016 68.3613 43.082C68.3613 46.8418 70.1875 48.7109 73.8184 48.7109C74.3984 48.7109 75.043 48.625 75.752 48.4746V43.9414H77.4922V49.5488Z" fill="#B52E31"/>
<path fill-rule="evenodd" clip-rule="evenodd" d="M80.2852 44.8652V36.5508H82.0254V44.8652C82.0254 47.4648 83.3145 48.7754 85.9141 48.7754C88.4922 48.7754 89.8027 47.4648 89.8027 44.8652V36.5508H91.543V44.8652C91.543 48.4102 89.6738 50.1934 85.9141 50.1934C82.1543 50.1934 80.2852 48.4102 80.2852 44.8652Z" fill="#B52E31"/>
<path fill-rule="evenodd" clip-rule="evenodd" d="M96.3984 36.5508V48.668H103.488V50.0859H94.6582V36.5508H96.3984Z" fill="#B52E31"/>
<path fill-rule="evenodd" clip-rule="evenodd" d="M106.002 50.0859H104.176L110.9 34.7676L117.625 50.0859H115.691L113.951 45.832H109.482L109.955 44.4141H113.371L110.836 38.291L106.002 50.0859Z" fill="#B52E31"/>
<path fill-rule="evenodd" clip-rule="evenodd" d="M119.494 50.0859V36.5508H125.273C127.852 36.5508 129.141 37.625 129.141 39.7949C129.141 41.5566 127.873 42.8672 125.359 43.7051L130 50.0859H127.701L123.404 44.0059V42.8672C125.982 42.459 127.293 41.4707 127.293 39.8809C127.293 38.6348 126.584 38.0117 125.145 38.0117H121.277V50.0859H119.494Z" fill="#B52E31"/>
<path fill-rule="evenodd" clip-rule="evenodd" d="M20 32.9414L33.8574 28L48.0801 32.8555L45.7812 51.1816L33.8574 57.7773L22.127 51.2676L20 32.9414Z" fill="#E23237"/>
<path fill-rule="evenodd" clip-rule="evenodd" d="M48.0801 32.8555L33.8574 28V57.7773L45.7812 51.1816L48.0801 32.8555Z" fill="#B52E31"/>
<path fill-rule="evenodd" clip-rule="evenodd" d="M33.8789 31.4805L25.2422 50.6875L28.4648 50.623L30.2051 46.2832H33.8789H37.918L39.8086 50.666L42.8809 50.7305L33.8789 31.4805ZM33.9004 37.6465L36.8223 43.748H34.0293H33.8789H31.3437L33.9004 37.6465Z" fill="white"/>
</svg>
