<svg width="150" height="85" viewBox="0 0 150 85" fill="none" xmlns="http://www.w3.org/2000/svg">
<path fill-rule="evenodd" clip-rule="evenodd" d="M45.4073 31.8125L39.3539 44.004L50.0113 56.3561L30.2311 58.6017L60.9244 58.9228L45.4073 31.8125V31.8125Z" fill="#035BDA"/>
<path fill-rule="evenodd" clip-rule="evenodd" d="M44.2135 27L30.3164 38.6302L20 56.0354L28.7817 55.153L44.2135 27Z" fill="#035BDA"/>
<path d="M72.5257 39.3091L65.8785 55.6085H68.1386L69.867 51.0392H77.2147L79.0517 55.6085H81.2994L74.6282 39.3091H72.5257ZM73.5166 41.2867H73.5647C73.6533 41.7868 73.742 42.1507 73.8306 42.3781L76.5498 49.323H70.5435L73.2387 42.3781C73.3434 42.1128 73.436 41.7489 73.5166 41.2867V41.2867ZM124.912 43.6966C123.293 43.6966 121.935 44.2685 120.839 45.4127C119.752 46.5494 119.208 48.0235 119.208 49.8345C119.208 51.7517 119.708 53.2404 120.707 54.3013C121.706 55.3546 123.079 55.8813 124.827 55.8813C126.616 55.8813 128.054 55.5102 129.142 54.7676V53.0171C127.974 53.8809 126.693 54.3126 125.299 54.3126C124.058 54.3126 123.083 53.9603 122.374 53.2555C121.665 52.5508 121.295 51.5506 121.262 50.2548H130V49.2774C130 47.5269 129.557 46.1594 128.671 45.1743C127.784 44.1892 126.531 43.6966 124.912 43.6966V43.6966ZM116.057 43.7649C115.34 43.7649 114.692 43.996 114.112 44.4583C113.532 44.9129 113.101 45.5492 112.819 46.3676H112.77V43.9693H110.788V55.6085H112.77V49.6754C112.77 48.3796 113.052 47.3566 113.616 46.6064C114.188 45.8562 114.897 45.481 115.743 45.481C116.396 45.481 116.895 45.606 117.242 45.856V43.9237C116.968 43.8176 116.573 43.7649 116.057 43.7649V43.7649ZM83.314 43.9693V45.5606H89.9488L82.6251 55.029V55.6085H92.7887V54.0172H85.5376L92.8613 44.5035V43.9693H83.314V43.9693ZM95.8424 43.9693V50.9256C95.8424 54.2294 97.3171 55.8813 100.266 55.8813C101.99 55.8813 103.263 55.1765 104.085 53.7671H104.133V55.6085H106.115V43.9693H104.133V50.6755C104.133 51.7591 103.819 52.6381 103.19 53.3125C102.57 53.9793 101.777 54.3126 100.81 54.3126C98.8116 54.3126 97.8125 53.0853 97.8125 50.6302V43.9693H95.8424V43.9693ZM124.876 45.2652C125.843 45.2652 126.596 45.5645 127.136 46.1631C127.684 46.7617 127.962 47.5989 127.97 48.6749H121.286C121.44 47.6595 121.842 46.8373 122.495 46.2084C123.148 45.5794 123.941 45.2652 124.876 45.2652V45.2652Z" fill="#035BDA"/>
</svg>
