<svg width="150" height="85" viewBox="0 0 150 85" fill="none" xmlns="http://www.w3.org/2000/svg">
<path d="M51.9455 51.932C53.9753 51.5741 56.005 51.2149 58.0344 50.8544L58.0916 50.8422L54.9596 47.1167C53.237 45.0678 51.8277 43.3834 51.8277 43.3739C51.8277 43.3555 55.0616 34.4496 55.0799 34.4179C55.0859 34.4074 57.2868 38.207 60.4149 43.6288C63.3435 48.7045 65.7579 52.8895 65.7803 52.9288L65.8211 53L55.8675 52.9987L45.9138 52.9974L51.9455 51.932V51.932ZM90.1167 51.031C88.6014 50.9339 87.7203 50.0712 87.4868 48.4562C87.4246 48.0267 87.4243 48.0154 87.4181 45.2267L87.4119 42.5274H88.7531L88.7583 45.1381C88.763 47.4913 88.766 47.7672 88.7885 47.9326C88.8798 48.6044 89.0616 49.0563 89.371 49.3804C89.6186 49.6399 89.9086 49.792 90.3099 49.8725C90.4993 49.9106 91.038 49.9106 91.2105 49.8727C91.6173 49.7832 91.9435 49.6061 92.2312 49.3185C92.5592 48.9908 92.8016 48.5257 92.919 48L92.9585 47.8227L92.963 45.1898L92.9673 42.5569H94.3365V50.8348H92.9815V50.1782C92.9815 49.732 92.9766 49.523 92.9663 49.5266C92.9579 49.5293 92.923 49.5826 92.8888 49.6449C92.6553 50.0706 92.2663 50.4601 91.8401 50.6947C91.3291 50.9759 90.8168 51.076 90.1167 51.0311V51.031ZM105.495 51.0244C104.961 50.9841 104.397 50.8002 103.937 50.5154C102.967 49.9154 102.393 48.9263 102.225 47.5649C102.167 47.0939 102.16 46.461 102.208 46.0608C102.317 45.1665 102.668 44.2884 103.169 43.6616C103.297 43.501 103.588 43.2099 103.749 43.0817C104.181 42.7358 104.688 42.494 105.229 42.375C105.543 42.3064 106.096 42.2741 106.429 42.3051C107.267 42.3827 108.035 42.7772 108.557 43.3981C109.088 44.0292 109.379 44.9108 109.416 45.9962C109.422 46.1664 109.424 46.4646 109.42 46.659L109.412 47.0126L106.477 47.0162L103.542 47.0199V47.151C103.542 47.5497 103.639 48.0037 103.807 48.3901C103.951 48.7233 104.2 49.0871 104.404 49.2632C104.821 49.6242 105.332 49.8403 105.892 49.8922C106.099 49.9115 106.628 49.8912 106.864 49.8548C107.538 49.7512 108.179 49.4868 108.697 49.0988C108.739 49.0664 108.782 49.0348 108.826 49.0039C108.841 48.9945 108.845 49.1137 108.845 49.6153L108.844 50.2383L108.705 50.3241C108.12 50.6862 107.449 50.9188 106.739 51.0058C106.527 51.0317 105.749 51.0434 105.495 51.0243V51.0244ZM108.05 45.7695C108.05 45.1016 107.768 44.3598 107.37 43.9777C107.086 43.7051 106.742 43.5385 106.334 43.4753C106.14 43.4454 105.733 43.4569 105.529 43.498C105.099 43.5851 104.742 43.7744 104.432 44.0814C104.105 44.4045 103.86 44.797 103.705 45.2441C103.65 45.405 103.585 45.6689 103.565 45.8159L103.555 45.8858H108.05L108.05 45.7695ZM68.2392 50.8165C68.2427 50.8062 69.2393 48.1882 70.4539 44.9984L72.6623 39.1987H74.0814L74.1403 39.3496C74.3202 39.811 78.5615 50.8222 78.5615 50.828C78.5615 50.8317 78.2217 50.8348 77.8066 50.8347L77.0517 50.8346L76.4404 49.2071L75.829 47.5796H70.9068L70.8852 47.6348C70.8734 47.6653 70.6124 48.3976 70.3048 49.2621L69.746 50.8343L68.9894 50.8346C68.3906 50.8347 68.2343 50.8309 68.2392 50.8163V50.8165ZM75.38 46.3376C75.38 46.335 74.9686 45.2199 74.4657 43.8594C73.5251 41.3143 73.4726 41.1612 73.3982 40.7525C73.3634 40.561 73.3457 40.5558 73.325 40.7305C73.3103 40.8554 73.2463 41.1351 73.1967 41.2902C73.1722 41.3672 72.7487 42.5296 72.2555 43.8737C71.7622 45.2176 71.3588 46.3228 71.3588 46.3297C71.3588 46.3367 72.2635 46.3423 73.3693 46.3423C74.4751 46.3423 75.3798 46.3402 75.3798 46.3377L75.38 46.3376ZM79.018 50.6228V50.4109L81.4702 47.04L83.9223 43.669L81.7022 43.6616L79.482 43.6542L79.4781 43.0909L79.4743 42.5274H85.8966V42.908L83.4443 46.2973C82.0954 48.1615 80.9918 49.6899 80.9918 49.6937C80.9918 49.6975 82.0821 49.7007 83.4148 49.7007H85.8377V50.8348H79.018V50.6228ZM97.0124 50.825C97.0071 50.8196 97.0026 48.9504 97.0026 46.6713V42.5274H98.343V43.3817C98.343 43.8517 98.3486 44.2361 98.3557 44.2361C98.3627 44.2361 98.3952 44.1592 98.4281 44.0651C98.5789 43.6344 98.8401 43.2319 99.1768 42.9119C99.48 42.6238 99.8266 42.4515 100.236 42.3855C100.351 42.3671 100.448 42.3634 100.678 42.3695C100.966 42.3769 101.117 42.3981 101.293 42.4554L101.348 42.4735V43.8648L101.189 43.7855C100.91 43.6456 100.634 43.5901 100.302 43.6074C100.086 43.6185 99.9443 43.6463 99.7716 43.711C99.4212 43.8405 99.124 44.0833 98.9272 44.4008C98.6357 44.8658 98.4279 45.4633 98.3666 46.0126C98.3556 46.1112 98.3491 46.9139 98.3465 48.4965L98.3426 50.8348H97.6824C97.3193 50.8348 97.0178 50.8304 97.0124 50.825V50.825ZM40 50.7959C40 50.7906 41.4758 48.2288 43.2795 45.103L46.559 39.4195L50.3809 36.2123C52.4828 34.4483 54.2084 33.0027 54.2153 33.0001C54.2221 32.9974 54.1946 33.067 54.1538 33.1546C54.1131 33.2424 52.2456 37.2479 50.0038 42.0559L45.9277 50.7978L42.9639 50.8016C41.3338 50.8037 40 50.8011 40 50.7959Z" fill="white"/>
</svg>
