<svg width="159" height="46" viewBox="0 0 159 46" fill="none" xmlns="http://www.w3.org/2000/svg">
<path fill-rule="evenodd" clip-rule="evenodd" d="M36.6111 6.93457L27.8884 24.5022L43.2454 42.3012L14.7428 45.537L58.9709 45.9998L36.6111 6.93457V6.93457Z" fill="#035BDA"/>
<path fill-rule="evenodd" clip-rule="evenodd" d="M34.891 0L14.8657 16.7588L0 41.8392L12.6542 40.5677L34.891 0Z" fill="#035BDA"/>
<path d="M75.688 17.7371L66.1097 41.224H69.3664L71.8569 34.6398H82.4447L85.0918 41.224H88.3307L78.7177 17.7371H75.688ZM77.1159 20.5867H77.1852C77.3129 21.3074 77.4406 21.8318 77.5683 22.1594L81.4867 32.1668H72.8317L76.7154 22.1594C76.8663 21.7772 76.9998 21.2528 77.1159 20.5867V20.5867ZM151.175 24.0593C148.842 24.0593 146.885 24.8835 145.307 26.5323C143.739 28.1701 142.956 30.2943 142.956 32.904C142.956 35.6665 143.676 37.8117 145.115 39.3404C146.555 40.8582 148.534 41.6171 151.053 41.6171C153.631 41.6171 155.703 41.0824 157.27 40.0123V37.4899C155.587 38.7347 153.741 39.3567 151.733 39.3567C149.945 39.3567 148.54 38.849 147.519 37.8335C146.497 36.818 145.963 35.3768 145.916 33.5096H158.507V32.1011C158.507 29.5787 157.868 27.6081 156.591 26.1887C155.314 24.7692 153.509 24.0593 151.175 24.0593V24.0593ZM138.416 24.1577C137.383 24.1577 136.448 24.4908 135.612 25.1569C134.776 25.812 134.155 26.7289 133.749 27.9081H133.679V24.4524H130.823V41.224H133.679V32.6746C133.679 30.8074 134.086 29.3332 134.898 28.2522C135.723 27.1712 136.744 26.6306 137.963 26.6306C138.904 26.6306 139.624 26.8107 140.123 27.171V24.3866C139.728 24.2337 139.159 24.1577 138.416 24.1577V24.1577ZM91.2337 24.4524V26.7453H100.794L90.241 40.389V41.224H104.886V38.9311H94.4379L104.991 25.2221V24.4524H91.2337V24.4524ZM109.287 24.4524V34.4761C109.287 39.2369 111.412 41.6171 115.661 41.6171C118.145 41.6171 119.98 40.6016 121.164 38.5707H121.233V41.224H124.089V24.4524H121.233V34.1157C121.233 35.6771 120.781 36.9438 119.875 37.9156C118.981 38.8765 117.838 39.3567 116.444 39.3567C113.565 39.3567 112.126 37.5882 112.126 34.0504V24.4524H109.287V24.4524ZM151.123 26.3197C152.516 26.3197 153.602 26.7509 154.38 27.6135C155.169 28.4761 155.57 29.6824 155.581 31.2329H145.951C146.171 29.7698 146.752 28.585 147.692 27.6787C148.633 26.7725 149.776 26.3197 151.123 26.3197V26.3197Z" fill="#035BDA"/>
</svg>
