<svg width="150" height="85" viewBox="0 0 150 85" fill="none" xmlns="http://www.w3.org/2000/svg">
<path d="M45.3824 52.3188C45.3824 55.1042 43.1042 57.3824 40.3188 57.3824H20.0635C17.2782 57.3824 15 55.1042 15 52.3188V32.0635C15 29.2782 17.2782 27 20.0635 27H40.3188C43.1042 27 45.3824 29.2782 45.3824 32.0635V52.3188V52.3188Z" fill="#563D7C"/>
<path d="M23.2564 33.6023H31.8699C33.4591 33.6023 34.7349 33.9647 35.6921 34.6949C36.6493 35.4251 37.1313 36.5217 37.1313 37.9967C37.1313 38.8902 36.9122 39.6549 36.4754 40.2908C36.0386 40.9267 35.4133 41.4232 34.5982 41.7698V41.8189C35.6908 42.0525 36.5192 42.569 37.0808 43.3682C37.6424 44.1727 37.9252 45.1751 37.9252 46.3872C37.9252 47.0828 37.8017 47.732 37.5534 48.3335C37.3052 48.9388 36.9175 49.4606 36.3865 49.8974C35.8554 50.3342 35.1797 50.682 34.3512 50.9396C33.5228 51.1971 32.5391 51.3272 31.3973 51.3272H23.2564V33.6023ZM26.359 41.0236H31.4225C32.1673 41.0236 32.7873 40.8152 33.2838 40.3877C33.7804 39.9602 34.0286 39.3548 34.0286 38.5609C34.0286 37.6674 33.8056 37.0368 33.3582 36.6744C32.9108 36.3119 32.2656 36.1287 31.4225 36.1287H26.359V41.0236V41.0236ZM26.359 48.7928H31.8447C32.7873 48.7928 33.5228 48.5499 34.0393 48.0586C34.561 47.5727 34.8239 46.8771 34.8239 45.9836C34.8239 45.0901 34.5663 44.4343 34.0393 43.9577C33.5135 43.481 32.7886 43.2527 31.8447 43.2527H26.359V48.7928Z" fill="white"/>
<path d="M52.0191 48.8964V34.6418H57.3667C58.4553 34.6418 59.3289 34.7866 59.9874 35.0746C60.6459 35.3627 61.161 35.8075 61.5341 36.4062C61.9071 37.0063 62.093 37.633 62.093 38.2875C62.093 38.8968 61.927 39.4704 61.5965 40.008C61.2659 40.5457 60.7667 40.9799 60.0989 41.3104C60.9605 41.5627 61.6243 41.9941 62.0877 42.6035C62.551 43.2129 62.7833 43.9325 62.7833 44.7622C62.7833 45.43 62.6426 46.05 62.3598 46.6249C62.0784 47.1984 61.7292 47.6405 61.315 47.9525C60.9008 48.2631 60.3804 48.4981 59.7537 48.6574C59.1284 48.8167 58.3611 48.8951 57.4543 48.8951H52.0191V48.8964ZM53.9056 40.6307H56.9883C57.8247 40.6307 58.4235 40.5763 58.7872 40.4647C59.2665 40.3227 59.6289 40.085 59.8719 39.7545C60.1148 39.4239 60.237 39.0097 60.237 38.5092C60.237 38.0365 60.1241 37.6197 59.8971 37.2599C59.6701 36.9001 59.3462 36.6545 58.9253 36.5204C58.5044 36.3877 57.7809 36.3213 56.7573 36.3213H53.9083V40.6294L53.9056 40.6307ZM53.9056 47.213H57.4543C58.0637 47.213 58.4912 47.1904 58.7381 47.1453C59.1722 47.0669 59.536 46.9382 59.8267 46.7563C60.1188 46.5744 60.3578 46.3102 60.5463 45.9637C60.7348 45.6172 60.8278 45.2163 60.8278 44.7622C60.8278 44.2312 60.691 43.7692 60.4189 43.3762C60.1467 42.9845 59.7683 42.7084 59.2864 42.5491C58.8032 42.3898 58.1088 42.3114 57.2007 42.3114H53.9043V47.2117L53.9056 47.213Z" fill="#563D7C"/>
<path d="M64.5039 43.7332C64.5039 41.8214 65.035 40.4048 66.0984 39.4835C66.9865 38.7188 68.0685 38.3364 69.3457 38.3364C70.7649 38.3364 71.9252 38.8011 72.8267 39.7317C73.7281 40.6624 74.1782 41.9475 74.1782 43.5871C74.1782 44.9161 73.9791 45.9609 73.5808 46.7229C73.1825 47.485 72.6023 48.0758 71.8403 48.498C71.0782 48.9188 70.2471 49.1299 69.3457 49.1299C67.8999 49.1299 66.7316 48.6666 65.8408 47.7399C64.95 46.8132 64.5039 45.4776 64.5039 43.7332V43.7332ZM66.3028 43.7332C66.3028 45.0555 66.5909 46.0459 67.1684 46.7044C67.7459 47.3628 68.4708 47.6908 69.347 47.6908C70.2232 47.6908 70.9388 47.3602 71.515 46.699C72.0925 46.0379 72.3806 45.0302 72.3806 43.6747C72.3806 42.3976 72.0899 41.4298 71.511 40.7726C70.9309 40.1141 70.21 39.7862 69.347 39.7862C68.4841 39.7862 67.7459 40.1141 67.1684 40.7686C66.5909 41.4231 66.3028 42.4122 66.3028 43.7345V43.7332Z" fill="#563D7C"/>
<path d="M75.5801 43.7332C75.5801 41.8214 76.1112 40.4048 77.1746 39.4835C78.0628 38.7188 79.1448 38.3364 80.4219 38.3364C81.8411 38.3364 83.0015 38.8011 83.9029 39.7317C84.8044 40.6624 85.2544 41.9475 85.2544 43.5871C85.2544 44.9161 85.0553 45.9609 84.657 46.7229C84.2587 47.485 83.6786 48.0758 82.9165 48.498C82.1545 48.9188 81.3234 49.1299 80.4219 49.1299C78.9762 49.1299 77.8079 48.6666 76.917 47.7399C76.0262 46.8132 75.5801 45.4776 75.5801 43.7332V43.7332ZM77.379 43.7332C77.379 45.0555 77.6671 46.0459 78.2447 46.7044C78.8222 47.3628 79.547 47.6908 80.4233 47.6908C81.2995 47.6908 82.0151 47.3602 82.5912 46.699C83.1688 46.0379 83.4569 45.0302 83.4569 43.6747C83.4569 42.3976 83.1661 41.4298 82.5873 40.7726C82.0071 40.1141 81.2862 39.7862 80.4233 39.7862C79.5603 39.7862 78.8222 40.1141 78.2447 40.7686C77.6671 41.4231 77.379 42.4122 77.379 43.7345V43.7332Z" fill="#563D7C"/>
<path d="M91.1277 47.331L91.38 48.8777C90.8874 48.9813 90.4467 49.033 90.0577 49.033C89.4217 49.033 88.9292 48.9321 88.58 48.7317C88.2309 48.5312 87.9839 48.267 87.8406 47.9391C87.6985 47.6125 87.6268 46.9235 87.6268 45.8733V39.9323H86.343V38.5715H87.6268V36.0145L89.3673 34.9644V38.5715H91.1277V39.9323H89.3673V45.9702C89.3673 46.4694 89.3978 46.7907 89.4602 46.9328C89.5213 47.0748 89.6222 47.189 89.7616 47.2726C89.901 47.3563 90.1002 47.3987 90.359 47.3987C90.5529 47.3987 90.8091 47.3762 91.1277 47.331V47.331Z" fill="#563D7C"/>
<path d="M92.1394 45.8147L93.8706 45.5426C93.9675 46.2369 94.2384 46.7679 94.6831 47.137C95.1265 47.5061 95.7478 47.6906 96.5457 47.6906C97.3436 47.6906 97.9464 47.5273 98.3354 47.1994C98.7244 46.8728 98.9182 46.4878 98.9182 46.047C98.9182 45.6514 98.7469 45.3408 98.4031 45.1137C98.1628 44.9584 97.5667 44.7606 96.6135 44.5203C95.3297 44.1964 94.4402 43.9162 93.945 43.6786C93.4484 43.4423 93.0727 43.1144 92.8165 42.6962C92.5603 42.278 92.4328 41.816 92.4328 41.3101C92.4328 40.8495 92.5377 40.4233 92.7488 40.0316C92.9599 39.64 93.2466 39.3134 93.6091 39.0545C93.8812 38.8541 94.253 38.6841 94.7229 38.5434C95.1929 38.404 95.6961 38.335 96.2351 38.335C97.0449 38.335 97.7565 38.4518 98.3699 38.6854C98.9832 38.9191 99.4346 39.2351 99.7267 39.6334C100.019 40.0316 100.219 40.5653 100.329 41.2331L98.6181 41.4668C98.5398 40.9357 98.3154 40.5202 97.9424 40.2215C97.5693 39.9228 97.0436 39.7741 96.3625 39.7741C95.5593 39.7741 94.9845 39.9069 94.642 40.1724C94.2981 40.4379 94.1268 40.7499 94.1268 41.1057C94.1268 41.3327 94.1985 41.5372 94.3406 41.7177C94.4826 41.9062 94.707 42.0616 95.011 42.185C95.1863 42.2501 95.7014 42.3988 96.5577 42.6324C97.7964 42.963 98.6593 43.2338 99.1492 43.4449C99.6391 43.656 100.023 43.9614 100.302 44.3636C100.58 44.7659 100.72 45.2651 100.72 45.8612C100.72 46.4573 100.55 46.9936 100.21 47.5087C99.8701 48.0239 99.3789 48.4221 98.7363 48.7049C98.0951 48.9864 97.3689 49.1284 96.5577 49.1284C95.2155 49.1284 94.1932 48.8496 93.4896 48.292C92.786 47.7344 92.3372 46.9087 92.1434 45.8121L92.1394 45.8147Z" fill="#563D7C"/>
<path d="M106.617 47.331L106.869 48.8777C106.377 48.9813 105.936 49.033 105.547 49.033C104.911 49.033 104.419 48.9321 104.069 48.7317C103.72 48.5312 103.473 48.267 103.33 47.9391C103.188 47.6125 103.116 46.9235 103.116 45.8733V39.9323H101.832V38.5715H103.116V36.0145L104.857 34.9644V38.5715H106.617V39.9323H104.857V45.9702C104.857 46.4694 104.887 46.7907 104.95 46.9328C105.011 47.0748 105.112 47.189 105.251 47.2726C105.39 47.3563 105.589 47.3987 105.848 47.3987C106.042 47.3987 106.298 47.3762 106.617 47.331V47.331Z" fill="#563D7C"/>
<path d="M108.31 48.8962V38.5701H109.886V40.1353C110.288 39.4025 110.658 38.9192 110.999 38.6869C111.339 38.4533 111.714 38.3364 112.123 38.3364C112.712 38.3364 113.312 38.5249 113.921 38.9007L113.319 40.5243C112.891 40.2721 112.462 40.1446 112.035 40.1446C111.653 40.1446 111.309 40.2601 111.005 40.4898C110.699 40.7195 110.483 41.0394 110.353 41.447C110.159 42.0697 110.061 42.7494 110.061 43.4889V48.8949H108.311L108.31 48.8962Z" fill="#563D7C"/>
<path d="M121.699 47.6231C121.051 48.174 120.427 48.563 119.827 48.79C119.227 49.017 118.584 49.1299 117.896 49.1299C116.763 49.1299 115.89 48.8524 115.281 48.2988C114.672 47.7439 114.368 47.0363 114.368 46.1746C114.368 45.6688 114.483 45.2068 114.713 44.7886C114.942 44.3704 115.244 44.0345 115.617 43.7823C115.99 43.53 116.409 43.3389 116.875 43.2088C117.219 43.1185 117.737 43.0309 118.431 42.9459C119.844 42.7773 120.885 42.5768 121.553 42.3432C121.559 42.1029 121.562 41.9515 121.562 41.8865C121.562 41.1735 121.396 40.6704 121.065 40.3796C120.618 39.984 119.953 39.7862 119.073 39.7862C118.249 39.7862 117.641 39.9309 117.25 40.219C116.857 40.5071 116.567 41.0182 116.379 41.751L114.668 41.5174C114.823 40.7845 115.079 40.1938 115.436 39.7424C115.792 39.2923 116.309 38.9445 116.983 38.7015C117.657 38.4586 118.438 38.3364 119.326 38.3364C120.214 38.3364 120.925 38.44 121.476 38.6471C122.027 38.8542 122.431 39.1157 122.692 39.4304C122.951 39.745 123.132 40.142 123.236 40.6212C123.294 40.92 123.324 41.4576 123.324 42.2356V44.5696C123.324 46.1972 123.361 47.2261 123.435 47.6562C123.509 48.0877 123.657 48.5006 123.877 48.8962H122.049C121.867 48.5338 121.75 48.109 121.699 47.6231V47.6231ZM121.553 43.7146C120.917 43.9735 119.965 44.1938 118.694 44.3757C117.975 44.4793 117.466 44.5961 117.167 44.7262C116.869 44.8563 116.639 45.0462 116.477 45.2944C116.315 45.544 116.234 45.8215 116.234 46.1255C116.234 46.5928 116.411 46.9818 116.764 47.2925C117.117 47.6031 117.633 47.7598 118.315 47.7598C118.996 47.7598 119.588 47.6124 120.113 47.3177C120.639 47.023 121.024 46.6194 121.271 46.1069C121.46 45.7113 121.553 45.1285 121.553 44.3571V43.7159V43.7146Z" fill="#563D7C"/>
<path d="M126.036 52.8538V38.5701H127.63V39.9123C128.006 39.3866 128.431 38.9936 128.904 38.7307C129.376 38.4679 129.95 38.3364 130.624 38.3364C131.506 38.3364 132.284 38.5634 132.958 39.0175C133.633 39.4715 134.141 40.1114 134.485 40.9372C134.829 41.7643 135 42.6697 135 43.6548C135 44.7116 134.81 45.6622 134.432 46.5092C134.052 47.3549 133.501 48.0028 132.779 48.4541C132.055 48.9042 131.296 49.1299 130.498 49.1299C129.915 49.1299 129.391 49.0064 128.927 48.7608C128.464 48.5139 128.083 48.2032 127.784 47.8275V52.8552H126.035L126.036 52.8538ZM127.621 43.7916C127.621 45.1205 127.891 46.1029 128.428 46.7375C128.966 47.3735 129.618 47.6908 130.383 47.6908C131.147 47.6908 131.827 47.3615 132.381 46.7044C132.936 46.0459 133.212 45.0276 133.212 43.6455C133.212 42.2635 132.941 41.3448 132.399 40.689C131.858 40.0344 131.211 39.7065 130.46 39.7065C129.708 39.7065 129.055 40.0544 128.481 40.7513C127.908 41.4483 127.621 42.4613 127.621 43.7902V43.7916Z" fill="#563D7C"/>
</svg>
