<svg width="150" height="85" viewBox="0 0 150 85" fill="none" xmlns="http://www.w3.org/2000/svg">
<path d="M97.4851 32.7C97.4847 31.8593 97.3049 31.1164 96.9413 30.4788C96.5841 29.8518 96.0492 29.3263 95.3317 28.9108C89.4092 25.4959 83.481 22.0914 77.5604 18.673C75.9643 17.7515 74.4167 17.7851 72.8324 18.7198C70.475 20.1101 58.6727 26.8719 55.1558 28.9089C53.7074 29.7474 53.0026 31.0306 53.0023 32.6985C53 39.5661 53.0023 46.4336 53 53.3014C53.0003 54.1237 53.1725 54.8521 53.5201 55.4801C53.8775 56.1261 54.4198 56.666 55.1539 57.0909C58.671 59.128 70.4749 65.8893 72.8317 67.2799C74.4167 68.2151 75.9643 68.2485 77.561 67.3267C83.4817 63.9081 89.4103 60.5038 95.3336 57.0888C96.0677 56.6641 96.61 56.1238 96.9674 55.4784C97.3145 54.8504 97.487 54.1219 97.4873 53.2995C97.4873 53.2995 97.4873 39.5678 97.4851 32.7Z" fill="#5C8DBC"/>
<path d="M75.3117 42.9331L53.5201 55.4802C53.8775 56.1262 54.4198 56.6661 55.1539 57.091C58.671 59.1281 70.4749 65.8894 72.8317 67.28C74.4167 68.2152 75.9643 68.2486 77.561 67.3268C83.4817 63.9082 89.4103 60.5039 95.3337 57.0889C96.0677 56.6642 96.6101 56.1239 96.9674 55.4785L75.3117 42.9331Z" fill="#1A4674"/>
<path d="M68.8573 46.6497C70.1253 48.8634 72.5091 50.3565 75.2437 50.3565C77.9951 50.3565 80.3924 48.8445 81.6541 46.607L75.3117 42.9331L68.8573 46.6497Z" fill="#1A4674"/>
<path d="M97.485 32.7C97.4847 31.8593 97.3049 31.1164 96.9413 30.4788L75.3117 42.933L96.9674 55.4784C97.3145 54.8503 97.487 54.1219 97.4873 53.2994C97.4873 53.2994 97.4873 39.5678 97.485 32.7Z" fill="#1B598E"/>
<path d="M96.2943 43.8299H94.6021V45.5224H92.9095V43.8299H91.2174V42.1378H92.9095V40.4456H94.6021V42.1378H96.2943V43.8299Z" fill="white"/>
<path d="M90.1194 43.8299H88.4274V45.5224H86.7351V43.8299H85.0429V42.1378H86.7351V40.4456H88.4274V42.1378H90.1194V43.8299Z" fill="white"/>
<path d="M81.6541 46.6071C80.3925 48.8445 77.9951 50.3566 75.2437 50.3566C72.5091 50.3566 70.1254 48.8634 68.8573 46.6497C68.2413 45.574 67.8871 44.3286 67.8871 43C67.8871 38.9372 71.1809 35.6436 75.2437 35.6436C77.9606 35.6436 80.3319 37.118 81.6062 39.3091L88.0362 35.6065C85.4805 31.1947 80.7089 28.2266 75.2437 28.2266C67.0843 28.2266 60.4701 34.841 60.4701 43C60.4701 45.6767 61.1822 48.1869 62.4267 50.352C64.9761 54.7872 69.7612 57.7736 75.2437 57.7736C80.7362 57.7736 85.5289 54.7751 88.0745 50.327L81.6541 46.6071Z" fill="white"/>
</svg>
