<svg width="150" height="85" viewBox="0 0 150 85" fill="none" xmlns="http://www.w3.org/2000/svg">
<path d="M97.4851 32.7C97.4847 31.8593 97.3049 31.1164 96.9413 30.4788C96.5841 29.8518 96.0492 29.3263 95.3317 28.9108C89.4092 25.4959 83.481 22.0914 77.5604 18.673C75.9643 17.7515 74.4167 17.7851 72.8324 18.7198C70.475 20.1101 58.6727 26.8719 55.1558 28.9089C53.7074 29.7474 53.0026 31.0306 53.0023 32.6985C53 39.5661 53.0023 46.4336 53 53.3014C53 54.1237 53.1725 54.8521 53.5201 55.4801C53.8775 56.1261 54.4198 56.666 55.1539 57.0909C58.671 59.128 70.4749 65.8893 72.8317 67.2799C74.4167 68.2151 75.9643 68.2485 77.561 67.3267C83.4817 63.9081 89.4103 60.5038 95.3336 57.0888C96.0677 56.6641 96.61 56.1238 96.9674 55.4784C97.3145 54.8504 97.4873 54.1219 97.4873 53.2995C97.4873 53.2995 97.4873 39.5678 97.4851 32.7Z" fill="#A179DC"/>
<path d="M75.3117 42.9331L53.5201 55.4802C53.8774 56.1262 54.4198 56.6661 55.1538 57.091C58.6709 59.1281 70.4748 65.8894 72.8317 67.28C74.4167 68.2152 75.9643 68.2486 77.5609 67.3268C83.4817 63.9082 89.4103 60.5039 95.3336 57.0889C96.0676 56.6642 96.61 56.1239 96.9674 55.4785L75.3117 42.9331Z" fill="#280068"/>
<path d="M97.485 32.7C97.4847 31.8593 97.3049 31.1164 96.9413 30.4788L75.3117 42.933L96.9674 55.4784C97.3145 54.8503 97.487 54.1219 97.4873 53.2994C97.4873 53.2994 97.4873 39.5678 97.485 32.7Z" fill="#390091"/>
<path d="M88.1419 38.2424V40.5877H90.4872V38.2424H91.6598V40.5877H94.0051V41.7603H91.6598V44.1056H94.0051V45.2782H91.6598V47.6235H90.4872V45.2782H88.1419V47.6235H86.9693V45.2782H84.624V44.1056H86.9693V41.7603H84.624V40.5877H86.9693V38.2424H88.1419ZM90.4872 41.7603H88.1419V44.1056H90.4872V41.7603Z" fill="white"/>
<path d="M75.3596 26.4639C81.4768 26.4639 86.8176 29.7861 89.6783 34.7242L89.6504 34.6767L82.4531 38.8208C81.0351 36.4199 78.4355 34.7996 75.4535 34.7662L75.3596 34.7657C70.8121 34.7657 67.1253 38.4522 67.1253 42.9997C67.1253 44.4869 67.5218 45.8809 68.2113 47.0849C69.6306 49.5627 72.2988 51.234 75.3596 51.234C78.4392 51.234 81.1226 49.5415 82.5347 47.0372L82.5004 47.0973L89.6868 51.2605C86.8575 56.1568 81.5899 59.4688 75.5437 59.5348L75.3596 59.5358C69.223 59.5358 63.867 56.1931 61.0136 51.2289C59.6205 48.8054 58.8235 45.9958 58.8235 42.9997C58.8235 33.8673 66.2268 26.4639 75.3596 26.4639Z" fill="white"/>
</svg>
