<svg width="40" height="50" viewBox="0 0 40 50" fill="none" xmlns="http://www.w3.org/2000/svg">
<path d="M17.638 0H25.8249V37.523C21.6314 38.3163 18.5443 38.6283 15.2042 38.6283C5.20502 38.6179 0 34.1508 0 25.5713C0 17.305 5.5211 11.9402 14.0767 11.9402C15.4044 11.9402 16.4158 12.0447 17.638 12.3577V0ZM17.9249 19.1198C16.9661 18.8066 16.1759 18.7023 15.1644 18.7023C11.0236 18.7023 8.63185 21.228 8.63185 25.6544C8.63185 29.9641 10.9184 32.3437 15.1118 32.3437C16.0178 32.3437 16.7554 32.2927 17.9249 32.1361V19.1198V19.1198Z" fill="#2BA977"/>
<path d="M39.2127 12.9476V31.7349C39.2127 38.2049 38.7281 41.3162 37.3056 43.9987C35.978 46.5776 34.229 48.2038 30.615 50L23.0182 46.4201C26.6322 44.7406 28.3812 43.2565 29.4982 40.9917C30.6675 38.6757 31.0363 35.9932 31.0363 28.9376V12.9478H39.2127V12.9476ZM30.2113 0H38.3982V8.31853H30.2113V0Z" fill="#2BA977"/>
</svg>
