<svg width="150" height="85" viewBox="0 0 150 85" fill="none" xmlns="http://www.w3.org/2000/svg">
<path d="M72.638 18H80.8249V55.523C76.6314 56.3163 73.5443 56.6283 70.2042 56.6283C60.205 56.6179 55 52.1508 55 43.5713C55 35.305 60.5211 29.9402 69.0767 29.9402C70.4044 29.9402 71.4158 30.0447 72.638 30.3577V18ZM72.9249 37.1198C71.9661 36.8066 71.1759 36.7023 70.1644 36.7023C66.0236 36.7023 63.6318 39.228 63.6318 43.6544C63.6318 47.9641 65.9184 50.3437 70.1118 50.3437C71.0178 50.3437 71.7554 50.2927 72.9249 50.1361V37.1198V37.1198Z" fill="#2BA977"/>
<path d="M94.2127 30.9476V49.7349C94.2127 56.2049 93.7281 59.3162 92.3056 61.9987C90.978 64.5776 89.229 66.2038 85.615 68L78.0182 64.4201C81.6322 62.7406 83.3812 61.2565 84.4982 58.9917C85.6675 56.6757 86.0363 53.9932 86.0363 46.9376V30.9478H94.2127V30.9476ZM85.2113 18H93.3982V26.3185H85.2113V18Z" fill="#2BA977"/>
</svg>
