<svg width="150" height="85" viewBox="0 0 150 85" fill="none" xmlns="http://www.w3.org/2000/svg">
<path fill-rule="evenodd" clip-rule="evenodd" d="M49.1481 42.7836C49.1382 44.6807 50.5292 45.8117 52.749 45.2975V40.2698C50.5012 39.5853 49.1575 40.9702 49.1481 42.7836M52.817 33H55.8744V47.4716C52.9438 47.9507 50.137 48.2546 48.129 47.1318C45.5436 45.6863 45.3358 41.0928 47.3816 39.0468C48.4189 38.0097 50.5071 37.2794 52.7491 37.7559V33.2039C52.7432 33.1074 52.7378 33.0114 52.817 33M60.8341 36.1932H57.7767V33H60.8341V36.1932ZM97.5225 45.4333C100.856 46.7286 101.224 39.4676 97.8623 40.1338C95.7744 40.5477 95.8415 44.7801 97.5225 45.4333ZM97.6584 37.62C100.204 37.3479 102.124 38.4711 102.89 40.2018C104.197 43.1548 102.818 46.5433 100.716 47.5395C99.6263 48.0559 98.4854 48.1051 97.4546 48.0151C94.2687 47.7373 92.2594 44.4904 93.3781 40.8812C93.5532 40.3163 93.7499 39.9708 93.8538 39.7942C94.5463 38.6167 95.7155 37.8278 97.6584 37.62M65.0465 44.2783C64.2009 45.6995 66.3256 46.04 67.6961 45.6372V43.531C66.643 43.678 65.4443 43.6096 65.0465 44.2783M70.4138 47.6075C67.8883 47.7528 64.0502 48.6131 62.6685 46.9281C61.8568 45.9381 61.9441 44.0497 62.6685 43.1233C63.6047 41.9263 65.6483 41.6652 67.4924 41.4928C67.6598 41.0805 67.5469 40.4098 67.3565 40.1338C65.6697 39.7041 63.9938 40.3699 62.8045 40.8811V38.5033C64.6007 37.678 68.7614 36.809 70.0062 38.7071C70.66 39.704 70.4138 41.4426 70.4138 42.9874V47.6075ZM81.1487 47.7434H78.0913V43.8028C78.0913 42.5053 78.3012 40.8601 77.6156 40.3377C77.0787 39.9284 75.8049 40.1338 75.0339 40.3377V47.7434H71.9765V38.2995C75.1019 37.4877 80.7435 36.6172 81.1487 40.5415C81.3485 42.4764 81.0006 45.3792 81.1487 47.7434M85.7007 44.4822C86.2152 45.3146 87.6084 45.6267 88.758 45.0936C88.6949 43.5035 88.6728 41.8724 88.6901 40.2018C86.0479 39.5037 84.4732 42.4966 85.7007 44.4822M93.3781 38.0277C93.106 38.8427 92.7077 39.5314 92.359 40.2699C92.0439 40.3404 91.7709 40.1446 91.6116 40.2699C91.5419 43.5817 92.3169 48.0714 91.0002 50.461C90.2073 51.8997 88.7476 52.8227 86.516 52.9749C84.8903 53.0857 83.6286 52.8201 82.4395 52.3634V49.5099C83.8342 50.3242 87.3584 50.9881 88.3505 49.306C88.6423 48.8111 88.6238 48.2996 88.758 47.5395C88.1193 47.5731 87.4993 47.8689 86.7199 47.8793C83.5156 47.9218 81.5333 45.3705 82.3036 41.8324C82.6016 40.4638 83.4034 39.3619 84.4778 38.7071C86.7092 37.3471 90.1391 37.4504 93.3781 38.0277" fill="white"/>
<path fill-rule="evenodd" clip-rule="evenodd" d="M60.834 37.8103C60.8305 40.0617 60.831 41.6794 60.8308 44.4146C60.7009 47.1025 60.7311 49.2429 59.7469 50.529C59.5528 50.7826 59.1406 51.1526 58.7957 51.4123C58.5061 51.6304 57.9541 52.0725 57.6407 52.0918C57.3248 52.1112 56.5132 51.6532 56.146 51.4802C55.6636 51.2531 55.2178 50.9514 54.7192 50.8009C55.8822 50.0802 56.9862 49.5399 57.4368 48.0832C57.8288 46.8163 57.7766 44.9805 57.7766 43.1914C57.7766 41.4247 57.7845 39.3709 57.7845 37.8111L60.834 37.8104V37.8103Z" fill="white"/>
</svg>
