<svg width="150" height="85" viewBox="0 0 150 85" fill="none" xmlns="http://www.w3.org/2000/svg">
<mask id="mask0_4_197" style="mask-type:alpha" maskUnits="userSpaceOnUse" x="43" y="33" width="13" height="23">
<path d="M43.1069 34.7881C45.5045 42.122 46.4145 55.2025 53.4242 55.2025C53.9561 55.2025 54.4963 55.1485 55.0406 55.0487C48.6666 53.5612 47.9103 40.6261 44.0211 33.9238C43.7178 34.2022 43.4144 34.4889 43.1069 34.7923" fill="white"/>
</mask>
<g mask="url(#mask0_4_197)">
<path d="M55.0198 33.928H-40.1877V129.136H55.0198V33.928Z" fill="url(#paint0_linear_4_197)"/>
</g>
<mask id="mask1_4_197" style="mask-type:alpha" maskUnits="userSpaceOnUse" x="44" y="33" width="13" height="23">
<path d="M44.0211 33.9197C47.9103 40.6179 48.6666 53.5571 55.0406 55.0447C55.5392 54.9533 56.042 54.812 56.5448 54.6375C50.8231 51.8327 49.24 39.2716 44.8272 33.2217C44.5612 33.4461 44.2912 33.6787 44.0211 33.9197" fill="white"/>
</mask>
<g mask="url(#mask1_4_197)">
<path d="M56.5323 33.23H-41.1019V130.864H56.5323V33.23Z" fill="url(#paint1_linear_4_197)"/>
</g>
<path d="M49.6223 29.9348C49.0904 29.9348 48.5502 29.9847 48.0059 30.0886C46.589 30.3545 45.1471 30.9653 43.6928 31.8919C44.0917 32.2825 44.4657 32.7312 44.823 33.2216C46.3023 31.9958 47.769 31.09 49.2317 30.5456C49.7802 30.342 50.3286 30.1883 50.8771 30.0886C50.4824 29.9888 50.0627 29.9348 49.6223 29.9348" fill="#00599A"/>
<mask id="mask2_4_197" style="mask-type:alpha" maskUnits="userSpaceOnUse" x="50" y="29" width="13" height="24">
<path d="M62.7692 29.9473H50.8813V52.057H62.7692V29.9473Z" fill="white"/>
</mask>
<g mask="url(#mask2_4_197)">
<mask id="mask3_4_197" style="mask-type:alpha" maskUnits="userSpaceOnUse" x="50" y="29" width="13" height="24">
<path d="M61.0116 52.0528C61.5975 51.5874 62.1834 51.0722 62.7692 50.5112C60.3343 43.2148 59.4617 29.9431 52.3979 29.9431C51.891 29.9431 51.3841 29.9888 50.8771 30.0844C57.3093 31.6841 58.1321 45.6746 61.0074 52.0487" fill="white"/>
</mask>
<g mask="url(#mask3_4_197)">
<path d="M128.517 -25.6782H50.8273V52.0111H128.517V-25.6782Z" fill="url(#paint2_linear_4_197)"/>
</g>
</g>
<mask id="mask4_4_197" style="mask-type:alpha" maskUnits="userSpaceOnUse" x="49" y="29" width="4" height="2">
<path d="M52.3979 29.9348H49.6264V30.0886H52.3979V29.9348Z" fill="white"/>
</mask>
<g mask="url(#mask4_4_197)">
<path d="M50.8771 30.0886C50.4824 29.9888 50.0627 29.9348 49.6223 29.9348L52.3979 29.9431C51.891 29.9431 51.3841 29.9888 50.8771 30.0844" fill="#0092C0"/>
</g>
<path d="M60.8869 53.6028C60.6127 53.341 60.3509 53.0502 60.0891 52.7427C58.9008 53.582 57.7165 54.2219 56.5406 54.6374C56.9603 54.841 57.3966 54.9948 57.862 55.0862C58.2235 55.161 58.5974 55.1984 58.988 55.1984C60.3052 55.1984 61.3482 55.0405 62.2374 54.6167C61.7471 54.3507 61.2983 54.01 60.8828 53.6028" fill="#006CB7"/>
<mask id="mask5_4_197" style="mask-type:alpha" maskUnits="userSpaceOnUse" x="49" y="30" width="13" height="23">
<path d="M49.2317 30.5457C54.9907 33.5582 55.4935 47.2038 60.0891 52.7426C60.3966 52.5266 60.7041 52.2939 61.0074 52.0529C58.1321 45.6788 57.3093 31.6842 50.8771 30.0886C50.3286 30.1925 49.7802 30.3421 49.2317 30.5457" fill="white"/>
</mask>
<g mask="url(#mask5_4_197)">
<path d="M60.9493 30.0222H-40.4204V131.392H60.9493V30.0222Z" fill="url(#paint3_linear_4_197)"/>
</g>
<mask id="mask6_4_197" style="mask-type:alpha" maskUnits="userSpaceOnUse" x="44" y="30" width="17" height="25">
<path d="M44.823 33.2216C49.24 39.2715 50.8189 51.8326 56.5406 54.6374C57.7165 54.2219 58.9008 53.5861 60.0891 52.7426C55.4935 47.2038 54.9907 33.5582 49.2317 30.5457C47.769 31.09 46.3023 31.9958 44.823 33.2216" fill="white"/>
</mask>
<g mask="url(#mask6_4_197)">
<path d="M59.9229 30.4502H44.6568V54.5419H59.9229V30.4502Z" fill="url(#paint4_linear_4_197)"/>
</g>
<mask id="mask7_4_197" style="mask-type:alpha" maskUnits="userSpaceOnUse" x="38" y="32" width="6" height="9">
<path d="M43.1028 32.8269H38.0293V40.917H43.1028V32.8269Z" fill="white"/>
</mask>
<g mask="url(#mask7_4_197)">
<path d="M40.2814 34.6095C39.5875 36.176 38.8811 38.2328 38.0252 40.917C39.7246 38.5195 41.4199 36.4544 43.1069 34.784C42.8743 34.0693 42.6249 33.4128 42.359 32.8269C41.6692 33.3546 40.9753 33.9488 40.2814 34.6095Z" fill="#00B9F2"/>
</g>
<path d="M42.9698 32.3782C42.7662 32.5236 42.5626 32.6732 42.3549 32.8311C42.6249 33.417 42.8701 34.0776 43.1028 34.7882C43.4103 34.489 43.7136 34.1981 44.0169 33.9197C43.6887 33.3588 43.3438 32.8394 42.9657 32.3782" fill="#0078AF"/>
<path d="M43.697 31.8921C43.456 32.0458 43.215 32.2079 42.9698 32.3741C43.3479 32.8395 43.6928 33.3547 44.0211 33.9157C44.2912 33.6747 44.5571 33.4378 44.8272 33.2176C44.4698 32.7273 44.0959 32.2785 43.697 31.8879" fill="#005E9E"/>
<mask id="mask8_4_197" style="mask-type:alpha" maskUnits="userSpaceOnUse" x="65" y="29" width="22" height="27">
<path d="M86.5327 29.3782H65.8274V55.1943H86.5327V29.3782Z" fill="white"/>
</mask>
<g mask="url(#mask8_4_197)">
<mask id="mask9_4_197" style="mask-type:alpha" maskUnits="userSpaceOnUse" x="65" y="29" width="22" height="27">
<path d="M82.9883 29.3782C79.7307 41.9434 72.9245 52.0364 67.2194 54.5793L67.2111 54.5835C67.1072 54.6292 67.0034 54.6749 66.9036 54.7164C66.8912 54.7164 66.8787 54.7248 66.8662 54.7331C66.8371 54.7455 66.8081 54.7538 66.779 54.7663C66.7665 54.7663 66.754 54.7788 66.7416 54.7829C66.6917 54.7995 66.646 54.8162 66.6003 54.8328C66.5795 54.8411 66.5588 54.8453 66.5421 54.8536C66.5214 54.8577 66.4964 54.8702 66.4715 54.8785C66.4507 54.8868 66.4299 54.8951 66.405 54.9034C66.3842 54.9076 66.3635 54.9159 66.3427 54.9242C66.3011 54.9367 66.2637 54.945 66.2222 54.9616C66.2056 54.9658 66.1889 54.9741 66.1723 54.9782C66.1474 54.9865 66.1183 54.9948 66.0892 54.999C66.0684 55.0031 66.0518 55.0115 66.0352 55.0156C66.0061 55.0239 65.9729 55.0322 65.9438 55.0405C65.9064 55.0489 65.869 55.0572 65.8358 55.0613C66.0934 55.1569 66.3635 55.2068 66.6502 55.2068C72.0602 55.2068 77.516 45.5127 86.541 29.3906H82.9966L82.9883 29.3782Z" fill="white"/>
</mask>
<g mask="url(#mask9_4_197)">
<path d="M141.643 -20.3843H65.9646V55.294H141.643V-20.3843Z" fill="url(#paint5_linear_4_197)"/>
</g>
</g>
<mask id="mask10_4_197" style="mask-type:alpha" maskUnits="userSpaceOnUse" x="20" y="29" width="19" height="27">
<path d="M38.8437 29.9348H20V55.8756H38.8437V29.9348Z" fill="white"/>
</mask>
<g mask="url(#mask10_4_197)">
<path d="M36.8492 30.4459L36.8576 30.4417C36.8576 30.4417 36.8659 30.4376 36.87 30.4376C36.87 30.4376 36.8742 30.4376 36.8783 30.4376C36.9074 30.4251 36.9365 30.4127 36.9656 30.4043C36.9739 30.4043 36.9781 30.4043 36.9822 30.4002C36.9905 30.4002 36.9947 30.396 37.003 30.3919C37.0362 30.3794 37.0695 30.3711 37.0986 30.3586C37.0986 30.3586 37.0986 30.3586 37.1027 30.3586C37.1733 30.3379 37.2398 30.3088 37.3105 30.2838C37.3229 30.2838 37.3312 30.2797 37.3437 30.2755C37.3728 30.2672 37.4019 30.2589 37.431 30.2464C37.4434 30.2423 37.4601 30.2381 37.4725 30.234C37.5058 30.2257 37.5307 30.2132 37.5639 30.2091C37.5764 30.2049 37.5889 30.2007 37.5972 30.1966C37.6969 30.1717 37.7966 30.1426 37.8963 30.1218C37.9088 30.1218 37.9213 30.1176 37.9379 30.1093C37.967 30.1052 37.9961 30.0969 38.0252 30.0927C38.0376 30.0927 38.0542 30.0844 38.0667 30.0802C38.0958 30.0761 38.1249 30.0678 38.154 30.0636C38.1623 30.0636 38.1664 30.0636 38.1747 30.0636C38.2329 30.0512 38.2952 30.0428 38.3534 30.0304C38.3617 30.0304 38.3783 30.0304 38.3908 30.0262C38.4199 30.0221 38.4448 30.0179 38.4739 30.0096C38.4905 30.0096 38.5072 30.0096 38.5196 30.0054C38.5487 30.0054 38.5736 29.9971 38.5986 29.993C38.611 29.993 38.6277 29.993 38.6443 29.9888C38.7066 29.9847 38.7731 29.9764 38.8396 29.9722C38.6526 29.9556 38.4573 29.9431 38.2662 29.9431C32.1747 29.9348 23.7812 41.2369 20 55.8797C20 55.8797 20.2742 55.8797 20.7272 55.8797C21.9405 53.7232 23.025 51.6789 24.0181 49.7633C26.6649 39.392 32.0583 32.3199 36.8492 30.4459Z" fill="#00A1E4"/>
</g>
<path d="M40.2814 34.6094C40.9753 33.9487 41.6692 33.3545 42.359 32.8268C42.2011 32.4819 42.0391 32.162 41.8645 31.8711C41.3077 32.5484 40.8008 33.4376 40.2856 34.6094" fill="#0083C5"/>
<path d="M40.78 30.5291C41.1789 30.8615 41.5363 31.3227 41.8604 31.8712C41.9643 31.7466 42.0681 31.6302 42.1762 31.518C41.7233 31.0942 41.233 30.7493 40.7052 30.4875C40.726 30.5 40.7468 30.5083 40.7717 30.5208C40.7717 30.5249 40.78 30.5291 40.7842 30.5291" fill="#0083C5"/>
<mask id="mask11_4_197" style="mask-type:alpha" maskUnits="userSpaceOnUse" x="24" y="30" width="13" height="20">
<path d="M24.0181 49.7593C29.5735 39.0556 32.2038 32.2785 36.8492 30.446C32.0625 32.32 26.6649 39.3921 24.0181 49.7593Z" fill="white"/>
</mask>
<g mask="url(#mask11_4_197)">
<path d="M101.404 -27.7888H23.9142V49.7011H101.404V-27.7888Z" fill="url(#paint6_linear_4_197)"/>
</g>
<path d="M42.1762 31.5222C42.0681 31.6303 41.9643 31.7466 41.8604 31.8754C42.0349 32.1663 42.197 32.4862 42.3549 32.8311C42.5626 32.6732 42.7662 32.5236 42.9698 32.3782C42.7205 32.0665 42.4546 31.7798 42.1762 31.5222" fill="#007DC5"/>
<mask id="mask12_4_197" style="mask-type:alpha" maskUnits="userSpaceOnUse" x="26" y="40" width="13" height="16">
<path d="M38.0293 40.9211H26.0998V55.8673H38.0293V40.9211Z" fill="white"/>
</mask>
<g mask="url(#mask12_4_197)">
<mask id="mask13_4_197" style="mask-type:alpha" maskUnits="userSpaceOnUse" x="26" y="40" width="13" height="16">
<path d="M26.5403 55.8258C26.507 55.8299 26.4696 55.8341 26.4405 55.8382C26.4322 55.8382 26.4281 55.8382 26.4198 55.8382C26.3907 55.8382 26.3616 55.8424 26.3325 55.8465C26.3283 55.8465 26.3242 55.8465 26.32 55.8465C26.2494 55.8549 26.1829 55.8549 26.1164 55.8632H26.0956C31.7176 55.7053 34.2897 52.8922 35.5653 48.8077C36.5335 45.7121 37.3312 43.1068 38.0293 40.917C35.6733 44.2328 33.309 48.1802 30.9281 52.6097C29.7813 54.7413 28.0361 55.6346 26.5403 55.8258" fill="white"/>
</mask>
<g mask="url(#mask13_4_197)">
<path d="M101.495 -19.3994H26.1704V55.9256H101.495V-19.3994Z" fill="url(#paint7_linear_4_197)"/>
</g>
</g>
<mask id="mask14_4_197" style="mask-type:alpha" maskUnits="userSpaceOnUse" x="26" y="34" width="15" height="22">
<path d="M26.5403 55.8259C28.0361 55.639 29.7813 54.7456 30.9281 52.614C33.309 48.1887 35.6733 44.2372 38.0252 40.9213C38.8811 38.2329 39.5875 36.1761 40.2814 34.6138C35.5902 39.0764 30.8824 46.5017 26.5403 55.8259" fill="white"/>
</mask>
<g mask="url(#mask14_4_197)">
<path d="M40.1983 34.5471H26.4571V55.7635H40.1983V34.5471Z" fill="url(#paint8_linear_4_197)"/>
</g>
<path d="M24.0181 49.7593C23.025 51.6748 21.9363 53.7192 20.7272 55.8757C21.2507 55.8757 22.007 55.8757 22.8463 55.8757C23.1247 53.7316 23.5236 51.6873 24.0181 49.7593" fill="#00A1E4"/>
<mask id="mask15_4_197" style="mask-type:alpha" maskUnits="userSpaceOnUse" x="22" y="29" width="20" height="27">
<path d="M38.6443 29.9805C38.6443 29.9805 38.6152 29.9846 38.5986 29.9846C38.5736 29.9888 38.5446 29.993 38.5196 29.9971C38.5196 29.9971 38.4864 29.9971 38.4739 30.0013C38.4448 30.0054 38.4157 30.0096 38.3908 30.0179C38.3908 30.0179 38.3659 30.0179 38.3534 30.022C38.2911 30.0304 38.2329 30.0428 38.1747 30.0553C38.1747 30.0553 38.1581 30.0553 38.154 30.0553C38.1249 30.0636 38.0958 30.0678 38.0667 30.0719C38.0667 30.0719 38.0376 30.0802 38.021 30.0844C37.9919 30.0885 37.9628 30.0968 37.9337 30.101C37.9337 30.101 37.9088 30.1093 37.8922 30.1093C37.7925 30.1342 37.6927 30.1592 37.593 30.1883C37.593 30.1883 37.5722 30.1924 37.5598 30.2007C37.5307 30.209 37.5016 30.2173 37.4684 30.2298C37.4684 30.2298 37.4393 30.2381 37.4268 30.2423C37.3977 30.2506 37.3686 30.2589 37.3396 30.2714C37.3396 30.2714 37.3188 30.2797 37.3063 30.2797C37.2357 30.3046 37.1692 30.3295 37.0986 30.3503H37.0944C37.0653 30.3628 37.0321 30.3711 36.9988 30.3835C36.9988 30.3835 36.9739 30.396 36.9573 30.4002C36.9282 30.4085 36.895 30.4209 36.87 30.4334C36.87 30.4334 36.8492 30.4417 36.8409 30.45C32.2038 32.2783 29.5735 39.0554 24.0181 49.7591C23.5236 51.6871 23.1247 53.7315 22.8463 55.8756H23.1455C23.9807 55.8756 24.2175 55.8714 25.1815 55.8714H25.9377C25.9959 55.8714 26.0541 55.8714 26.1123 55.8714C26.1787 55.8714 26.2452 55.8631 26.3159 55.8548C26.3159 55.8548 26.3242 55.8548 26.3283 55.8548C26.3574 55.8506 26.3865 55.8506 26.4156 55.8465C26.4156 55.8465 26.4281 55.8465 26.4364 55.8465C26.4655 55.8465 26.5029 55.8382 26.5361 55.834C30.8824 46.4973 35.5902 39.0762 40.2814 34.6094C40.7967 33.4418 41.3036 32.5484 41.8604 31.8753C41.5363 31.3226 41.1789 30.8655 40.78 30.529C40.78 30.529 40.7717 30.529 40.7676 30.5207C40.7468 30.5124 40.726 30.4999 40.7011 30.4874C40.6803 30.475 40.6595 30.4666 40.6346 30.4542C40.6346 30.4542 40.5889 30.4334 40.5723 30.4209C40.5432 30.4126 40.5224 30.4002 40.4975 30.3877C40.4767 30.3794 40.4601 30.3711 40.4393 30.3628C40.3978 30.3461 40.3562 30.3295 40.3147 30.3129C40.3147 30.3129 40.2773 30.3004 40.2606 30.2921C40.2316 30.2838 40.1983 30.2714 40.1692 30.2547C40.1692 30.2547 40.136 30.2423 40.1194 30.2381C40.0737 30.2215 40.0321 30.209 39.9947 30.1924C39.9947 30.1924 39.9864 30.1924 39.9822 30.1883C39.9324 30.1716 39.8867 30.1592 39.8368 30.1467C39.8368 30.1467 39.816 30.1384 39.8036 30.1342C39.7579 30.1218 39.7205 30.1093 39.6789 30.101C39.6789 30.101 39.6581 30.0968 39.6498 30.0927C39.5501 30.0636 39.4462 30.0428 39.3423 30.0262C39.3423 30.0262 39.3216 30.022 39.3091 30.0179C39.2634 30.0096 39.2219 30.0013 39.1761 29.9971C39.1761 29.9971 39.1595 29.9971 39.1512 29.993C39.0972 29.9846 39.0432 29.9763 38.9933 29.9722C38.9933 29.9722 38.9767 29.9722 38.9642 29.9722C38.9227 29.9639 38.8811 29.9639 38.8437 29.9597C38.7772 29.9639 38.7108 29.9722 38.6484 29.9763" fill="white"/>
</mask>
<g mask="url(#mask15_4_197)">
<path d="M80.0897 -22.1995L11.0773 -10.0308L23.246 58.9817L92.2584 46.8129L80.0897 -22.1995Z" fill="url(#paint9_linear_4_197)"/>
</g>
<mask id="mask16_4_197" style="mask-type:alpha" maskUnits="userSpaceOnUse" x="67" y="29" width="10" height="16">
<path d="M70.261 36.3338C69.1931 39.7577 68.3289 42.5832 67.5726 44.9059C70.5062 40.8712 73.394 35.7936 76.1447 29.9348C72.9369 30.9445 71.225 33.2506 70.261 36.3338" fill="white"/>
</mask>
<g mask="url(#mask16_4_197)">
<path d="M103.486 8.70605H67.4189V44.773H103.486V8.70605Z" fill="url(#paint10_linear_4_197)"/>
</g>
<mask id="mask17_4_197" style="mask-type:alpha" maskUnits="userSpaceOnUse" x="67" y="29" width="16" height="26">
<path d="M82.9883 29.3782H67.2153V54.5793H82.9883V29.3782Z" fill="white"/>
</mask>
<g mask="url(#mask17_4_197)">
<mask id="mask18_4_197" style="mask-type:alpha" maskUnits="userSpaceOnUse" x="67" y="29" width="16" height="26">
<path d="M67.6682 54.3633C67.5186 54.438 67.369 54.5128 67.2194 54.5793C72.9245 52.0364 79.7307 41.9434 82.9883 29.3782H82.3277C74.8442 42.7495 72.4342 51.6998 67.6682 54.3633" fill="white"/>
</mask>
<g mask="url(#mask18_4_197)">
<path d="M3.79753 15.5036L-10.867 98.6704L72.2998 113.335L86.9644 30.1681L3.79753 15.5036Z" fill="url(#paint11_linear_4_197)"/>
</g>
</g>
<path d="M63.941 53.2413C65.1834 51.7247 66.1931 49.1484 67.5726 44.906C65.9812 47.0916 64.3773 48.9739 62.7734 50.5072C62.7734 50.5113 62.7734 50.5155 62.7692 50.5197C63.1183 51.5668 63.5047 52.4934 63.941 53.2413" fill="#009BDF"/>
<path d="M63.941 53.2412C63.5172 53.7565 63.0726 54.147 62.5739 54.4421C62.4659 54.5044 62.3537 54.5667 62.2415 54.6207C62.7651 54.9033 63.3385 55.0944 63.9825 55.1692H63.9867C64.0823 55.1775 64.1737 55.19 64.2693 55.1941H64.2859C64.3316 55.1941 64.3773 55.1941 64.423 55.2025H64.4438C64.4895 55.2025 64.5393 55.2025 64.585 55.2025C64.6349 55.2025 64.6848 55.2025 64.7346 55.2025C64.7513 55.2025 64.7679 55.2025 64.7803 55.2025C64.8136 55.2025 64.851 55.2025 64.8884 55.2025C64.905 55.2025 64.9258 55.2025 64.9424 55.1983C64.9756 55.1983 65.013 55.1941 65.0463 55.19C65.0504 55.19 65.0546 55.19 65.0587 55.19C65.0712 55.19 65.0837 55.19 65.0961 55.19C65.1335 55.19 65.1709 55.1817 65.2083 55.1775C65.2083 55.1775 65.2125 55.1775 65.2166 55.1775C65.2249 55.1775 65.2374 55.1775 65.2499 55.1734C65.2873 55.1692 65.3288 55.1609 65.3704 55.1567C65.3828 55.1567 65.3911 55.1567 65.4036 55.1526C65.4493 55.1484 65.4909 55.1401 65.5366 55.1318H65.5449C65.5449 55.1318 65.5532 55.1318 65.5574 55.1318C65.6488 55.1152 65.736 55.0986 65.8233 55.0736C65.0878 54.8036 64.4729 54.1678 63.941 53.262" fill="#006CB7"/>
<path d="M53.4242 55.1984C53.9561 55.1984 54.4963 55.1444 55.0406 55.0447C55.5392 54.9532 56.042 54.812 56.5448 54.6375C56.9645 54.8411 57.4007 54.9948 57.8661 55.0904C58.2276 55.1652 58.6016 55.2026 58.9922 55.2026H53.4242V55.1984Z" fill="#0061AF"/>
<path d="M58.9922 55.1984C60.3094 55.1984 61.3565 55.0447 62.2415 54.6167C62.7651 54.8993 63.3385 55.0904 63.9825 55.1652H63.9867C64.0823 55.1776 64.1737 55.186 64.2693 55.1901H64.2859C64.3316 55.1901 64.3773 55.1901 64.423 55.1984H64.4438C64.4895 55.1984 64.5393 55.1984 64.585 55.1984H58.9922V55.1984Z" fill="#0061AF"/>
<path d="M64.585 55.1984C64.6349 55.1984 64.6848 55.1984 64.7346 55.1984C64.7513 55.1984 64.7679 55.1984 64.7803 55.1984C64.8136 55.1984 64.851 55.1984 64.8884 55.1984C64.905 55.1984 64.9258 55.1984 64.9424 55.1942C64.9756 55.1942 65.013 55.1901 65.0463 55.1859C65.0504 55.1859 65.0546 55.1859 65.0587 55.1859C65.0712 55.1859 65.0837 55.1859 65.1003 55.1859C65.1335 55.1859 65.1751 55.1776 65.2083 55.1735C65.2083 55.1735 65.2125 55.1735 65.2166 55.1735C65.2249 55.1735 65.2374 55.1735 65.2499 55.1693C65.2873 55.1651 65.3288 55.1568 65.3704 55.1527C65.3828 55.1527 65.3912 55.1527 65.4036 55.1485C65.4493 55.1444 65.4909 55.1361 65.5366 55.1278H65.5407H65.5532C65.6446 55.1111 65.7319 55.0945 65.8191 55.0696C66.0768 55.1651 66.3468 55.2109 66.6336 55.2109H64.5767L64.585 55.1984Z" fill="#0064B1"/>
<path d="M62.7692 50.5198C62.7692 50.5198 62.7692 50.5156 62.7692 50.5115C62.1834 51.0724 61.5975 51.5877 61.0116 52.053C60.7041 52.294 60.4008 52.5267 60.0933 52.7428C60.3509 53.0503 60.6127 53.3411 60.8911 53.6029C61.3108 54.0101 61.7595 54.3509 62.2457 54.6168C62.3579 54.5628 62.4701 54.5004 62.5781 54.4381C63.0767 54.1473 63.5255 53.7567 63.9451 53.2373C63.5089 52.4893 63.1224 51.5627 62.7734 50.5156" fill="#0062A8"/>
<mask id="mask19_4_197" style="mask-type:alpha" maskUnits="userSpaceOnUse" x="63" y="29" width="20" height="27">
<path d="M80.2376 29.3782H77.4619C77.3705 29.3782 77.2791 29.3782 77.1877 29.3782C77.1004 29.3782 77.0132 29.3782 76.9259 29.3782H76.9176C76.7389 29.3865 76.5644 29.3948 76.3899 29.4031C76.3068 29.5776 76.2237 29.7521 76.1447 29.9267C73.394 35.7855 70.5062 40.8631 67.5726 44.8978C66.1931 49.1402 65.1834 51.7164 63.941 53.233C64.4729 54.1389 65.0878 54.7746 65.8233 55.0447C65.8441 55.0364 65.8607 55.0364 65.8815 55.0322C65.8815 55.0322 65.8898 55.0322 65.8939 55.0322C65.8939 55.0322 65.9189 55.0239 65.9355 55.0239C65.9646 55.0156 65.9978 55.0115 66.0269 54.999C66.0269 54.999 66.0643 54.9907 66.0809 54.9824C66.11 54.9741 66.1391 54.9699 66.164 54.9616C66.164 54.9616 66.1973 54.9491 66.2139 54.945C66.2554 54.9325 66.297 54.9242 66.3344 54.9076C66.3344 54.9076 66.3718 54.891 66.3967 54.8868C66.4216 54.8785 66.4424 54.8702 66.4632 54.8619C66.4881 54.8536 66.513 54.8494 66.5338 54.8411C66.5338 54.8411 66.5754 54.8286 66.592 54.8203C66.6419 54.8037 66.6876 54.7871 66.7374 54.7705C66.7374 54.7705 66.7624 54.758 66.7748 54.758C66.8039 54.7455 66.833 54.7372 66.8621 54.7248C66.8621 54.7248 66.887 54.7164 66.8995 54.7123C66.9992 54.6707 67.1031 54.6292 67.207 54.5793C67.207 54.5793 67.2111 54.5793 67.2153 54.5752C67.3649 54.5087 67.5144 54.438 67.6599 54.3591C72.43 51.6956 74.8359 42.7454 82.3235 29.374H80.2334L80.2376 29.3782Z" fill="white"/>
</mask>
<g mask="url(#mask19_4_197)">
<path d="M82.4897 29.5151H3.80727V108.198H82.4897V29.5151Z" fill="url(#paint12_linear_4_197)"/>
</g>
<mask id="mask20_4_197" style="mask-type:alpha" maskUnits="userSpaceOnUse" x="38" y="29" width="12" height="4">
<path d="M49.6306 29.9348H38.2662V32.3781H49.6306V29.9348Z" fill="white"/>
</mask>
<g mask="url(#mask20_4_197)">
<path d="M38.8396 29.9639C38.8396 29.9639 38.8645 29.9639 38.8728 29.9639C38.9019 29.9639 38.931 29.9639 38.9601 29.9722C38.9725 29.9722 38.9808 29.9722 38.9892 29.9722C39.0432 29.9764 39.093 29.9847 39.1471 29.993C39.1554 29.993 39.1637 29.993 39.172 29.9971C39.2135 30.0054 39.2634 30.0138 39.305 30.0179C39.3174 30.0179 39.3257 30.0221 39.3382 30.0262C39.4421 30.047 39.546 30.0678 39.6457 30.0927C39.654 30.0927 39.6665 30.0969 39.6748 30.101C39.7163 30.1135 39.7579 30.1259 39.7994 30.1343C39.8119 30.1343 39.8202 30.1384 39.8327 30.1467C39.8825 30.1592 39.9282 30.1717 39.9781 30.1883C39.9781 30.1883 39.9822 30.1883 39.9864 30.1924C40.028 30.2049 40.0695 30.2215 40.1152 30.2381C40.1318 30.2423 40.1485 30.2506 40.1651 30.2548C40.1942 30.2672 40.2274 30.2797 40.2565 30.2922C40.2731 30.2963 40.2897 30.3046 40.3105 30.3088C40.3479 30.3254 40.3936 30.342 40.431 30.3586C40.4518 30.3669 40.4726 30.3753 40.4892 30.3836C40.5141 30.396 40.539 30.4085 40.564 30.4168C40.5847 30.4293 40.6097 30.4376 40.6305 30.4501C40.6554 30.4625 40.6762 30.4708 40.6969 30.4833C41.2288 30.7451 41.715 31.0899 42.1679 31.5138C42.3341 31.3393 42.5086 31.1814 42.6873 31.0401C41.6983 30.3379 40.5764 29.939 39.2842 29.939C39.1346 29.939 38.985 29.9431 38.8313 29.9597" fill="#6DC3E8"/>
<path d="M42.1762 31.5223C42.4546 31.7799 42.7205 32.0666 42.9698 32.3782C43.2108 32.2079 43.4518 32.0458 43.697 31.8962C43.3812 31.5804 43.0446 31.2937 42.6997 31.0486C42.5211 31.1899 42.3465 31.3478 42.1803 31.5223" fill="#37BEEA"/>
<mask id="mask21_4_197" style="mask-type:alpha" maskUnits="userSpaceOnUse" x="38" y="29" width="9" height="3">
<path d="M38.8396 29.9639C38.9933 29.9514 39.1387 29.9431 39.2925 29.9431C40.5847 29.9431 41.7066 30.342 42.6956 31.0442C43.7427 30.2215 45.0017 29.9348 46.7552 29.9348H38.262C38.4573 29.9348 38.6484 29.9473 38.8354 29.9639" fill="white"/>
</mask>
<g mask="url(#mask21_4_197)">
<path d="M39.764 26.842L38.1241 30.7952L45.7618 33.9635L47.4017 30.0103L39.764 26.842Z" fill="url(#paint13_linear_4_197)"/>
</g>
<mask id="mask22_4_197" style="mask-type:alpha" maskUnits="userSpaceOnUse" x="42" y="29" width="8" height="3">
<path d="M46.7593 29.9348C45.0059 29.9348 43.7427 30.2215 42.6997 31.0442C43.0446 31.2894 43.3812 31.5761 43.697 31.8919C45.1513 30.9653 46.589 30.3545 48.0101 30.0886C48.5544 29.9847 49.0946 29.9348 49.6264 29.9348H46.7593Z" fill="white"/>
</mask>
<g mask="url(#mask22_4_197)">
<path d="M56.1912 23.5648L41.8788 30.0542L48.3682 44.3666L62.6806 37.8772L56.1912 23.5648Z" fill="url(#paint14_linear_4_197)"/>
</g>
</g>
<mask id="mask23_4_197" style="mask-type:alpha" maskUnits="userSpaceOnUse" x="62" y="29" width="15" height="22">
<path d="M76.3857 29.4072H62.7775V50.5031H76.3857V29.4072Z" fill="white"/>
</mask>
<g mask="url(#mask23_4_197)">
<mask id="mask24_4_197" style="mask-type:alpha" maskUnits="userSpaceOnUse" x="62" y="29" width="15" height="22">
<path d="M67.5726 44.906C68.3289 42.5791 69.189 39.7578 70.261 36.3298C71.225 33.2425 72.9328 30.9363 76.1447 29.9308C76.2278 29.7604 76.3068 29.5817 76.3899 29.4072C71.1585 29.7189 68.7153 32.3823 67.4854 36.3214C65.333 43.2024 64.0324 47.6609 62.7775 50.5031C64.3814 48.9698 65.9812 47.0917 67.5726 44.906" fill="white"/>
</mask>
<g mask="url(#mask24_4_197)">
<path d="M76.311 29.3032H-0.647076V106.261H76.311V29.3032Z" fill="url(#paint15_linear_4_197)"/>
</g>
</g>
<path d="M128.488 31.7175H128.633C128.737 31.7175 128.828 31.8131 128.915 32.0042L129.086 32.3823H129.356L129.148 31.9626C129.061 31.7881 128.974 31.6926 128.886 31.6718C129.015 31.6385 129.115 31.5887 129.181 31.5097C129.252 31.4349 129.289 31.3435 129.289 31.2313C129.289 31.1067 129.244 31.0111 129.161 30.9322C129.057 30.8449 128.911 30.7992 128.712 30.7992H128.267V32.3823H128.492V31.7175H128.488ZM128.488 30.9903H128.683C128.82 30.9903 128.915 31.0153 128.974 31.061C129.024 31.1025 129.048 31.169 129.048 31.2604C129.048 31.4432 128.94 31.5305 128.72 31.5305H128.483V30.9903H128.488ZM128.749 32.8394C129.102 32.8394 129.397 32.7189 129.638 32.482C129.879 32.2452 130 31.9502 130 31.6011C130 31.2521 129.879 30.9488 129.634 30.7161C129.397 30.4876 129.107 30.3754 128.758 30.3754C128.409 30.3754 128.105 30.4959 127.864 30.7327C127.623 30.9737 127.507 31.2646 127.507 31.6136C127.507 31.9626 127.623 32.2618 127.86 32.4945C128.097 32.723 128.392 32.8394 128.749 32.8394ZM127.968 30.8283C128.176 30.6164 128.442 30.5125 128.758 30.5125C129.073 30.5125 129.323 30.6164 129.535 30.8241C129.747 31.0319 129.855 31.2978 129.855 31.6095C129.855 31.9211 129.747 32.187 129.535 32.3948C129.323 32.6067 129.061 32.7147 128.758 32.7147C128.454 32.7147 128.192 32.6108 127.981 32.4031C127.765 32.1912 127.656 31.9294 127.656 31.6136C127.656 31.2978 127.76 31.0443 127.968 30.8324V30.8283ZM90.21 31.6344C90.21 31.0443 90.1976 30.6205 90.1726 30.3587H90.1892C90.2557 30.6662 90.3222 30.8906 90.3845 31.0277L92.62 36.0181H92.994L95.2253 30.9903C95.2835 30.8574 95.35 30.6496 95.4206 30.3546H95.4372C95.3957 30.8532 95.3749 31.277 95.3749 31.6219V36.0181H96.1436V29.4737H95.1838L93.1353 34.0195C93.0563 34.194 92.9524 34.4641 92.8236 34.8214H92.7904C92.7447 34.6427 92.645 34.381 92.4954 34.0361L90.4884 29.4737H89.4746V36.0181H90.2142V31.6302L90.21 31.6344ZM98.1422 30.1593C98.2794 30.1593 98.3957 30.1136 98.4913 30.018C98.5869 29.9224 98.6367 29.8103 98.6367 29.6731C98.6367 29.536 98.5869 29.4238 98.4913 29.3283C98.3957 29.2368 98.2794 29.1911 98.1422 29.1911C98.0051 29.1911 97.8929 29.2368 97.7974 29.3283C97.7018 29.4238 97.6561 29.536 97.6561 29.6731C97.6561 29.8186 97.7018 29.9349 97.7974 30.0263C97.8929 30.1177 98.0093 30.1634 98.1422 30.1634V30.1593ZM97.76 36.0181H98.5079V31.3435H97.76V36.0181ZM101.89 36.1303C102.385 36.1303 102.813 36.0222 103.17 35.802V35.0915C102.813 35.3616 102.43 35.4945 102.019 35.4945C101.537 35.4945 101.151 35.3366 100.864 35.0209C100.577 34.7051 100.432 34.2729 100.432 33.7286C100.432 33.1843 100.59 32.7106 100.901 32.3698C101.2 32.0374 101.587 31.8712 102.065 31.8712C102.459 31.8712 102.829 31.9917 103.178 32.2369V31.4682C102.863 31.3103 102.505 31.2313 102.098 31.2313C101.354 31.2313 100.764 31.4682 100.328 31.9377C99.8874 32.4072 99.6672 33.0264 99.6672 33.7951C99.6672 34.4765 99.8666 35.0333 100.27 35.4655C100.681 35.9101 101.221 36.1303 101.89 36.1303V36.1303ZM105.576 31.518C105.347 31.705 105.181 31.9668 105.069 32.3075H105.052V31.3435H104.304V36.0181H105.052V33.633C105.052 33.0928 105.169 32.669 105.405 32.3615C105.613 32.0873 105.867 31.9502 106.17 31.9502C106.419 31.9502 106.611 32 106.739 32.0998V31.3227C106.64 31.2812 106.49 31.2604 106.291 31.2604C106.025 31.2604 105.788 31.3435 105.576 31.5139V31.518ZM109.349 36.1303C110.059 36.1303 110.624 35.9059 111.048 35.4571C111.468 35.0084 111.676 34.41 111.676 33.6663C111.676 32.9225 111.48 32.3158 111.09 31.8795C110.699 31.4474 110.155 31.2313 109.457 31.2313C108.759 31.2313 108.185 31.4391 107.761 31.8505C107.304 32.2951 107.076 32.9225 107.076 33.7369C107.076 34.4474 107.275 35.0209 107.678 35.4571C108.09 35.9059 108.647 36.1303 109.349 36.1303V36.1303ZM108.285 32.3241C108.563 32.0208 108.937 31.8671 109.403 31.8671C109.868 31.8671 110.242 32.0167 110.504 32.32C110.774 32.6316 110.907 33.0887 110.907 33.687C110.907 34.2854 110.782 34.7009 110.529 35.0125C110.271 35.3325 109.893 35.4904 109.403 35.4904C108.912 35.4904 108.547 35.3325 108.268 35.0167C107.986 34.7051 107.845 34.2646 107.845 33.7037C107.845 33.1095 107.99 32.6482 108.285 32.32V32.3241ZM114.954 35.7189C115.241 35.4655 115.382 35.1497 115.382 34.7674C115.382 34.4184 115.266 34.1358 115.037 33.9114C114.863 33.7327 114.576 33.5624 114.173 33.392C113.82 33.2424 113.583 33.1095 113.471 33.0056C113.346 32.8892 113.284 32.7313 113.284 32.5236C113.284 32.3325 113.359 32.1746 113.508 32.0541C113.658 31.9336 113.857 31.8712 114.102 31.8712C114.501 31.8712 114.854 31.9834 115.162 32.2036V31.4516C114.867 31.3061 114.534 31.2313 114.165 31.2313C113.678 31.2313 113.284 31.3601 112.976 31.6178C112.669 31.8754 112.515 32.1995 112.515 32.5859C112.515 32.9308 112.615 33.2133 112.81 33.4294C112.972 33.6122 113.255 33.7868 113.645 33.9613C114.023 34.1275 114.281 34.2729 114.414 34.3893C114.547 34.5056 114.609 34.6594 114.609 34.8422C114.609 35.2785 114.314 35.4945 113.72 35.4945C113.275 35.4945 112.872 35.345 112.507 35.0458V35.8519C112.835 36.0389 113.226 36.1344 113.666 36.1344C114.206 36.1344 114.634 35.9973 114.946 35.7231L114.954 35.7189ZM120.09 35.453C120.51 35.0042 120.721 34.4059 120.721 33.6621C120.721 32.9183 120.522 32.3117 120.136 31.8754C119.745 31.4432 119.201 31.2272 118.503 31.2272C117.805 31.2272 117.227 31.4349 116.803 31.8463C116.35 32.2909 116.118 32.9183 116.118 33.7327C116.118 34.4433 116.317 35.0167 116.72 35.453C117.131 35.9017 117.688 36.1261 118.39 36.1261C119.093 36.1261 119.666 35.9017 120.086 35.453H120.09ZM116.89 33.7037C116.89 33.1095 117.036 32.6482 117.331 32.32C117.613 32.0167 117.983 31.8629 118.449 31.8629C118.914 31.8629 119.288 32.0125 119.55 32.3158C119.82 32.6275 119.957 33.0845 119.957 33.6829C119.957 34.2812 119.832 34.6967 119.579 35.0084C119.321 35.3283 118.947 35.4862 118.453 35.4862C117.958 35.4862 117.601 35.3283 117.314 35.0125C117.032 34.7009 116.895 34.2605 116.895 33.6995L116.89 33.7037ZM121.989 36.0139H122.737V31.9793H123.834V31.3435H122.737V30.6247C122.737 29.964 122.999 29.6357 123.522 29.6357C123.709 29.6357 123.871 29.6773 124.021 29.7604V29.0831C123.888 29.0291 123.709 29 123.481 29C123.082 29 122.745 29.1247 122.471 29.3781C122.151 29.669 121.993 30.072 121.993 30.5873V31.3435H121.199V31.9793H121.993V36.0181L121.989 36.0139ZM125.043 34.7383C125.043 35.6566 125.45 36.1178 126.264 36.1178C126.555 36.1178 126.788 36.068 126.967 35.9682V35.3283C126.83 35.4281 126.668 35.4779 126.485 35.4779C126.235 35.4779 126.057 35.4114 125.949 35.2785C125.841 35.1497 125.791 34.9253 125.791 34.6095V31.9793H126.967V31.3435H125.791V29.9598C125.529 30.0471 125.28 30.1261 125.043 30.2008V31.3435H124.241V31.9793H125.043V34.7425V34.7383ZM101.284 50.2537C101.284 51.4421 101.325 52.2815 101.404 52.7759H101.358C101.238 52.5474 101.005 52.1651 100.664 51.6291L92.0757 38.1705H89.4662V55.3314H91.4773V42.9365C91.4773 41.7315 91.4441 40.9461 91.3818 40.5805H91.4524C91.602 40.9711 91.7807 41.3284 91.9884 41.6567L100.843 55.3314H103.282V38.1746H101.284V50.2579V50.2537ZM109.091 47.5155H115.287V45.6955H109.091V39.9863H115.781V38.1663H107.084V55.3314H116.176V53.5114H109.091V47.5155V47.5155ZM118.062 39.9904H123.015V55.3314H125.026V39.9904H129.967V38.1705H118.062V39.9904V39.9904ZM85.1823 52.9006C84.8166 52.9006 84.505 53.0294 84.2515 53.2953C83.9939 53.5571 83.8692 53.877 83.8692 54.251C83.8692 54.625 83.9939 54.9325 84.2515 55.2025C84.505 55.4685 84.8166 55.6056 85.1823 55.6056C85.5479 55.6056 85.8762 55.4726 86.1421 55.2025C86.4039 54.9366 86.5368 54.6167 86.5368 54.251C86.5368 53.8854 86.4039 53.5654 86.1421 53.2995C85.8803 53.0294 85.5604 52.9006 85.1823 52.9006ZM73.0658 53.8106H73.5478V55.3023H73.7431V53.8106H74.2209V53.6319H73.0658V53.8106V53.8106ZM75.4176 54.7912C75.3968 54.8369 75.3719 54.9034 75.3386 54.9948H75.3303C75.3179 54.9491 75.2929 54.8826 75.2555 54.7953L74.7444 53.6319H74.4868V55.2981H74.6738V54.1804C74.6738 54.0308 74.6738 53.9228 74.6655 53.8521H74.6697C74.6863 53.9311 74.7029 53.9892 74.7195 54.0266L75.2888 55.2981H75.3843L75.9536 54.0183C75.9702 53.9851 75.9868 53.9311 76.0076 53.8563C75.9993 53.9851 75.991 54.0931 75.991 54.1804V55.3023H76.1863V53.636H75.9411L75.4176 54.7953V54.7912Z" fill="#231F20"/>
<defs>
<linearGradient id="paint0_linear_4_197" x1="49.4854" y1="29.1043" x2="49.4854" y2="60.8416" gradientUnits="userSpaceOnUse">
<stop stop-color="#0095DA"/>
<stop offset="0.11" stop-color="#0095DA"/>
<stop offset="0.35" stop-color="#44C8F5"/>
<stop offset="0.45" stop-color="#44C8F5"/>
<stop offset="0.85" stop-color="#007DC5"/>
<stop offset="1" stop-color="#007DC5"/>
</linearGradient>
<linearGradient id="paint1_linear_4_197" x1="49.6091" y1="30.7979" x2="49.6091" y2="63.3412" gradientUnits="userSpaceOnUse">
<stop stop-color="#0078B9"/>
<stop offset="0.18" stop-color="#0078B9"/>
<stop offset="0.36" stop-color="#00AAE5"/>
<stop offset="0.52" stop-color="#00AAE5"/>
<stop offset="0.85" stop-color="#00AEEF"/>
<stop offset="1" stop-color="#00AEEF"/>
</linearGradient>
<linearGradient id="paint2_linear_4_197" x1="56.9817" y1="53.6787" x2="56.9817" y2="27.7836" gradientUnits="userSpaceOnUse">
<stop stop-color="#0066B3"/>
<stop offset="0.5" stop-color="#00B9F2"/>
<stop offset="1" stop-color="#00B9F2"/>
</linearGradient>
<linearGradient id="paint3_linear_4_197" x1="54.9984" y1="26.1192" x2="54.9984" y2="59.9091" gradientUnits="userSpaceOnUse">
<stop stop-color="#006CB2"/>
<stop offset="0.1" stop-color="#006CB2"/>
<stop offset="0.4" stop-color="#00AAE5"/>
<stop offset="0.52" stop-color="#00AAE5"/>
<stop offset="0.85" stop-color="#0097D9"/>
<stop offset="1" stop-color="#0097D9"/>
</linearGradient>
<linearGradient id="paint4_linear_4_197" x1="51.6911" y1="27.4576" x2="51.6911" y2="63.3874" gradientUnits="userSpaceOnUse">
<stop stop-color="#00487E"/>
<stop offset="0.11" stop-color="#00487E"/>
<stop offset="0.39" stop-color="#0087C7"/>
<stop offset="0.52" stop-color="#0087C7"/>
<stop offset="0.78" stop-color="#005598"/>
<stop offset="1" stop-color="#005598"/>
</linearGradient>
<linearGradient id="paint5_linear_4_197" x1="76.2205" y1="53.8582" x2="76.2205" y2="28.6321" gradientUnits="userSpaceOnUse">
<stop stop-color="#006DB0"/>
<stop offset="0.08" stop-color="#0781BF"/>
<stop offset="0.21" stop-color="#119ED6"/>
<stop offset="0.34" stop-color="#19B3E6"/>
<stop offset="0.48" stop-color="#1DBFF0"/>
<stop offset="0.6" stop-color="#1FC4F4"/>
<stop offset="1" stop-color="#1FC4F4"/>
</linearGradient>
<linearGradient id="paint6_linear_4_197" x1="30.6043" y1="53.4954" x2="30.6043" y2="27.6668" gradientUnits="userSpaceOnUse">
<stop stop-color="#008ED0"/>
<stop offset="0.55" stop-color="#009DDB"/>
<stop offset="1" stop-color="#00A4E0"/>
</linearGradient>
<linearGradient id="paint7_linear_4_197" x1="31.184" y1="56.4624" x2="31.184" y2="31.3527" gradientUnits="userSpaceOnUse">
<stop stop-color="#00A0E4"/>
<stop offset="1" stop-color="#00A0E4"/>
</linearGradient>
<linearGradient id="paint8_linear_4_197" x1="33.2707" y1="55.6744" x2="33.2707" y2="34.458" gradientUnits="userSpaceOnUse">
<stop stop-color="#005DA3"/>
<stop offset="0.15" stop-color="#005DA3"/>
<stop offset="0.28" stop-color="#0075BB"/>
<stop offset="0.5" stop-color="#00A0E4"/>
<stop offset="0.92" stop-color="#71BEE3"/>
<stop offset="1" stop-color="#71BEE3"/>
</linearGradient>
<linearGradient id="paint9_linear_4_197" x1="33.7298" y1="55.2459" x2="29.6733" y2="32.2404" gradientUnits="userSpaceOnUse">
<stop stop-color="#005496"/>
<stop offset="0.1" stop-color="#005496"/>
<stop offset="1" stop-color="#0082C5"/>
</linearGradient>
<linearGradient id="paint10_linear_4_197" x1="72.1146" y1="40.282" x2="72.1146" y2="28.2611" gradientUnits="userSpaceOnUse">
<stop stop-color="#00A0E4"/>
<stop offset="0.51" stop-color="#009EE1"/>
<stop offset="0.77" stop-color="#0099DA"/>
<stop offset="0.87" stop-color="#0095D4"/>
<stop offset="1" stop-color="#0095D4"/>
</linearGradient>
<linearGradient id="paint11_linear_4_197" x1="78.1606" y1="27.1243" x2="73.2722" y2="54.8479" gradientUnits="userSpaceOnUse">
<stop stop-color="#00A4E0"/>
<stop offset="0.36" stop-color="#00A4E0"/>
<stop offset="0.96" stop-color="#0089CF"/>
<stop offset="1" stop-color="#0089CF"/>
</linearGradient>
<linearGradient id="paint12_linear_4_197" x1="73.4249" y1="29.4149" x2="73.4249" y2="55.6424" gradientUnits="userSpaceOnUse">
<stop stop-color="#008DCF"/>
<stop offset="0.5" stop-color="#0087C8"/>
<stop offset="1" stop-color="#00508F"/>
</linearGradient>
<linearGradient id="paint13_linear_4_197" x1="40.0457" y1="28.752" x2="46.0868" y2="31.258" gradientUnits="userSpaceOnUse">
<stop stop-color="#8CCEEC"/>
<stop offset="0.7" stop-color="#1FBAE8"/>
<stop offset="1" stop-color="#1FBAE8"/>
</linearGradient>
<linearGradient id="paint14_linear_4_197" x1="42.232" y1="31.5362" x2="47.0041" y2="29.3725" gradientUnits="userSpaceOnUse">
<stop stop-color="#68C5EA"/>
<stop offset="0.34" stop-color="#68C5EA"/>
<stop offset="0.44" stop-color="#53C1EA"/>
<stop offset="0.69" stop-color="#26B9EA"/>
<stop offset="0.89" stop-color="#0AB3EA"/>
<stop offset="1" stop-color="#00B2EA"/>
</linearGradient>
<linearGradient id="paint15_linear_4_197" x1="70.0382" y1="29.7011" x2="70.0382" y2="55.3552" gradientUnits="userSpaceOnUse">
<stop stop-color="#00A5E4"/>
<stop offset="1" stop-color="#00A8E3"/>
</linearGradient>
</defs>
</svg>
