<svg width="150" height="85" viewBox="0 0 150 85" fill="none" xmlns="http://www.w3.org/2000/svg">
<path d="M58.5665 31.5811V49.2109L60.8352 49.2282V40.8289H66.3077V38.6122H60.8352V33.7978H67.953V31.5811H58.5665V31.5811ZM72.04 35.1659C72.854 35.1659 73.5294 34.5078 73.5294 33.6766C73.5294 32.8453 72.8713 32.1872 72.04 32.1872C71.2261 32.1872 70.5507 32.8453 70.5507 33.6766C70.5507 34.5078 71.2088 35.1659 72.04 35.1659ZM70.8797 37.3826V49.2282H73.1484V37.3826H70.8797ZM81.565 37.0363C78.5517 37.0363 76.4562 39.582 76.4562 42.6127C76.4562 45.6434 78.5517 48.1892 81.565 48.1892C82.9505 48.1892 84.0762 47.6696 84.9074 46.7864V48.3623C84.9247 50.3193 83.3661 51.9472 81.3918 51.9645C81.3745 51.9645 81.3745 51.9645 81.3572 51.9645C80.6298 51.9645 79.9198 51.6874 79.3483 51.2891L78.2053 53.2634C80.9069 55.0125 84.5091 54.2332 86.2409 51.5316C86.8471 50.5791 87.1761 49.488 87.1761 48.3623V37.4H84.9074V38.4564C84.0762 37.5731 82.9505 37.0363 81.565 37.0363ZM78.7248 42.6127C78.7248 40.725 80.1622 39.253 81.8248 39.253C83.4873 39.253 84.9074 40.7424 84.9074 42.6127C84.9074 44.5004 83.47 45.9551 81.8248 45.9551C80.1622 45.9551 78.7248 44.4831 78.7248 42.6127ZM95.3503 39.253C93.9994 39.2703 92.9084 40.3787 92.9257 41.7295V49.2109H90.657V37.3653H92.9257V38.4564C93.6184 37.5385 94.6922 37.019 95.8525 37.0363C97.4458 37.0363 98.6753 37.8156 99.3681 39.0279C100.165 37.7983 101.516 37.0536 102.97 37.0363C105.551 37.0363 107.161 39.1144 107.161 41.6948V49.2109H104.91V41.7295C104.91 40.3787 103.836 39.2703 102.485 39.253C101.135 39.2703 100.043 40.3787 100.061 41.7295V49.2109H97.7748V41.7295C97.7748 40.3787 96.7011 39.2703 95.3503 39.253ZM119.249 38.7161C118.21 37.6251 116.755 37.019 115.249 37.0363C111.872 37.0363 109.482 39.8938 109.482 43.2881C109.482 46.6998 111.872 49.54 115.249 49.54C116.755 49.54 118.193 48.9338 119.249 47.8601V49.2109H121.518V37.3653H119.249V38.7161ZM111.751 43.2881C111.751 41.0368 113.482 39.2357 115.509 39.2357C117.517 39.253 119.249 41.0368 119.249 43.2881C119.249 45.5395 117.517 47.3232 115.491 47.3232C113.5 47.3406 111.751 45.5568 111.751 43.2881Z" fill="black"/>
<path d="M39.6551 42.5088C39.6551 39.2876 42.2701 36.6726 45.4913 36.6726C48.7125 36.6726 51.3275 39.2876 51.3275 42.5088C51.3275 45.73 48.7125 48.345 45.4913 48.345C42.2701 48.345 39.6551 45.73 39.6551 42.5088Z" fill="#1ABCFE"/>
<path d="M28 54.1638C28 50.9427 30.615 48.3276 33.8362 48.3276H39.6724V54.1638C39.6724 57.385 37.0574 60.0001 33.8362 60.0001C30.615 60.0001 28 57.385 28 54.1638Z" fill="#0ACF83"/>
<path d="M39.6551 25.0173V36.6724H45.4913C48.7125 36.6724 51.3275 34.0574 51.3275 30.8362C51.3275 27.615 48.7125 25 45.4913 25H39.6551V25.0173Z" fill="#FF7262"/>
<path d="M28 30.8534C28 34.0746 30.615 36.6896 33.8362 36.6896H39.6724V25.0345H33.8362C30.615 25.0172 28 27.6322 28 30.8534Z" fill="#F24E1E"/>
<path d="M28 42.5084C28 45.7296 30.615 48.3447 33.8362 48.3447H39.6724V36.6895H33.8362C30.615 36.6722 28 39.2873 28 42.5084Z" fill="#A259FF"/>
</svg>
