<svg width="150" height="85" viewBox="0 0 150 85" fill="none" xmlns="http://www.w3.org/2000/svg">
<path d="M83.9378 36.7949C81.9645 36.7949 80.4948 37.7639 80.4948 40.0958C80.4948 41.8527 81.4633 43.0727 83.8314 43.0727C85.8386 43.0727 87.2019 41.8898 87.2019 40.0232C87.2019 37.9077 85.982 36.7949 83.9378 36.7949ZM79.9924 53.2607C79.5254 53.8336 79.0601 54.4428 79.0601 55.1611C79.0601 56.5949 80.8884 57.0265 83.3999 57.0265C85.4804 57.0265 88.3143 56.8806 88.3143 54.9464C88.3143 53.7965 86.9509 53.7256 85.2282 53.6177L79.9924 53.2607ZM90.6095 36.9033C91.2541 37.7284 91.9366 38.8767 91.9366 40.5265C91.9366 44.5077 88.8159 46.8388 84.2976 46.8388C83.1485 46.8388 82.1083 46.6958 81.4633 46.5165L80.2792 48.4173L83.7939 48.632C89.9999 49.0277 93.6573 49.2073 93.6573 53.9758C93.6573 58.1017 90.0354 60.432 83.7939 60.432C77.3019 60.432 74.827 58.7822 74.827 55.9487C74.827 54.3344 75.5446 53.4755 76.7999 52.2897C75.6159 51.7894 75.2219 50.893 75.2219 49.9241C75.2219 49.1344 75.6159 48.4173 76.2625 47.7352C76.9079 47.0547 77.625 46.3722 78.486 45.5834C76.7286 44.7224 75.4011 42.8571 75.4011 40.2025C75.4011 36.0782 78.1274 33.2456 83.6143 33.2456C85.1569 33.2456 86.09 33.3874 86.9151 33.6042H93.9099V36.6519L90.6095 36.9033Z" fill="#2F2707"/>
<path d="M100.22 30.3853C98.1752 30.3853 96.9919 29.2008 96.9919 27.1553C96.9919 25.1128 98.1752 24 100.22 24C102.301 24 103.484 25.1128 103.484 27.1553C103.484 29.2008 102.301 30.3853 100.22 30.3853ZM95.5923 51.9406V49.1084L97.4222 48.8582C97.9246 48.7856 97.9959 48.6785 97.9959 48.1394V37.594C97.9959 37.2004 97.8887 36.9482 97.5289 36.8414L95.5923 36.1593L95.9867 33.255H103.412V48.1394C103.412 48.7143 103.447 48.7856 103.986 48.8582L105.816 49.1084V51.9406H95.5923Z" fill="#2F2707"/>
<path d="M120 50.5501C118.457 51.3026 116.198 51.9843 114.152 51.9843C109.884 51.9843 108.27 50.2645 108.27 46.2094V36.8122C108.27 36.5975 108.27 36.4537 107.982 36.4537H105.472V33.2613C108.629 32.9019 109.884 31.3234 110.278 27.4138H113.686V32.5087C113.686 32.7589 113.686 32.8672 113.974 32.8672H119.031V36.4537H113.686V45.0258C113.686 47.1421 114.189 47.9664 116.125 47.9664C117.131 47.9664 118.17 47.7158 119.031 47.3931L120 50.5501Z" fill="#2F2707"/>
<path d="M66.8538 41.1373L50.4535 24.7383C49.5097 23.7936 47.9778 23.7936 47.0328 24.7383L43.6273 28.1438L47.9473 32.4638C48.9513 32.1246 50.1024 32.3521 50.9028 33.1525C51.7069 33.9578 51.9327 35.1188 51.5853 36.1261L55.7487 40.2895C56.756 39.9425 57.9182 40.1671 58.7227 40.9728C59.847 42.0967 59.847 43.9184 58.7227 45.0431C57.598 46.1679 55.7763 46.1679 54.6512 45.0431C53.8055 44.1966 53.5965 42.9544 54.0247 41.9125L50.142 38.0297L50.1416 48.2475C50.4156 48.3835 50.6745 48.5644 50.9028 48.7919C52.0271 49.9158 52.0271 51.7375 50.9028 52.8631C49.778 53.9874 47.9556 53.9874 46.8325 52.8631C45.7082 51.7375 45.7082 49.9158 46.8325 48.7919C47.1103 48.5146 47.4317 48.3048 47.7746 48.1638V37.8509C47.4317 37.7108 47.1107 37.5022 46.8325 37.2228C45.9806 36.3721 45.7758 35.1221 46.2122 34.0761L41.954 29.817L30.7088 41.0614C29.7637 42.0069 29.7637 43.5388 30.7088 44.4834L47.109 60.8829C48.0532 61.8275 49.5848 61.8275 50.5302 60.8829L66.8538 44.5597C67.7984 43.6146 67.7984 42.0819 66.8538 41.1373Z" fill="#DE4C36"/>
</svg>
