<svg width="150" height="85" viewBox="0 0 150 85" fill="none" xmlns="http://www.w3.org/2000/svg">
<path d="M74.6329 18C60.4781 18 49 29.476 49 43.6329C49 54.9582 56.3446 64.5665 66.5294 67.9559C67.8104 68.1932 68.2807 67.3999 68.2807 66.7229C68.2807 66.1116 68.257 64.0924 68.2459 61.9505C61.1148 63.5011 59.6101 58.9262 59.6101 58.9262C58.444 55.9634 56.764 55.1756 56.764 55.1756C54.4383 53.5846 56.9393 53.6173 56.9393 53.6173C59.5133 53.7982 60.8686 56.2588 60.8686 56.2588C63.1548 60.1775 66.8651 59.0446 68.3278 58.3897C68.5579 56.7329 69.2222 55.6022 69.9553 54.9621C64.2618 54.3139 58.2768 52.116 58.2768 42.2942C58.2768 39.4956 59.2781 37.209 60.9179 35.4139C60.6517 34.7683 59.7743 32.1612 61.1662 28.6304C61.1662 28.6304 63.3187 27.9415 68.2171 31.2579C70.2617 30.69 72.4545 30.4052 74.6329 30.3954C76.8113 30.4052 79.0058 30.69 81.0543 31.2579C85.9468 27.9415 88.0963 28.6304 88.0963 28.6304C89.4915 32.1612 88.6137 34.7683 88.3476 35.4139C89.9911 37.209 90.9857 39.4956 90.9857 42.2942C90.9857 52.1393 84.9892 54.3071 79.2813 54.9417C80.2007 55.7371 81.0199 57.2971 81.0199 59.6885C81.0199 63.1183 80.9902 65.8786 80.9902 66.7229C80.9902 67.405 81.4516 68.2043 82.7509 67.9526C92.9302 64.5593 100.265 54.9544 100.265 43.6329C100.265 29.476 88.789 18 74.6329 18ZM58.6004 54.5147C58.5439 54.642 58.3436 54.6802 58.161 54.5928C57.9751 54.5091 57.8707 54.3355 57.931 54.2078C57.9862 54.0766 58.1869 54.0401 58.3724 54.128C58.5588 54.2116 58.6649 54.3869 58.6004 54.5147ZM59.8612 55.6397C59.739 55.753 59.5 55.7004 59.3378 55.5213C59.1702 55.3426 59.1388 55.1036 59.2627 54.9886C59.3888 54.8752 59.6205 54.9283 59.7886 55.107C59.9563 55.2878 59.989 55.5251 59.8612 55.6397ZM60.7262 57.0792C60.5692 57.1882 60.3124 57.0859 60.1536 56.858C59.9966 56.6301 59.9966 56.3567 60.157 56.2472C60.3162 56.1377 60.5692 56.2362 60.73 56.4624C60.8867 56.6942 60.8867 56.9675 60.7262 57.0792ZM62.1891 58.7462C62.0486 58.9012 61.7494 58.8596 61.5303 58.6482C61.3062 58.4415 61.2438 58.1482 61.3847 57.9932C61.5269 57.8379 61.8279 57.8816 62.0486 58.0913C62.271 58.2976 62.3389 58.593 62.1891 58.7462ZM64.0798 59.309C64.0178 59.5098 63.7296 59.6011 63.4392 59.5158C63.1493 59.4279 62.9596 59.1927 63.0182 58.9898C63.0784 58.7878 63.3679 58.6927 63.6604 58.784C63.9499 58.8714 64.14 59.1049 64.0798 59.309ZM66.2314 59.5478C66.2386 59.7591 65.9924 59.9345 65.6876 59.9383C65.3812 59.9451 65.1333 59.774 65.1299 59.566C65.1299 59.3525 65.3706 59.1789 65.677 59.1738C65.9818 59.1679 66.2314 59.3376 66.2314 59.5478ZM68.3451 59.4667C68.3816 59.673 68.1698 59.8848 67.8672 59.9413C67.5696 59.9956 67.2941 59.8683 67.2564 59.6637C67.2194 59.4523 67.4351 59.2405 67.7322 59.1857C68.0353 59.1331 68.3065 59.257 68.3451 59.4667Z" fill="#161614"/>
</svg>
