<svg width="150" height="85" viewBox="0 0 150 85" fill="none" xmlns="http://www.w3.org/2000/svg">
<path d="M97.65 34.8721H95.6712L95.6776 49.5926H103.684V47.7726H97.658L97.6516 34.8721H97.65ZM111.306 47.0077C110.81 47.524 109.98 48.042 108.854 48.042C107.347 48.042 106.74 47.2995 106.74 46.3342C106.74 44.8734 107.752 44.1774 109.911 44.1774C110.315 44.1774 110.967 44.2223 111.304 44.2897V47.0093L111.306 47.0077ZM109.26 38.0856C107.661 38.0856 106.195 38.6516 105.052 39.5945L105.751 40.8052C106.561 40.3337 107.55 39.8607 108.966 39.8607C110.586 39.8607 111.306 40.6929 111.306 42.0864V42.8064C110.991 42.739 110.339 42.6941 109.935 42.6941C106.471 42.6941 104.717 43.908 104.717 46.448C104.717 48.7187 106.11 49.8636 108.225 49.8636C109.649 49.8636 111.014 49.2109 111.487 48.1558L111.846 49.5942H113.241V42.0656C113.241 39.6827 112.207 38.0872 109.261 38.0872L109.26 38.0856ZM119.625 48.1093C118.882 48.1093 118.23 48.0195 117.736 47.795V40.9848C118.411 40.4219 119.243 40.0178 120.3 40.0178C122.211 40.0178 122.954 41.3664 122.954 43.5456C122.954 46.6469 121.762 48.1077 119.625 48.1077M120.457 38.084C118.688 38.084 117.736 39.2866 117.736 39.2866V37.388L117.73 34.8705H115.796L115.802 49.2318C116.769 49.6359 118.095 49.8604 119.535 49.8604C123.223 49.8604 125 47.5 125 43.4334C125 40.2199 123.358 38.084 120.457 38.084ZM76.1369 36.466C77.8912 36.466 79.0152 37.0497 79.7577 37.635L80.6076 36.1629C79.4482 35.1479 77.8895 34.6011 76.2267 34.6011C72.0222 34.6011 69.0749 37.1635 69.0749 42.3317C69.0749 47.5 72.2531 49.8604 75.8883 49.8604C77.71 49.8604 79.2622 49.4338 80.274 49.0057L80.2323 43.2185V41.3985H74.8348V43.2185H78.276L78.3177 47.6122C77.8687 47.8367 77.0814 48.0163 76.0246 48.0163C73.1014 48.0163 71.1451 46.1786 71.1451 42.3077C71.1451 38.4367 73.1687 36.4644 76.1369 36.4644M90.054 34.8689H88.1201L88.1266 37.3415V45.882C88.1266 48.2649 89.1608 49.8604 92.1065 49.8604C92.5138 49.8604 92.9115 49.8235 93.298 49.7529V48.0179C93.0174 48.0612 92.7191 48.0853 92.3984 48.0853C90.7788 48.0853 90.0588 47.253 90.0588 45.8611V39.9729H93.2964V38.355H90.0588L90.0524 34.8721L90.054 34.8689ZM83.2133 49.5894H85.1472V38.355H83.2133V49.5926V49.5894ZM83.2133 36.8011H85.1472V34.8689H83.2133V36.8011Z" fill="#888F9B"/>
<path d="M42.5699 58.3703L49.0402 38.4575H36.1013L42.5715 58.3703H42.5699Z" fill="#D74B3A"/>
<path d="M42.5699 58.3703L36.0997 38.4575H27.0316L42.5699 58.3703V58.3703Z" fill="#F36F3C"/>
<path d="M27.0316 38.4558L25.0657 44.5076C24.8861 45.0592 25.0833 45.6637 25.5532 46.0053L42.5715 58.3702L27.0316 38.4558Z" fill="#F3993F"/>
<path d="M27.0316 38.4559H36.0997L32.203 26.463C32.0026 25.8457 31.1303 25.8457 30.9298 26.463L27.0316 38.4559Z" fill="#D74B3A"/>
<path d="M42.5699 58.3703L49.0402 38.4575H58.1083L42.5699 58.3703V58.3703Z" fill="#F36F3C"/>
<path d="M58.1083 38.4558L60.0742 44.5076C60.2538 45.0592 60.0566 45.6637 59.5867 46.0053L42.5683 58.3702L58.1067 38.4558H58.1083Z" fill="#F3993F"/>
<path d="M58.1083 38.4559H49.0402L52.9384 26.463C53.1389 25.8457 54.0128 25.8457 54.2133 26.463L58.1099 38.4575L58.1083 38.4559Z" fill="#D74B3A"/>
</svg>
