<svg width="150" height="85" viewBox="0 0 150 85" fill="none" xmlns="http://www.w3.org/2000/svg">
<path d="M57.0117 62.9997L53 18H97.0621L93.0454 63.0031L75.0203 68L57.0117 62.9997Z" fill="#E34E26"/>
<path d="M75.031 21.6782V64.1775L89.6065 60.1374L93.0407 21.6782H75.031Z" fill="#EF662A"/>
<path d="M61.2079 27.198L62.6957 43.8881H81.8251L81.1831 51.0467L75.0239 52.712L68.8764 51.049L68.4653 46.4526H62.9254L63.7176 55.3133L75.0225 58.4532L86.342 55.3133L87.8594 38.3697H67.7435L67.2386 32.7177H88.3426H88.3597L88.854 27.198H61.2079Z" fill="white"/>
<path d="M75.031 27.198H61.2079L62.6957 43.8881H75.031V38.3697H67.7435L67.2386 32.7177H75.031V27.198Z" fill="#EBEBEB"/>
<path d="M75.031 52.7096L75.0239 52.712L68.8764 51.049L68.4654 46.4526H62.9254L63.7176 55.3132L75.0225 58.4532L75.031 58.4507V52.7096Z" fill="#EBEBEB"/>
</svg>
