<svg width="150" height="85" viewBox="0 0 150 85" fill="none" xmlns="http://www.w3.org/2000/svg">
<path d="M57.0837 62.9554L53 18L96.9945 18.0172L92.9451 62.9211L74.9629 68L57.0837 62.9554ZM89.6335 60.5017L93.048 21.9979H75.0316L75.1688 64.4653L89.6335 60.5017V60.5017ZM73.35 27.6431H68.9746L68.9231 50.687L60.4296 48.3706L60.4468 53.6383L73.35 57.1215V27.6431V27.6431Z" fill="#D4B830"/>
<path opacity="0.986" d="M60.4468 53.6382L60.4297 48.3705C60.4297 48.3705 65.8518 49.8976 68.9231 50.6869L68.9746 27.6602H73.35V57.1214L60.4468 53.6382V53.6382Z" fill="#EBEBEB" fill-opacity="0.9216"/>
<path d="M75.0316 21.9807H93.048L89.6335 60.4845L75.0316 64.4481V21.9807ZM88.7069 54.0329L89.8909 39.6369L81.14 40.6149V32.9279L90.4742 32.8935L90.8517 27.643L76.7646 27.7117L76.9533 46.8263L85.464 45.3678L85.3438 49.6231L76.7646 51.9052L76.8504 57.1214L88.7069 54.0329Z" fill="#FDD83C"/>
</svg>
