<svg width="150" height="85" viewBox="0 0 150 85" fill="none" xmlns="http://www.w3.org/2000/svg">
<path d="M91.4764 61.2567H91.2315V61.1187H91.8906V61.2567H91.6479V61.9403H91.4764V61.2567ZM92.7924 61.2923H92.7879L92.5452 61.9403H92.4339L92.1934 61.2923H92.1912V61.9403H92.0309V61.1209H92.2691L92.4918 61.7021L92.7145 61.1209H92.9505V61.9403H92.7924V61.2923V61.2923Z" fill="#E76F00"/>
<path d="M69.5544 44.4783C69.5544 44.4783 67.851 45.4692 70.768 45.8054C74.3018 46.2084 76.1054 46.1505 79.9999 45.4135C79.9999 45.4135 81.0242 46.0548 82.4538 46.6115C73.7251 50.3523 62.7006 46.3955 69.5566 44.4783" fill="#5382A1"/>
<path d="M68.4878 39.5977C68.4878 39.5977 66.5773 41.0116 69.4943 41.3145C73.2686 41.7041 76.2479 41.7353 81.405 40.7422C81.405 40.7422 82.1175 41.4659 83.2398 41.86C72.6874 44.9462 60.9348 42.1027 68.4856 39.5977" fill="#5382A1"/>
<path d="M77.4793 31.3187C79.6303 33.7948 76.9137 36.0215 76.9137 36.0215C76.9137 36.0215 82.3736 33.2025 79.8663 29.6732C77.5238 26.3821 75.7291 24.7455 85.4509 19.1074C85.4509 19.1074 70.189 22.9196 77.4771 31.3187" fill="#E76F00"/>
<path d="M89.0226 48.0902C89.0226 48.0902 90.2829 49.13 87.6331 49.9317C82.5963 51.4569 66.6664 51.9179 62.2397 49.9918C60.6498 49.2993 63.6314 48.3396 64.571 48.1369C65.5486 47.9254 66.1097 47.9632 66.1097 47.9632C64.3417 46.7163 54.6755 50.4104 61.1998 51.4681C78.9957 54.3539 93.6386 50.1677 89.0226 48.0857" fill="#5382A1"/>
<path d="M70.3738 34.5406C70.3738 34.5406 62.2708 36.4645 67.5036 37.1637C69.7125 37.4599 74.1192 37.3931 78.2208 37.0479C81.5742 36.7651 84.941 36.1639 84.941 36.1639C84.941 36.1639 83.7586 36.6694 82.9036 37.255C74.6759 39.4194 58.7794 38.4129 63.3552 36.1995C67.2253 34.3291 70.3716 34.5406 70.3716 34.5406" fill="#5382A1"/>
<path d="M84.9098 42.6658C93.2756 38.3192 89.4078 34.1419 86.7068 34.7053C86.0455 34.8433 85.7493 34.9613 85.7493 34.9613C85.7493 34.9613 85.9942 34.5761 86.4641 34.4091C91.8037 32.532 95.912 39.947 84.7406 42.884C84.7406 42.884 84.8697 42.7682 84.9076 42.6658" fill="#5382A1"/>
<path d="M79.8663 10C79.8663 10 84.4979 14.6338 75.473 21.7593C68.2362 27.4752 73.823 30.7352 75.4708 34.4582C71.2467 30.6461 68.1449 27.2904 70.2247 24.1686C73.2775 19.5838 81.7368 17.3615 79.8663 10" fill="#E76F00"/>
<path d="M71.1955 54.4429C79.225 54.9573 91.5544 54.1579 91.8461 50.3591C91.8461 50.3591 91.2849 51.7998 85.2105 52.9421C78.3566 54.2314 69.9063 54.0822 64.8917 53.2539C64.8917 53.2539 65.9182 54.1022 71.1955 54.4407" fill="#5382A1"/>
<path d="M69.8795 68.9591C69.1224 69.6159 68.3231 69.9856 67.6038 69.9856C66.5795 69.9856 66.0251 69.371 66.0251 68.3846C66.0251 67.318 66.6174 66.5386 68.9978 66.5386H69.8795V68.9591M71.9704 71.3171V64.018C71.9704 62.152 70.906 60.9229 68.3431 60.9229C66.8467 60.9229 65.5352 61.2925 64.4686 61.7645L64.7759 63.056C65.6154 62.7488 66.702 62.4615 67.7664 62.4615C69.2427 62.4615 69.8795 63.056 69.8795 64.2852V65.207H69.1425C65.553 65.207 63.9342 66.601 63.9342 68.6919C63.9342 70.4955 65.0008 71.522 67.0093 71.522C68.3008 71.522 69.265 70.9898 70.1645 70.2082L70.3271 71.3171H71.966H71.9704Z" fill="#E76F00"/>
<path d="M78.9445 71.3171H76.337L73.1995 61.1077H75.4752L77.4214 67.3803L77.8534 69.2663C78.8376 66.5386 79.5345 63.7708 79.8841 61.1077H82.0975C81.5052 64.47 80.4364 68.1597 78.9422 71.3171" fill="#E76F00"/>
<path d="M88.9447 68.9591C88.1853 69.6159 87.3837 69.9856 86.6667 69.9856C85.6447 69.9856 85.088 69.371 85.088 68.3846C85.088 67.318 85.6825 66.5386 88.0629 66.5386H88.9447V68.9591ZM91.0333 71.3171V64.018C91.0333 62.152 89.9667 60.9229 87.406 60.9229C85.9074 60.9229 84.5959 61.2925 83.5315 61.7645L83.8388 63.056C84.6783 62.7488 85.7671 62.4615 86.8315 62.4615C88.3078 62.4615 88.9447 63.056 88.9447 64.2852V65.207H88.2054C84.6159 65.207 82.9971 66.601 82.9971 68.6919C82.9971 70.4955 84.0637 71.522 86.0722 71.522C87.3637 71.522 88.3279 70.9898 89.2297 70.2082L89.3945 71.3171H91.0333V71.3171Z" fill="#E76F00"/>
<path d="M61.6429 73.0516C61.0461 73.9223 60.0842 74.6103 59.031 75L58 73.7864C58.8016 73.3745 59.4897 72.7109 59.8081 72.0919C60.0842 71.5419 60.2 70.8316 60.2 69.1348V57.4802H62.42V68.9767C62.42 71.2458 62.2374 72.161 61.6429 73.0539" fill="#E76F00"/>
</svg>
