<svg width="150" height="85" viewBox="0 0 150 85" fill="none" xmlns="http://www.w3.org/2000/svg">
<path d="M38.6485 43.7848C38.6485 43.4314 38.4522 43.0977 38.1382 42.921L29.815 38.1313C29.6776 38.0528 29.5206 38.0135 29.3635 37.9939H29.285C29.128 37.9939 28.9709 38.0528 28.8335 38.1313L20.5104 42.921C20.1963 43.0977 20 43.4314 20 43.7848L20.0196 56.6621C20.0196 56.8387 20.1178 57.0154 20.2748 57.0939C20.4319 57.1921 20.6282 57.1921 20.7656 57.0939L25.7123 54.2672C26.0264 54.0905 26.2227 53.7568 26.2227 53.4035V47.3771C26.2227 47.0237 26.419 46.69 26.7331 46.5133L28.8335 45.2963C28.9906 45.1981 29.1672 45.1589 29.3439 45.1589C29.5206 45.1589 29.6972 45.1981 29.8347 45.2963L31.9351 46.5133C32.2491 46.69 32.4454 47.0237 32.4454 47.3771V53.4035C32.4454 53.7568 32.6417 54.0905 32.9558 54.2672L37.9026 57.0939C38.0596 57.1921 38.2559 57.1921 38.413 57.0939C38.57 57.0154 38.6682 56.8387 38.6682 56.6621L38.6485 43.7848Z" fill="#333333"/>
<path d="M78.6546 26.0589C78.4975 25.9804 78.3012 25.9804 78.1638 26.0589C78.0068 26.157 77.9086 26.3141 77.9086 26.4908V39.2503C77.9086 39.3681 77.8497 39.4858 77.732 39.5644C77.6142 39.6232 77.4964 39.6232 77.3786 39.5644L75.2978 38.3669C74.9838 38.1903 74.6108 38.1903 74.2967 38.3669L65.9736 43.1763C65.6595 43.353 65.4632 43.6867 65.4632 44.04V53.6391C65.4632 53.9924 65.6595 54.3262 65.9736 54.5028L74.2967 59.3122C74.6108 59.4889 74.9838 59.4889 75.2978 59.3122L83.621 54.5028C83.9351 54.3262 84.1314 53.9924 84.1314 53.6391V29.7101C84.1314 29.3371 83.9351 29.0034 83.621 28.8267L78.6546 26.0589ZM77.889 50.4787C77.889 50.5768 77.8498 50.6553 77.7712 50.6946L74.9249 52.3435C74.8464 52.3828 74.7482 52.3828 74.6697 52.3435L71.8233 50.6946C71.7448 50.6553 71.7055 50.5572 71.7055 50.4787V47.1808C71.7055 47.0827 71.7448 47.0041 71.8233 46.9649L74.6697 45.316C74.7482 45.2767 74.8464 45.2767 74.9249 45.316L77.7712 46.9649C77.8498 47.0041 77.889 47.1023 77.889 47.1808V50.4787Z" fill="#333333"/>
<path d="M106.353 47.1021C106.667 46.9254 106.843 46.5917 106.843 46.2384V43.9024C106.843 43.5491 106.647 43.2154 106.353 43.0387L98.0883 38.249C97.7742 38.0723 97.4012 38.0723 97.0872 38.249L88.764 43.0583C88.4499 43.235 88.2536 43.5687 88.2536 43.922V53.5211C88.2536 53.8745 88.4499 54.2082 88.764 54.3849L97.0283 59.0961C97.3424 59.2727 97.7153 59.2727 98.0098 59.0961L103.015 56.3086C103.172 56.2301 103.271 56.0534 103.271 55.8767C103.271 55.7001 103.172 55.5234 103.015 55.4449L94.653 50.6355C94.496 50.5374 94.3978 50.3803 94.3978 50.2037V47.2003C94.3978 47.0236 94.496 46.8469 94.653 46.7684L97.2638 45.2765C97.4209 45.1784 97.6172 45.1784 97.7742 45.2765L100.385 46.7684C100.542 46.8665 100.64 47.0236 100.64 47.2003V49.5559C100.64 49.7325 100.738 49.9092 100.895 49.9877C101.052 50.0859 101.249 50.0859 101.406 49.9877L106.353 47.1021Z" fill="#333333"/>
<path d="M97.4601 46.6508C97.519 46.6115 97.5975 46.6115 97.6564 46.6508L99.2465 47.5734C99.3053 47.6127 99.3446 47.6715 99.3446 47.7501V49.5953C99.3446 49.6738 99.3053 49.7327 99.2465 49.772L97.6564 50.6946C97.5975 50.7338 97.519 50.7338 97.4601 50.6946L95.8701 49.772C95.8112 49.7327 95.7719 49.6738 95.7719 49.5953V47.7501C95.7719 47.6715 95.8112 47.6127 95.8701 47.5734L97.4601 46.6508Z" fill="#539E43"/>
<mask id="mask0_5_419" style="mask-type:alpha" maskUnits="userSpaceOnUse" x="42" y="38" width="20" height="22">
<path d="M52.5662 38.2885C52.2522 38.1118 51.8792 38.1118 51.5651 38.2885L43.3009 43.0586C42.9868 43.2353 42.8101 43.569 42.8101 43.9223V53.4822C42.8101 53.8355 43.0064 54.1692 43.3009 54.3459L51.5651 59.116C51.8792 59.2927 52.2522 59.2927 52.5662 59.116L60.8305 54.3459C61.1446 54.1692 61.3212 53.8355 61.3212 53.4822V43.9223C61.3212 43.569 61.1249 43.2353 60.8305 43.0586L52.5662 38.2885Z" fill="white"/>
</mask>
<g mask="url(#mask0_5_419)">
<path d="M52.5662 38.2885C52.2522 38.1118 51.8792 38.1118 51.5651 38.2885L43.3009 43.0586C42.9868 43.2353 42.8101 43.569 42.8101 43.9223V53.4822C42.8101 53.8355 43.0064 54.1692 43.3009 54.3459L51.5651 59.116C51.8792 59.2927 52.2522 59.2927 52.5662 59.116L60.8305 54.3459C61.1446 54.1692 61.3212 53.8355 61.3212 53.4822V43.9223C61.3212 43.569 61.1249 43.2353 60.8305 43.0586L52.5662 38.2885Z" fill="url(#paint0_linear_5_419)"/>
<path d="M60.8501 43.0587L52.5466 38.2886C52.4681 38.2493 52.3699 38.2101 52.2914 38.1904L42.9868 54.13C43.0653 54.2282 43.1635 54.3067 43.2616 54.3656L51.5651 59.1357C51.8007 59.2731 52.0755 59.3124 52.3307 59.2338L61.0661 43.255C61.0072 43.1765 60.9286 43.1176 60.8501 43.0587Z" fill="url(#paint1_linear_5_419)"/>
<path fill-rule="evenodd" clip-rule="evenodd" d="M60.8698 54.3458C61.1053 54.2084 61.282 53.9729 61.3605 53.7177L52.2522 38.1707C52.0166 38.1314 51.7614 38.1511 51.5455 38.2885L43.3009 43.0389L52.1933 59.2534C52.3111 59.2337 52.4485 59.1945 52.5663 59.1356L60.8698 54.3458Z" fill="url(#paint2_linear_5_419)"/>
<path fill-rule="evenodd" clip-rule="evenodd" d="M60.8697 54.3458L52.5859 59.1159C52.4681 59.1748 52.3503 59.214 52.2129 59.2337L52.3699 59.5281L61.5568 54.2084V54.0906L61.3212 53.698C61.282 53.9728 61.1053 54.2084 60.8697 54.3458Z" fill="url(#paint3_linear_5_419)"/>
<path fill-rule="evenodd" clip-rule="evenodd" d="M60.8697 54.3458L52.5859 59.1159C52.4681 59.1748 52.3503 59.214 52.2129 59.2337L52.3699 59.5281L61.5568 54.2084V54.0906L61.3212 53.698C61.282 53.9728 61.1053 54.2084 60.8697 54.3458Z" fill="url(#paint4_linear_5_419)"/>
</g>
<path d="M120.519 59.5961C120.224 59.5961 119.949 59.5175 119.694 59.3801L117.083 57.8294C116.691 57.6134 116.887 57.5349 117.005 57.4956C117.535 57.319 117.633 57.2797 118.183 56.9656C118.242 56.9264 118.32 56.946 118.379 56.9853L120.381 58.1827C120.46 58.222 120.558 58.222 120.617 58.1827L128.449 53.6482C128.528 53.6089 128.567 53.5304 128.567 53.4322V44.3828C128.567 44.2846 128.528 44.2061 128.449 44.1668L120.617 39.6519C120.538 39.6127 120.44 39.6127 120.381 39.6519L112.549 44.1668C112.47 44.2061 112.431 44.3043 112.431 44.3828V53.4322C112.431 53.5107 112.47 53.6089 112.549 53.6482L114.689 54.8849C115.847 55.4738 116.573 54.7867 116.573 54.0997V45.168C116.573 45.0502 116.671 44.9324 116.809 44.9324H117.81C117.928 44.9324 118.045 45.0306 118.045 45.168V54.0997C118.045 55.6504 117.201 56.5534 115.729 56.5534C115.277 56.5534 114.924 56.5534 113.923 56.0627L111.862 54.8849C111.351 54.5904 111.037 54.0408 111.037 53.4519V44.4024C111.037 43.8135 111.351 43.2639 111.862 42.9694L119.694 38.4349C120.185 38.1601 120.852 38.1601 121.343 38.4349L129.176 42.9694C129.686 43.2639 130 43.8135 130 44.4024V53.4519C130 54.0408 129.686 54.5904 129.176 54.8849L121.343 59.4194C121.088 59.5372 120.794 59.5961 120.519 59.5961ZM122.933 53.3733C119.498 53.3733 118.791 51.8029 118.791 50.4681C118.791 50.3503 118.889 50.2325 119.027 50.2325H120.048C120.165 50.2325 120.264 50.3111 120.264 50.4288C120.421 51.4692 120.872 51.9796 122.953 51.9796C124.602 51.9796 125.308 51.6066 125.308 50.7233C125.308 50.2129 125.112 49.8399 122.541 49.5847C120.401 49.3688 119.066 48.8977 119.066 47.1899C119.066 45.5998 120.401 44.6576 122.639 44.6576C125.151 44.6576 126.388 45.5213 126.545 47.4058C126.545 47.4647 126.525 47.5236 126.486 47.5825C126.447 47.6217 126.388 47.661 126.329 47.661H125.308C125.21 47.661 125.112 47.5825 125.092 47.4843C124.857 46.4047 124.248 46.0513 122.639 46.0513C120.833 46.0513 120.617 46.6795 120.617 47.1506C120.617 47.7199 120.872 47.8966 123.306 48.2106C125.721 48.5247 126.859 48.9762 126.859 50.6644C126.84 52.3918 125.426 53.3733 122.933 53.3733Z" fill="#539E43"/>
<defs>
<linearGradient id="paint0_linear_5_419" x1="55.4326" y1="41.8444" x2="46.3738" y2="56.0778" gradientUnits="userSpaceOnUse">
<stop stop-color="#41873F"/>
<stop offset="0.3288" stop-color="#418B3D"/>
<stop offset="0.6352" stop-color="#419637"/>
<stop offset="0.9319" stop-color="#3FA92D"/>
<stop offset="1" stop-color="#3FAE2A"/>
</linearGradient>
<linearGradient id="paint1_linear_5_419" x1="50.8109" y1="49.8219" x2="73.4971" y2="37.4965" gradientUnits="userSpaceOnUse">
<stop offset="0.1376" stop-color="#41873F"/>
<stop offset="0.4032" stop-color="#54A044"/>
<stop offset="0.7136" stop-color="#66B848"/>
<stop offset="0.9081" stop-color="#6CC04A"/>
</linearGradient>
<linearGradient id="paint2_linear_5_419" x1="42.5083" y1="48.7025" x2="61.6313" y2="48.7025" gradientUnits="userSpaceOnUse">
<stop offset="0.0919165" stop-color="#6CC04A"/>
<stop offset="0.2864" stop-color="#66B848"/>
<stop offset="0.5968" stop-color="#54A044"/>
<stop offset="0.8624" stop-color="#41873F"/>
</linearGradient>
<linearGradient id="paint3_linear_5_419" x1="42.5083" y1="56.6291" x2="61.6312" y2="56.6291" gradientUnits="userSpaceOnUse">
<stop offset="0.0919165" stop-color="#6CC04A"/>
<stop offset="0.2864" stop-color="#66B848"/>
<stop offset="0.5968" stop-color="#54A044"/>
<stop offset="0.8624" stop-color="#41873F"/>
</linearGradient>
<linearGradient id="paint4_linear_5_419" x1="64.4172" y1="41.3924" x2="59.5727" y2="66.778" gradientUnits="userSpaceOnUse">
<stop stop-color="#41873F"/>
<stop offset="0.3288" stop-color="#418B3D"/>
<stop offset="0.6352" stop-color="#419637"/>
<stop offset="0.9319" stop-color="#3FA92D"/>
<stop offset="1" stop-color="#3FAE2A"/>
</linearGradient>
</defs>
</svg>
