<svg width="150" height="85" viewBox="0 0 150 85" fill="none" xmlns="http://www.w3.org/2000/svg">
<path d="M48.0585 48.5981C50.5144 48.5981 52.3479 48.1451 53.508 47.2523C54.6557 46.3686 55.4484 44.8376 55.8639 42.7021C56.2512 40.7059 56.1036 39.3122 55.4254 38.56C54.7318 37.7917 53.2324 37.4021 50.9688 37.4021H47.0439L44.868 48.5981H48.0585ZM35.2212 62.3894C35.039 62.3894 34.866 62.308 34.7502 62.1671C34.6341 62.0265 34.5871 61.8412 34.6219 61.6623L40.3884 31.9929C40.4442 31.706 40.6956 31.4988 40.9879 31.4988H53.4162C57.3222 31.4988 60.2295 32.5594 62.0568 34.6514C63.894 36.7544 64.4613 39.694 63.7429 43.3885C63.4506 44.8936 62.9478 46.2915 62.2486 47.543C61.5485 48.7959 60.6233 49.9552 59.4983 50.9893C58.1515 52.2498 56.6272 53.1638 54.9718 53.7016C53.3427 54.2323 51.2505 54.5014 48.7534 54.5014H43.721L42.2838 61.8952C42.228 62.1822 41.9768 62.3894 41.6845 62.3894H35.2212Z" fill="black"/>
<path d="M47.5473 38.0127H50.9688C53.7008 38.0127 54.6498 38.6122 54.9723 38.9695C55.5072 39.5626 55.6082 40.8133 55.2644 42.5862C54.878 44.5709 54.1619 45.9781 53.1355 46.7683C52.0848 47.5773 50.3765 47.9873 48.0585 47.9873H45.6088L47.5473 38.0127ZM53.4163 30.888H40.9878C40.4031 30.888 39.9005 31.3025 39.789 31.8763L34.0225 61.5458C33.9528 61.9038 34.0469 62.2741 34.2788 62.5556C34.5108 62.8372 34.8565 63 35.2212 63H41.6843C42.2692 63 42.7718 62.5855 42.8833 62.0117L44.2244 55.112H48.7535C51.3147 55.112 53.4708 54.8327 55.1614 54.282C56.9 53.7171 58.4996 52.7594 59.9154 51.4354C61.0863 50.3582 62.0508 49.149 62.7815 47.8411C63.5125 46.5328 64.0377 45.0739 64.3425 43.5048C65.0987 39.616 64.4843 36.5019 62.5167 34.2497C60.5682 32.019 57.5062 30.888 53.4163 30.888ZM44.1271 49.2087H48.0585C50.6643 49.2087 52.6053 48.7179 53.8806 47.7361C55.1561 46.7541 56.0164 45.1152 56.4634 42.8186C56.8911 40.6136 56.6963 39.0576 55.879 38.1511C55.0606 37.2447 53.4242 36.7913 50.9688 36.7913H46.5405L44.1271 49.2087M53.4163 32.1094C57.1551 32.1094 59.8826 33.0906 61.597 35.0531C63.3112 37.0157 63.8274 39.755 63.1435 43.272C62.862 44.7207 62.3858 46.0453 61.7155 47.2453C61.0443 48.4461 60.168 49.5441 59.0851 50.5397C57.7945 51.7475 56.3608 52.6081 54.7832 53.1207C53.2056 53.6347 51.1962 53.8906 48.7535 53.8906H43.2174L41.6843 61.7786H35.2212L40.9878 32.1094H53.4163" fill="white"/>
<path d="M78.562 54.5015C78.3796 54.5015 78.2068 54.42 78.0909 54.2792C77.9747 54.1385 77.9277 53.9535 77.9625 53.7743L80.5133 40.6468C80.756 39.3984 80.6961 38.5023 80.345 38.1237C80.13 37.8922 79.4843 37.504 77.5751 37.504H72.9538L69.7467 54.0072C69.6909 54.2942 69.4395 54.5015 69.1472 54.5015H62.735C62.5526 54.5015 62.3798 54.42 62.2638 54.2792C62.1477 54.1385 62.1007 53.9533 62.1355 53.7743L67.902 24.1049C67.9578 23.8181 68.2092 23.6109 68.5015 23.6109H74.9137C75.0961 23.6109 75.269 23.6923 75.385 23.833C75.501 23.9738 75.548 24.1589 75.5132 24.338L74.1217 31.4989H79.0931C82.8804 31.4989 85.4485 32.1666 86.9443 33.5402C88.469 34.9416 88.9447 37.1822 88.3584 40.2006L85.6755 54.0072C85.6197 54.2942 85.3685 54.5015 85.076 54.5015H78.562Z" fill="black"/>
<path d="M74.9138 22.9999H68.5015C67.9167 22.9999 67.4141 23.4143 67.3026 23.9882L61.5361 53.6576C61.4664 54.0156 61.5605 54.3859 61.7925 54.6674C62.0246 54.949 62.3703 55.1118 62.735 55.1118H69.1472C69.7319 55.1118 70.2347 54.6974 70.3462 54.1235L73.4573 38.1144H77.5751C79.4811 38.1144 79.8811 38.5215 79.8972 38.539C80.0128 38.6634 80.1649 39.2394 79.9139 40.53L77.363 53.6576C77.2934 54.0156 77.3874 54.3859 77.6195 54.6674C77.8516 54.949 78.1972 55.1118 78.562 55.1118H85.076C85.6606 55.1118 86.1634 54.6974 86.275 54.1235L88.9577 40.3169C89.5873 37.076 89.0487 34.6448 87.3575 33.0904C85.7437 31.6083 83.0404 30.8879 79.0931 30.8879H74.8623L76.1127 24.4543C76.1822 24.0962 76.0883 23.7258 75.8563 23.4444C75.6242 23.1629 75.2785 22.9999 74.9138 22.9999ZM74.9138 24.2212L73.3807 32.1093H79.0931C82.6874 32.1093 85.1666 32.7366 86.5311 33.9898C87.8955 35.2437 88.3043 37.2755 87.759 40.084L85.076 53.8904H78.562L81.1128 40.7631C81.4031 39.2698 81.2965 38.2512 80.7924 37.708C80.2882 37.1649 79.2156 36.893 77.5751 36.893H72.4502L69.1472 53.8904H62.735L68.5015 24.2212H74.9138Z" fill="white"/>
<path d="M98.5043 48.5981C100.96 48.5981 102.794 48.1451 103.954 47.2523C105.102 46.3688 105.894 44.8379 106.31 42.7021C106.697 40.7059 106.55 39.3122 105.871 38.56C105.178 37.7917 103.678 37.4021 101.415 37.4021H97.4898L95.3139 48.5981H98.5043ZM85.6673 62.3894C85.4851 62.3894 85.3121 62.308 85.1962 62.1671C85.0802 62.0265 85.033 61.8412 85.0678 61.6623L90.8343 31.9929C90.8903 31.706 91.1415 31.4988 91.434 31.4988H103.862C107.768 31.4988 110.675 32.5594 112.503 34.6514C114.34 36.7542 114.907 39.6938 114.189 43.3885C113.896 44.8936 113.394 46.2915 112.694 47.543C111.994 48.7959 111.069 49.9552 109.944 50.9893C108.597 52.2498 107.073 53.1638 105.418 53.7016C103.789 54.2323 101.696 54.5014 99.1993 54.5014H94.1666L92.7301 61.8952C92.6741 62.1822 92.4229 62.3894 92.1304 62.3894H85.6673Z" fill="black"/>
<path d="M97.9933 38.0127H101.415C104.147 38.0127 105.096 38.6122 105.418 38.9695C105.953 39.5626 106.054 40.8133 105.71 42.586C105.324 44.5709 104.608 45.9781 103.581 46.7683C102.531 47.5773 100.822 47.9873 98.5044 47.9873H96.0549L97.9933 38.0127ZM103.862 30.888H91.4339C90.8492 30.888 90.3466 31.3025 90.2351 31.8763L84.4686 61.5458C84.399 61.9038 84.493 62.2741 84.7249 62.5556C84.9569 62.8372 85.3026 63 85.6674 63H92.1305C92.7151 63 93.2179 62.5855 93.3294 62.0117L94.6703 55.112H99.1994C101.761 55.112 103.917 54.8327 105.607 54.282C107.346 53.7171 108.946 52.7592 110.362 51.435C111.533 50.358 112.497 49.149 113.227 47.8411C113.958 46.5328 114.484 45.0739 114.788 43.5048C115.545 39.6158 114.93 36.5017 112.963 34.2495C111.014 32.019 107.952 30.888 103.862 30.888ZM94.5732 49.2087H98.5044C101.11 49.2087 103.051 48.7179 104.326 47.7361C105.602 46.7541 106.462 45.1152 106.909 42.8186C107.337 40.6136 107.142 39.0576 106.325 38.1511C105.507 37.2447 103.87 36.7913 101.415 36.7913H96.9864L94.5732 49.2087ZM103.862 32.1094C107.601 32.1094 110.329 33.0906 112.043 35.0531C113.757 37.0157 114.273 39.755 113.589 43.272C113.308 44.7207 112.832 46.0453 112.161 47.2453C111.49 48.4461 110.614 49.5441 109.531 50.5397C108.24 51.7475 106.807 52.6081 105.229 53.1207C103.651 53.6347 101.642 53.8906 99.1994 53.8906H93.6633L92.1305 61.7786H85.6674L91.4339 32.1094H103.862" fill="white"/>
</svg>
