<svg width="150" height="85" viewBox="0 0 150 85" fill="none" xmlns="http://www.w3.org/2000/svg">
<path d="M102.016 36.5652C103.146 35.94 104.484 35.8979 105.746 35.876C107.11 35.8924 108.605 36.004 109.721 36.8815C110.419 37.4209 110.715 38.3131 110.717 39.1705C110.284 39.1723 109.852 39.1705 109.421 39.1705C109.264 38.3295 108.894 37.4245 108.018 37.1137C106.554 36.5579 104.872 36.5927 103.38 37.0278C102.184 37.3587 101.748 39.0882 102.669 39.9238C103.329 40.4503 104.208 40.5216 105.004 40.6989C106.634 41.0463 108.364 41.103 109.883 41.8471C111.503 42.6588 111.441 45.2495 110.013 46.2221C108.828 47.0357 107.322 47.1253 105.929 47.1363C104.411 47.1125 102.757 46.9699 101.523 45.9899C100.733 45.3647 100.488 44.3244 100.442 43.3646C100.885 43.3426 101.327 43.3353 101.771 43.3335C101.868 44.3536 102.347 45.414 103.364 45.8016C104.954 46.4196 106.794 46.4123 108.417 45.9205C109.552 45.6005 109.993 44.1544 109.477 43.1634C109.232 42.7155 108.752 42.4724 108.28 42.3426C106.296 41.8069 104.196 41.7776 102.258 41.0628C100.429 40.3918 100.369 37.4775 102.016 36.5652V36.5652Z" fill="#326690"/>
<path d="M114.352 36.6802C115.865 35.9087 117.619 35.788 119.286 35.9252C120.869 36.0568 122.482 36.6418 123.553 37.8558C124.882 39.2873 125.12 41.452 124.621 43.2784C124.35 44.3023 123.632 45.1104 122.86 45.7978C123.469 46.2402 124.102 46.6479 124.711 47.094C124.438 47.3573 124.158 47.6114 123.871 47.8582C123.228 47.4451 122.637 46.9514 121.972 46.5766C121.458 46.5766 120.988 46.8874 120.476 46.9587C119.05 47.211 117.567 47.2293 116.143 46.9496C114.591 46.6388 113.099 45.7685 112.262 44.3973C111.434 43.0572 111.326 41.3661 111.706 39.8651C112.057 38.4756 113.083 37.3165 114.352 36.6802V36.6802ZM116.419 36.927C114.94 37.2708 113.562 38.3019 113.083 39.7828C112.576 41.377 112.752 43.2985 113.907 44.5783C114.924 45.7301 116.489 46.2494 117.993 46.2731C119.657 46.328 121.478 45.8508 122.573 44.5217C124.069 42.5983 123.897 39.3934 121.895 37.8759C120.383 36.6455 118.255 36.534 116.419 36.927V36.927Z" fill="#326690"/>
<path d="M125.736 36.1501C126.157 36.141 126.577 36.13 127 36.1172C127.034 39.3971 127.007 42.677 127.012 45.9569C129.674 46.0026 132.338 45.9368 135 45.9898C135 46.2805 134.996 46.573 134.995 46.8656C131.908 46.8656 128.82 46.8784 125.733 46.8582C125.738 43.2895 125.733 39.7189 125.736 36.1501V36.1501Z" fill="#326690"/>
<path d="M43.5904 36.1501C45.6015 36.1574 47.6126 36.1336 49.6255 36.1208C50.5579 36.1099 51.5616 36.2817 52.282 36.9198C53.2582 37.7645 53.4283 39.2527 53.0096 40.4191C52.5141 41.6806 51.0936 42.2711 49.8174 42.3022C48.0971 42.3242 46.3748 42.2931 44.6544 42.315C44.6361 43.8343 44.68 45.3518 44.6636 46.871C44.3052 46.871 43.9469 46.871 43.5904 46.871C43.5794 43.2968 43.5776 39.7244 43.5904 36.1501V36.1501ZM44.6691 37.0076C44.6672 38.4958 44.6617 39.984 44.6727 41.4722C46.2615 41.4685 47.8502 41.4959 49.439 41.4594C50.3257 41.432 51.3642 41.1266 51.7353 40.2344C52.0278 39.4355 51.9821 38.4427 51.4409 37.7571C50.9144 37.1264 50.0332 37.0094 49.2598 37.0057C47.7296 37.0057 46.1993 37.0057 44.6691 37.0076V37.0076Z" fill="black"/>
<path d="M72.2503 37.5269H73.3545C73.3545 38.2929 73.3527 39.0571 73.36 39.8232C73.9871 39.8305 74.6142 39.8305 75.2413 39.8232C75.2504 40.0718 75.2596 40.3186 75.2706 40.5673C74.6362 40.5801 74.0017 40.5801 73.3673 40.5673C73.3417 42.0719 73.3619 43.5748 73.3527 45.0776C73.3637 45.4195 73.3308 45.8729 73.68 46.0685C74.1681 46.3135 74.733 46.2239 75.2559 46.1947C75.2559 46.4323 75.2578 46.6718 75.2596 46.9113C74.4533 47.0028 73.5849 47.0631 72.8371 46.692C72.3856 46.4561 72.2356 45.9168 72.2448 45.4414C72.2356 43.8143 72.2484 42.1889 72.2411 40.5618C71.7676 40.5636 71.2959 40.5618 70.8224 40.5563C70.826 40.3131 70.8279 40.07 70.8315 39.8286C71.2996 39.8341 71.7658 39.8286 72.2338 39.8104C72.2393 39.0498 72.2411 38.2892 72.2503 37.5287V37.5269Z" fill="black"/>
<path d="M56.0976 39.7026C57.4962 39.496 59.0246 39.5435 60.2825 40.2547C62.1729 41.3187 62.438 44.1745 61.1216 45.7834C59.9918 47.0376 58.1416 47.2076 56.5565 47.0741C55.2694 46.9955 53.9512 46.3574 53.3424 45.1764C52.7902 44.0849 52.7829 42.7265 53.2985 41.6204C53.8177 40.5436 54.9494 39.8945 56.0976 39.7026V39.7026ZM56.6369 40.4156C55.6039 40.5362 54.5874 41.1871 54.2492 42.2054C53.8707 43.3371 54.0316 44.7486 54.9512 45.5841C55.6789 46.2514 56.7192 46.4068 57.6699 46.3611C58.5328 46.3264 59.4488 46.0978 60.0649 45.4524C60.7395 44.7906 60.851 43.7723 60.7633 42.8764C60.6956 42.1012 60.3227 41.3151 59.6389 40.9019C58.7485 40.3589 57.6498 40.2986 56.6369 40.4156V40.4156Z" fill="black"/>
<path d="M63.4216 40.218C64.1492 39.7536 65.0451 39.6805 65.8861 39.622C67.0726 39.5946 68.3707 39.5873 69.3982 40.2692C69.9704 40.6275 70.177 41.3058 70.2575 41.9384C69.8717 41.953 69.4841 41.9567 69.0984 41.9567C69.0179 41.432 68.804 40.8762 68.2775 40.6568C67.3304 40.2217 66.2353 40.2692 65.2261 40.4136C64.599 40.5032 63.8329 40.8597 63.8147 41.5892C63.7598 42.1066 64.2333 42.4704 64.6849 42.582C66.0159 42.9165 67.4072 42.8836 68.7473 43.1707C69.3452 43.3114 69.9906 43.5509 70.3306 44.0976C70.795 44.8911 70.5061 46.0301 69.7017 46.489C68.7254 47.0667 67.5443 47.096 66.4401 47.1014C65.365 47.0594 64.1949 47.0411 63.2772 46.4012C62.7141 46.0118 62.5203 45.3152 62.4142 44.6753C62.8146 44.6698 63.215 44.6753 63.6154 44.6826C63.6355 45.5547 64.3686 46.1727 65.1914 46.2769C66.387 46.4487 67.7089 46.5475 68.8223 45.9917C69.5938 45.6041 69.5189 44.3554 68.7034 44.0665C67.0489 43.5839 65.2462 43.7429 63.6154 43.1506C62.4398 42.6825 62.4215 40.878 63.4216 40.218V40.218Z" fill="black"/>
<path d="M78.5724 39.7939C79.7114 39.5397 80.9309 39.5215 82.0553 39.8615C82.697 40.0352 83.1449 40.5471 83.6294 40.964C83.6513 40.5892 83.6605 40.2144 83.6806 39.8414C84.0335 39.8414 84.3863 39.8396 84.741 39.8323C84.8361 41.9988 84.7538 44.1726 84.783 46.3427C84.8105 47.2404 84.635 48.2277 83.9347 48.8548C83.0151 49.6884 81.7042 49.8237 80.5177 49.8475C79.4628 49.8256 78.3512 49.8018 77.3969 49.3009C76.7295 48.9553 76.4096 48.224 76.278 47.522C76.6381 47.5146 76.9983 47.511 77.3603 47.5C77.5888 47.9662 77.7643 48.5312 78.2671 48.7761C79.0203 49.1381 79.8833 49.1491 80.7024 49.1436C81.6147 49.1125 82.6604 48.937 83.2345 48.1454C83.7885 47.3885 83.6623 46.3994 83.6623 45.52C82.5196 46.6773 80.7919 46.893 79.2471 46.7065C78.2781 46.595 77.2652 46.2495 76.6326 45.4688C75.8648 44.5199 75.7697 43.1798 76.0549 42.0317C76.3529 40.8598 77.4316 40.0517 78.5724 39.7939V39.7939ZM79.4975 40.4466C78.7022 40.5709 77.9051 40.9585 77.4627 41.655C76.9489 42.4833 76.9416 43.5656 77.2872 44.4596C77.6546 45.3865 78.6547 45.8601 79.5963 45.957C80.7919 46.1288 82.1869 45.9734 83.0407 45.03C83.9969 43.8673 83.8927 41.8488 82.6129 40.953C81.7097 40.3405 80.5451 40.304 79.4975 40.4466V40.4466Z" fill="black"/>
<path d="M88.1434 39.9017C88.9442 39.5507 89.84 39.6165 90.6938 39.6183C90.6938 39.9163 90.6957 40.2143 90.6993 40.5124C89.8218 40.4996 88.8436 40.3826 88.0886 40.931C87.3518 41.4356 87.0976 42.3754 87.0848 43.2255C87.072 44.4395 87.0922 45.6553 87.0794 46.8711C86.7174 46.8711 86.3554 46.8674 85.9952 46.8674C85.9605 44.5254 85.955 42.1834 85.9861 39.8414C86.348 39.8414 86.7119 39.8414 87.0739 39.8377C87.0812 40.2418 87.083 40.6476 87.094 41.0517C87.3627 40.6074 87.6461 40.1211 88.1434 39.9017V39.9017Z" fill="black"/>
<path d="M96.3468 46.2348C95.0579 46.5237 93.524 46.4396 92.5075 45.5053C91.9572 45.019 91.7433 44.2859 91.6829 43.5783C94.2992 43.5381 96.9173 43.5802 99.5353 43.5564C99.4951 42.5563 99.2519 41.4996 98.5097 40.7793C97.5078 39.7408 95.9611 39.5543 94.5899 39.622C93.2497 39.664 91.8091 40.1704 91.0723 41.3588C90.1618 42.8964 90.447 45.1689 91.959 46.2311C93.343 47.2166 95.1932 47.2806 96.7984 46.9076C97.9831 46.6407 99.0307 45.7796 99.3726 44.5912C98.9722 44.5875 98.5737 44.5857 98.1751 44.5875C97.8606 45.3847 97.2025 46.0502 96.3468 46.2348V46.2348ZM93.0523 40.7829C94.546 39.9858 96.6741 40.1284 97.7985 41.4905C98.1495 41.878 98.2976 42.3918 98.3726 42.8982C96.1457 42.9128 93.9189 42.9147 91.6939 42.8982C91.884 42.0682 92.257 41.1943 93.0523 40.7829Z" fill="black"/>
<path d="M29.8784 31.1607C31.5677 30.6397 33.4088 30.5007 35.1255 30.9651C36.5004 31.3344 37.7472 32.1608 38.6084 33.2961C38.9557 33.7678 39.0343 34.373 39.0599 34.9416C39.0928 35.9581 38.9173 36.9673 38.687 37.9546C38.0599 40.5525 36.9355 43.0134 35.5076 45.2658C36.3084 45.6095 37.2061 45.4377 38.0306 45.2896C38.3743 45.2219 38.8186 45.1396 39.0782 45.4395C39.3305 45.7686 39.0874 46.1872 38.8314 46.4286C37.6302 47.6023 35.8129 47.9095 34.2059 47.6389C34.0432 49.0741 33.8731 50.5111 33.6483 51.939C33.5239 52.7361 33.2588 53.568 32.6336 54.1183C32.0467 54.632 31.2733 54.8587 30.5219 54.9995C29.7559 55.1329 28.8966 55.0233 28.2914 54.4967C27.6516 53.93 27.2877 53.0926 27.2073 52.2498C27.0446 50.8128 27.0373 49.3629 27.0427 47.9168C26.3517 48.5128 25.4339 48.8181 24.5252 48.7486C23.8835 48.6956 23.1723 48.5951 22.6915 48.127C22.4245 47.882 22.4392 47.4195 22.7353 47.2074C23.2491 46.8198 23.9347 46.8491 24.5179 46.6242C24.9512 46.498 25.1743 46.0757 25.4467 45.7521C24.9439 45.7156 24.4521 45.5876 23.9987 45.3645C23.3058 46.1031 22.6366 46.8674 21.9876 47.6444C21.611 48.0941 21.057 48.4744 20.4445 48.3994C19.7553 48.3153 19.2415 47.7742 18.8558 47.2385C18.097 46.147 17.6272 44.8873 17.1994 43.6368C16.5522 41.6312 16.0421 39.5744 15.7477 37.4865C15.6015 35.9124 15.7258 34.1993 16.6417 32.8574C17.3676 31.7805 18.6364 31.1955 19.8979 31.0638C21.5963 30.8865 23.3131 31.232 24.9073 31.8079C26.2365 30.9212 27.9276 30.7987 29.4597 31.1095C29.5968 31.126 29.7339 31.19 29.8729 31.1607H29.8784ZM31.1271 31.5959C31.458 31.8244 31.8291 31.9834 32.1601 32.212C33.5203 33.1225 34.5789 34.448 35.2462 35.938C35.4308 36.3676 35.621 36.821 35.5826 37.3C35.5899 38.2782 35.2553 39.2325 35.3559 40.2125C35.4509 41.2509 35.6758 42.315 35.4107 43.3461C35.3358 43.7118 35.1456 44.0372 35.014 44.3809C35.0231 44.4303 35.0432 44.5308 35.0524 44.5802C35.1767 44.4193 35.2919 44.2475 35.3961 44.0719C36.4528 42.2821 37.292 40.3606 37.846 38.355C38.1348 37.2708 38.3615 36.1574 38.3487 35.0312C38.3286 34.5576 38.2902 34.0421 37.9831 33.6563C37.3395 32.85 36.4839 32.2138 35.5186 31.8482C34.1254 31.3234 32.5751 31.2832 31.1307 31.594L31.1271 31.5959ZM27.1104 31.7311C26.0317 31.8719 25.0225 32.4551 24.3716 33.3272C23.4868 34.501 23.0992 35.98 22.9876 37.4262C23.878 37.0112 24.8799 36.6218 25.8745 36.8722C26.5199 37.0276 27.0062 37.5926 27.147 38.2306C27.4376 39.5086 27.5949 40.856 27.3097 42.1523C27.0903 43.198 26.4522 44.103 26.242 45.1506C26.5107 45.1726 26.7923 45.1908 27.0336 45.3261C27.5309 45.5967 27.8161 46.1763 27.785 46.7339C27.7485 48.1599 27.7503 49.5878 27.8252 51.012C27.8691 51.6026 27.8856 52.2004 28.0428 52.7745C28.2567 53.4583 28.7302 54.1603 29.4835 54.2919C30.2769 54.4144 31.096 54.1877 31.8017 53.8294C32.491 53.4656 32.8 52.6922 32.9188 51.9627C33.1693 50.4416 33.3411 48.9095 33.5166 47.3774C33.5916 46.8308 33.4855 46.2311 33.789 45.7393C33.9627 45.423 34.3046 45.2749 34.6118 45.1195C34.3558 44.7904 34.0834 44.4705 33.8823 44.103C33.1236 42.5362 32.0961 41.0553 31.7798 39.313C31.6445 38.5798 31.7213 37.7077 32.3283 37.1958C32.9956 36.6218 33.9335 36.6547 34.7599 36.6839C34.2626 35.278 33.3393 34.0274 32.171 33.1042C30.7578 31.9908 28.8893 31.5026 27.1104 31.7293V31.7311ZM19.5304 31.8518C18.5413 32.0365 17.5998 32.6032 17.0951 33.4918C16.4205 34.6655 16.3474 36.0788 16.4662 37.3951C16.7039 39.1265 17.1153 40.8304 17.6034 42.5069C18.0385 43.9239 18.5157 45.3499 19.3055 46.6132C19.598 47.0429 19.9308 47.5219 20.4555 47.6736C20.9034 47.7669 21.2599 47.3976 21.5232 47.0868C22.1192 46.35 22.7719 45.6644 23.388 44.9459C22.4849 44.125 21.9967 42.8726 22.1594 41.6568C22.2893 40.7244 22.3148 39.781 22.2582 38.8413C22.1594 37.5085 22.3496 36.1574 22.7628 34.8886C23.0681 33.9379 23.5891 33.0713 24.2601 32.3345C22.7408 31.8701 21.1155 31.5483 19.5322 31.8518H19.5304ZM32.8365 37.7114C32.3776 38.0716 32.4014 38.7243 32.4946 39.2417C32.8255 40.867 33.7726 42.2601 34.5057 43.7191C35.0524 42.6185 34.716 41.3716 34.6319 40.2125C34.5386 39.2746 34.8257 38.3623 34.8549 37.4317C34.1821 37.3896 33.4197 37.2982 32.8365 37.7114V37.7114ZM22.9602 38.3111C22.9749 39.0917 23.0315 39.8742 22.9767 40.6567C22.9529 41.3478 22.75 42.0407 22.9054 42.73C23.1321 43.9494 24.2217 45.03 25.5015 45.0172C25.6898 44.4029 25.9074 43.7959 26.1761 43.2127C26.9458 41.697 26.8215 39.9163 26.4193 38.3166C26.3096 37.865 25.8873 37.5414 25.4284 37.5213C24.5435 37.4701 23.6897 37.8412 22.9584 38.3129L22.9602 38.3111ZM34.4984 46.0026C34.2589 46.2238 34.2754 46.5767 34.2735 46.8765C34.8001 47.0575 35.3687 47.0374 35.9135 46.9734C36.738 46.8838 37.5772 46.6077 38.1824 46.019C37.1914 46.1397 36.1073 46.3792 35.1767 45.8874C34.9573 45.7357 34.6867 45.8636 34.4984 46.0044V46.0026ZM25.1121 47.1434C24.56 47.4707 23.889 47.4487 23.3149 47.7157C24.4777 48.308 26.0866 48.0996 26.891 47.0118C27.3024 46.6297 26.9038 45.8198 26.3608 45.8965C25.8599 46.222 25.6478 46.8564 25.1121 47.1453V47.1434Z" fill="white"/>
<path d="M33.0523 37.9291C33.3832 37.6932 33.8403 37.6768 34.2059 37.845C34.1931 38.3075 33.6392 38.6384 33.2351 38.4008C33.0687 38.3258 32.8585 38.0881 33.0523 37.9272V37.9291Z" fill="white"/>
<path d="M25.0134 37.9565C25.3589 37.8632 25.7703 37.9089 26.0555 38.1393C26.2548 38.3002 26.0719 38.5689 25.9001 38.6658C25.5088 38.9547 24.8872 38.6713 24.8068 38.2088C24.7848 38.0735 24.9019 37.9967 25.0134 37.9583V37.9565Z" fill="white"/>
<path d="M31.1253 31.596C32.5714 31.2852 34.1218 31.3254 35.5131 31.8501C36.4784 32.2158 37.3341 32.852 37.9776 33.6583C38.2848 34.0422 38.3232 34.5596 38.3433 35.0331C38.3561 36.1593 38.1294 37.2727 37.8405 38.3569C37.2865 40.3625 36.4474 42.284 35.3906 44.0739C35.2864 44.2494 35.173 44.4213 35.0469 44.5821C35.0378 44.5328 35.0176 44.4341 35.0085 44.3829C35.1401 44.0373 35.3321 43.7137 35.4052 43.3481C35.6703 42.3151 35.4455 41.2529 35.3504 40.2144C35.2498 39.2326 35.5862 38.2801 35.5771 37.302C35.6155 36.823 35.4253 36.3696 35.2407 35.9399C34.5752 34.4499 33.5148 33.1244 32.1546 32.2139C31.8237 31.9854 31.4525 31.8282 31.1216 31.5978L31.1253 31.596Z" fill="#326690"/>
<path d="M27.1086 31.7312C28.8875 31.5045 30.756 31.9944 32.1692 33.106C33.3375 34.0293 34.2608 35.2798 34.758 36.6858C33.9317 36.6565 32.9938 36.6236 32.3264 37.1977C31.7195 37.7078 31.6427 38.5799 31.778 39.3148C32.0943 41.0572 33.1217 42.538 33.8805 44.1049C34.0816 44.4724 34.354 44.7923 34.61 45.1214C34.3028 45.2768 33.9609 45.4249 33.7872 45.7412C33.4819 46.233 33.5898 46.8326 33.5148 47.3793C33.3393 48.9096 33.1675 50.4435 32.917 51.9646C32.7981 52.6941 32.4892 53.4674 31.7999 53.8312C31.0942 54.1896 30.2751 54.4145 29.4817 54.2938C28.7284 54.1622 28.2531 53.4601 28.041 52.7763C27.8856 52.2023 27.8691 51.6044 27.8234 51.0139C27.7485 49.5897 27.7466 48.1618 27.7832 46.7357C27.8143 46.1781 27.5291 45.5986 27.0318 45.328C26.7905 45.1927 26.5107 45.1744 26.2402 45.1525C26.4522 44.1049 27.0903 43.1999 27.3079 42.1541C27.5912 40.8597 27.434 39.5123 27.1451 38.2325C27.0044 37.5944 26.518 37.0295 25.8727 36.8741C24.8781 36.6236 23.8744 37.013 22.9858 37.428C23.0992 35.9819 23.485 34.5028 24.3698 33.3291C25.0207 32.4552 26.0299 31.8738 27.1086 31.733V31.7312Z" fill="#326690"/>
<path d="M19.5286 31.8518C21.1119 31.5465 22.7372 31.8701 24.2565 32.3345C23.5855 33.0712 23.0644 33.9397 22.7591 34.8885C22.3441 36.1574 22.154 37.5085 22.2545 38.8413C22.3112 39.781 22.2874 40.7244 22.1558 41.6568C21.9913 42.8744 22.4794 44.1249 23.3844 44.9458C22.7683 45.6662 22.1174 46.3518 21.5196 47.0867C21.2563 47.3975 20.8998 47.7668 20.4519 47.6736C19.9271 47.5219 19.5926 47.0429 19.3019 46.6132C18.5121 45.3499 18.0367 43.9238 17.5998 42.5069C17.1116 40.8304 16.7003 39.1283 16.4626 37.3951C16.3437 36.0769 16.4187 34.6637 17.0915 33.4918C17.5961 32.6032 18.5377 32.0365 19.5268 31.8518H19.5286Z" fill="#326690"/>
<path d="M32.8365 37.7115C33.4197 37.2983 34.1821 37.3897 34.8549 37.4317C34.8257 38.3623 34.5386 39.2765 34.6319 40.2125C34.716 41.3717 35.0524 42.6185 34.5057 43.7192C33.7726 42.2602 32.8237 40.8671 32.4946 39.2417C32.4014 38.7243 32.3776 38.0698 32.8365 37.7115ZM33.0523 37.929C32.8585 38.0881 33.0669 38.3258 33.2351 38.4026C33.6391 38.6402 34.1931 38.3075 34.2059 37.8468C33.8402 37.6767 33.3832 37.695 33.0523 37.9309V37.929Z" fill="#326690"/>
<path d="M22.9602 38.311C23.6915 37.8393 24.5453 37.4682 25.4302 37.5194C25.8891 37.5395 26.3114 37.8631 26.4211 38.3147C26.8234 39.9162 26.9477 41.6951 26.178 43.2108C25.9092 43.7958 25.6917 44.401 25.5033 45.0153C24.2236 45.0281 23.1339 43.9457 22.9072 42.7281C22.7518 42.0388 22.9547 41.3459 22.9785 40.6549C23.0315 39.8742 22.9785 39.0917 22.9621 38.3092L22.9602 38.311ZM25.0134 37.9563C24.9019 37.9947 24.7848 38.0715 24.8068 38.2068C24.8872 38.6712 25.5088 38.9527 25.9001 38.6639C26.0719 38.567 26.2548 38.2982 26.0555 38.1373C25.7721 37.907 25.3589 37.8631 25.0134 37.9545V37.9563Z" fill="#326690"/>
<path d="M34.4984 46.0027C34.6886 45.8638 34.9573 45.734 35.1767 45.8857C36.1091 46.3775 37.1915 46.1362 38.1824 46.0174C37.5772 46.6061 36.7381 46.8821 35.9135 46.9717C35.3669 47.0375 34.8001 47.0558 34.2736 46.8748C34.2754 46.5768 34.2608 46.224 34.4984 46.0009V46.0027Z" fill="#326690"/>
<path d="M25.1121 47.1454C25.6478 46.8584 25.8599 46.224 26.3608 45.8967C26.9056 45.8199 27.3042 46.6298 26.891 47.0119C26.0866 48.1016 24.4777 48.3082 23.3149 47.7158C23.889 47.4507 24.56 47.4708 25.1121 47.1436V47.1454Z" fill="#326690"/>
<path d="M29.8839 30.4313C31.4324 30.0236 33.0724 29.8518 34.6593 30.1516C36.1 30.4112 37.4694 31.0877 38.5133 32.1206C38.974 32.5832 39.442 33.0878 39.6157 33.735C39.9265 34.8484 39.8022 36.0276 39.6157 37.1502C39.1239 39.8451 38.0599 42.4083 36.696 44.7759C37.3103 44.7759 37.899 44.5803 38.5078 44.54C39.1038 44.5017 39.7419 44.8673 39.8845 45.4725C40.0637 46.116 39.6596 46.7395 39.1861 47.138C37.9794 48.2112 36.3066 48.5659 34.7306 48.4763C34.6355 50.1035 34.6045 51.7946 33.917 53.3048C33.6099 53.9776 33.1272 54.5791 32.4928 54.9685C31.8858 55.3469 31.1801 55.5261 30.4854 55.6577C29.7248 55.7948 28.8911 55.7199 28.2348 55.2829C27.6278 54.8972 27.2475 54.2481 27.03 53.579C26.4924 52.1785 26.5455 50.6519 26.4815 49.1784C25.4138 49.608 24.1998 49.6062 23.1175 49.235C22.7372 49.1034 22.4008 48.8712 22.1137 48.5951C21.5561 49.0577 20.7883 49.2954 20.0771 49.0943C19.1702 48.8474 18.5285 48.0869 18.0477 47.3227C17.2122 45.9478 16.6875 44.4139 16.2249 42.8818C15.7093 41.1102 15.276 39.313 15.042 37.4829C14.9104 35.8576 15.0566 34.1171 15.9342 32.6984C16.6399 31.5374 17.8758 30.7604 19.1977 30.5026C21.0716 30.1223 23.0041 30.4898 24.8013 31.0511C25.3827 30.7897 25.9641 30.5045 26.6003 30.4002C27.6826 30.1808 28.7979 30.2814 29.8821 30.4295L29.8839 30.4313ZM29.8784 31.1608C29.7394 31.1882 29.6023 31.1261 29.4652 31.1096C27.9331 30.7988 26.242 30.9213 24.9128 31.808C23.3167 31.2339 21.6018 30.8866 19.9034 31.0639C18.64 31.1955 17.3712 31.7824 16.6472 32.8574C15.7313 34.1994 15.607 35.9143 15.7532 37.4866C16.0476 39.5763 16.5576 41.6313 17.2049 43.6369C17.6327 44.8874 18.1007 46.1471 18.8613 47.2386C19.247 47.7742 19.7589 48.3154 20.45 48.3995C21.0643 48.4745 21.6183 48.0942 21.9931 47.6444C22.6421 46.8656 23.3113 46.1032 24.0042 45.3646C24.4576 45.5876 24.9494 45.7156 25.4522 45.7522C25.1797 46.0758 24.9549 46.4963 24.5234 46.6243C23.9402 46.8491 23.2564 46.8199 22.7408 47.2075C22.4447 47.4196 22.43 47.8821 22.697 48.1271C23.1796 48.5951 23.889 48.6957 24.5307 48.7487C25.4394 48.8182 26.359 48.511 27.0482 47.9169C27.0446 49.363 27.0501 50.811 27.2128 52.2498C27.2932 53.0927 27.6571 53.93 28.2969 54.4968C28.9003 55.0233 29.7614 55.133 30.5274 54.9996C31.2788 54.8569 32.0522 54.6302 32.6391 54.1183C33.2625 53.568 33.5294 52.738 33.6538 51.939C33.8786 50.5112 34.0487 49.0741 34.2114 47.639C35.8184 47.9095 37.6357 47.6024 38.8369 46.4286C39.0929 46.1873 39.336 45.7686 39.0837 45.4396C38.8241 45.1379 38.3798 45.2202 38.0361 45.2896C37.2097 45.4359 36.3121 45.6078 35.5131 45.2659C36.941 43.0134 38.0654 40.5508 38.6925 37.9546C38.921 36.9674 39.0965 35.9582 39.0654 34.9417C39.0398 34.3731 38.9612 33.7679 38.6138 33.2962C37.7527 32.1627 36.5059 31.3345 35.131 30.9652C33.4143 30.499 31.5714 30.6379 29.8839 31.1608H29.8784Z" fill="black"/>
</svg>
