<svg width="150" height="85" viewBox="0 0 150 85" fill="none" xmlns="http://www.w3.org/2000/svg">
<path d="M64.993 43.1569C64.993 40.6358 64.2742 39.3415 62.8364 39.2706C62.2653 39.2431 61.6948 39.3368 61.1625 39.5457C60.7288 39.7009 60.4369 39.8545 60.2833 40.0096V46.0273C61.203 46.6043 62.0198 46.8726 62.7318 46.8305C64.2387 46.7308 64.993 45.5074 64.993 43.1569V43.1569ZM66.7665 43.2614C66.7665 44.5422 66.4661 45.6053 65.8621 46.4507C65.1886 47.4076 64.2555 47.9003 63.0627 47.9273C62.1631 47.9559 61.2367 47.6742 60.2833 47.0835V52.5525L58.741 52.0025V39.863C58.9941 39.5524 59.3197 39.2858 59.7146 39.0597C60.6327 38.5247 61.748 38.2496 63.0609 38.2361L63.0828 38.2581C64.2825 38.2429 65.2073 38.7356 65.8571 39.7347C66.4628 40.6509 66.7665 41.8254 66.7665 43.2614V43.2614ZM76.1926 46.8506C76.1926 48.5685 76.0205 49.7581 75.6763 50.4196C75.3304 51.0811 74.6722 51.6093 73.7003 52.0025C72.9122 52.3129 72.0601 52.4817 71.1455 52.5104L70.8907 51.5385C71.8203 51.4118 72.4753 51.2852 72.8549 51.1587C73.6025 50.9055 74.1153 50.5176 74.3973 49.9977C74.6234 49.5742 74.7347 48.7659 74.7347 47.5694V47.1678C73.68 47.6472 72.5748 47.885 71.4189 47.885C70.6595 47.885 69.9895 47.6472 69.4123 47.168C68.7645 46.6465 68.4404 45.985 68.4404 45.1834V38.7643L69.983 38.2363V44.6973C69.983 45.3876 70.2056 45.9192 70.6512 46.2921C71.0965 46.665 71.6737 46.8439 72.3807 46.8305C73.0878 46.8151 73.8454 46.5418 74.6504 46.007V38.469H76.1926V46.8506ZM82.2135 47.8428C82.0446 47.8571 81.8751 47.8644 81.7056 47.8648C80.8332 47.8648 80.1531 47.6572 79.6672 47.2405C79.1828 46.8236 78.9399 46.2482 78.9399 45.5141V39.4392H77.8835V38.469H78.9399V35.8924L80.4805 35.3439V38.469H82.2135V39.4394H80.4805V45.4719C80.4805 46.0506 80.6358 46.4608 80.9462 46.7004C81.2128 46.8977 81.6365 47.0108 82.2135 47.0395V47.8428ZM91.552 47.7163H90.0095V41.763C90.0095 41.1571 89.8678 40.6358 89.586 40.2004C89.2603 39.7077 88.8082 39.4612 88.2277 39.4612C87.5206 39.4612 86.6363 39.8343 85.5749 40.5801V47.7163H84.0325V33.486L85.5751 33V39.4816C86.5605 38.7643 87.637 38.4048 88.8064 38.4048C89.6232 38.4048 90.2846 38.68 90.7909 39.2285C91.2987 39.7768 91.552 40.4603 91.552 41.2769V47.7163ZM99.7496 42.9138C99.7496 41.9452 99.5656 41.1453 99.1994 40.5126C98.7642 39.7415 98.0874 39.3348 97.1728 39.2925C95.4819 39.3904 94.6383 40.6021 94.6383 42.924C94.6383 43.9887 94.8138 44.8781 95.168 45.5918C95.6204 46.5013 96.2987 46.9502 97.2033 46.9349C98.9008 46.9214 99.7496 45.5816 99.7496 42.9138V42.9138ZM101.439 42.924C101.439 44.3026 101.086 45.4501 100.382 46.3664C99.6078 47.3923 98.5379 47.907 97.1728 47.907C95.8195 47.907 94.7648 47.3923 94.0038 46.3662C93.3135 45.4501 92.9694 44.3026 92.9694 42.924C92.9694 41.628 93.3423 40.5378 94.0881 39.6502C94.8762 38.7086 95.9123 38.2361 97.1931 38.2361C98.4738 38.2361 99.5167 38.7088 100.32 39.6502C101.066 40.5378 101.439 41.628 101.439 42.924ZM110.281 47.7163H108.739V41.4254C108.739 40.7354 108.531 40.1969 108.116 39.809C107.701 39.4224 107.147 39.2351 106.457 39.2503C105.725 39.2638 105.028 39.5034 104.366 39.9676V47.7163H102.824V39.7768C103.712 39.1305 104.529 38.7086 105.274 38.5112C105.978 38.3274 106.599 38.2361 107.134 38.2361C107.5 38.2361 107.844 38.2716 108.168 38.3424C108.774 38.4827 109.267 38.7424 109.647 39.1238C110.07 39.5457 110.281 40.0519 110.281 40.6441V47.7163Z" fill="white"/>
<path d="M43.5077 33.5429C42.7143 33.5465 41.9565 33.6142 41.2897 33.7323C39.3252 34.0792 38.9686 34.8056 38.9686 36.1451V37.9143H43.6106V38.5039H37.2266C35.8775 38.5039 34.6962 39.3148 34.3268 40.8574C33.9006 42.6255 33.8817 43.7288 34.3268 45.575C34.6568 46.9493 35.4447 47.9285 36.7938 47.9285H38.3898V45.8077C38.3898 44.2755 39.7155 42.924 41.2897 42.924H45.9259C47.2168 42.924 48.247 41.8613 48.247 40.5651V36.1453C48.247 34.8872 47.1858 33.9421 45.9261 33.7323C45.1287 33.5995 44.3013 33.5392 43.5077 33.5429V33.5429ZM40.9974 34.9658C41.477 34.9658 41.8684 35.3636 41.8684 35.853C41.8684 36.3406 41.477 36.7348 40.9976 36.7348C40.5163 36.7348 40.1265 36.3406 40.1265 35.853C40.1265 35.3636 40.5163 34.9658 40.9974 34.9658V34.9658Z" fill="white"/>
<path d="M48.826 38.5042V40.5654C48.826 42.1635 47.4711 43.5085 45.9261 43.5085H41.2897C40.0197 43.5085 38.9686 44.5955 38.9686 45.8673V50.2875C38.9686 51.5454 40.0626 52.2854 41.2897 52.6463C42.759 53.0783 44.1681 53.1563 45.926 52.6463C47.0947 52.3079 48.247 51.627 48.247 50.2875V48.5183H43.6106V47.9287H50.568C51.9171 47.9287 52.4199 46.9876 52.889 45.5752C53.3736 44.1212 53.353 42.7228 52.889 40.8576C52.5556 39.5147 51.9188 38.5042 50.568 38.5042H48.826ZM46.2182 49.6977C46.6995 49.6977 47.0894 50.092 47.0894 50.5796C47.0894 51.069 46.6995 51.4668 46.2182 51.4668C45.7387 51.4668 45.3474 51.069 45.3474 50.5796C45.3474 50.092 45.7387 49.6977 46.2182 49.6977Z" fill="white"/>
<path d="M113.284 37.0939H113.555V35.398H114.195V35.1958H112.644V35.398H113.284V37.0939ZM114.435 37.0939H114.666V35.5448L115.168 37.0936H115.425L115.947 35.55V37.0938H116.199V35.1958H115.866L115.295 36.822L114.808 35.1958H114.435V37.0939" fill="white"/>
</svg>
