<svg width="150" height="85" viewBox="0 0 150 85" fill="none" xmlns="http://www.w3.org/2000/svg">
<path d="M74.5286 18.0004C72.4877 18.0099 70.5387 18.1838 68.8237 18.487C63.7717 19.3788 62.8544 21.2453 62.8544 24.6876V29.2337H74.793V30.7491H62.8544H58.374C54.9043 30.7491 51.8662 32.8328 50.9159 36.7967C49.8197 41.3403 49.7711 44.1756 50.9159 48.9198C51.7645 52.4512 53.7912 54.9674 57.2609 54.9674H61.3656V49.5176C61.3656 45.5804 64.775 42.1075 68.8237 42.1075H80.7484C84.0678 42.1075 86.7176 39.3768 86.7176 36.046V24.6876C86.7176 21.4549 83.9882 19.0265 80.7484 18.487C78.6975 18.1459 76.5695 17.9909 74.5286 18.0004ZM68.0723 21.6568C69.3055 21.6568 70.3126 22.6794 70.3126 23.9368C70.3126 25.1898 69.3055 26.2029 68.0723 26.2029C66.8348 26.2029 65.8321 25.1898 65.8321 23.9368C65.8321 22.6794 66.8348 21.6568 68.0723 21.6568Z" fill="url(#paint0_linear_4_364)"/>
<path d="M88.1975 30.749V36.0459C88.1975 40.1525 84.7129 43.6089 80.7394 43.6089H68.8147C65.5484 43.6089 62.8454 46.4021 62.8454 49.6705V61.0289C62.8454 64.2616 65.6589 66.163 68.8147 67.0904C72.5938 68.2007 76.2177 68.4013 80.7394 67.0904C83.7449 66.221 86.7086 64.4711 86.7086 61.0289V56.4827H74.784V54.9674H86.7086H92.6779C96.1476 54.9674 97.4406 52.5492 98.6472 48.9197C99.8936 45.1832 99.8406 41.5899 98.6472 36.7967C97.7897 33.3455 96.152 30.749 92.6779 30.749H88.1975ZM81.4907 59.5135C82.7283 59.5135 83.731 60.5267 83.731 61.7796C83.731 63.037 82.7283 64.0597 81.4907 64.0597C80.2576 64.0597 79.2505 63.037 79.2505 61.7796C79.2505 60.5267 80.2576 59.5135 81.4907 59.5135Z" fill="url(#paint1_linear_4_364)"/>
<defs>
<linearGradient id="paint0_linear_4_364" x1="50.0754" y1="18" x2="77.5848" y2="41.4617" gradientUnits="userSpaceOnUse">
<stop stop-color="#5A9FD4"/>
<stop offset="1" stop-color="#306998"/>
</linearGradient>
<linearGradient id="paint1_linear_4_364" x1="81.2038" y1="61.3974" x2="71.3386" y2="47.5615" gradientUnits="userSpaceOnUse">
<stop stop-color="#FFD43B"/>
<stop offset="1" stop-color="#FFE873"/>
</linearGradient>
</defs>
</svg>
