<svg width="50" height="50" viewBox="0 0 50 50" fill="none" xmlns="http://www.w3.org/2000/svg">
<path d="M24.4532 0.00040897C22.4123 0.00988409 20.4632 0.183798 18.7483 0.487C13.6963 1.37877 12.779 3.24532 12.779 6.68756V11.2337H24.7176V12.7491H12.779H8.29857C4.82889 12.7491 1.79074 14.8328 0.840446 18.7967C-0.255707 23.3403 -0.304327 26.1756 0.840446 30.9198C1.68908 34.4512 3.71574 36.9674 7.18541 36.9674H11.2902V31.5176C11.2902 27.5804 14.6996 24.1075 18.7483 24.1075H30.6729C33.9923 24.1075 36.6422 21.3768 36.6422 18.046V6.68756C36.6422 3.45489 33.9128 1.02652 30.6729 0.487C28.6221 0.145897 26.4941 -0.00906629 24.4532 0.00040897ZM17.9969 3.65679C19.2301 3.65679 20.2371 4.67942 20.2371 5.93682C20.2371 7.18976 19.2301 8.20294 17.9969 8.20294C16.7593 8.20294 15.7567 7.18976 15.7567 5.93682C15.7567 4.67942 16.7593 3.65679 17.9969 3.65679Z" fill="url(#paint0_linear_13_469)"/>
<path d="M38.122 12.749V18.0459C38.122 22.1525 34.6375 25.6089 30.6639 25.6089H18.7393C15.4729 25.6089 12.77 28.4021 12.77 31.6705V43.0289C12.77 46.2616 15.5834 48.163 18.7393 49.0904C22.5184 50.2007 26.1423 50.4013 30.6639 49.0904C33.6695 48.221 36.6332 46.4711 36.6332 43.0289V38.4827H24.7086V36.9674H36.6332H42.6025C46.0722 36.9674 47.3651 34.5492 48.5718 30.9197C49.8182 27.1832 49.7652 23.5899 48.5718 18.7967C47.7143 15.3455 46.0766 12.749 42.6025 12.749H38.122ZM31.4153 41.5135C32.6529 41.5135 33.6555 42.5267 33.6555 43.7796C33.6555 45.037 32.6529 46.0597 31.4153 46.0597C30.1821 46.0597 29.1751 45.037 29.1751 43.7796C29.1751 42.5267 30.1821 41.5135 31.4153 41.5135Z" fill="url(#paint1_linear_13_469)"/>
<defs>
<linearGradient id="paint0_linear_13_469" x1="-1.48666e-07" y1="-1.29032e-07" x2="27.5094" y2="23.4617" gradientUnits="userSpaceOnUse">
<stop stop-color="#5A9FD4"/>
<stop offset="1" stop-color="#306998"/>
</linearGradient>
<linearGradient id="paint1_linear_13_469" x1="31.1284" y1="43.3974" x2="21.2631" y2="29.5615" gradientUnits="userSpaceOnUse">
<stop stop-color="#FFD43B"/>
<stop offset="1" stop-color="#FFE873"/>
</linearGradient>
</defs>
</svg>
