<svg width="150" height="85" viewBox="0 0 150 85" fill="none" xmlns="http://www.w3.org/2000/svg">
<path d="M74.6579 47.408C77.0929 47.408 79.0668 45.4344 79.0668 42.9999C79.0668 40.5654 77.0929 38.5918 74.6579 38.5918C72.2229 38.5918 70.2489 40.5654 70.2489 42.9999C70.2489 45.4344 72.2229 47.408 74.6579 47.408Z" fill="#61DAFB"/>
<path d="M74.6578 52.0313C87.7237 52.0313 98.3157 47.9878 98.3157 43C98.3157 38.0122 87.7237 33.9688 74.6578 33.9688C61.592 33.9688 51 38.0122 51 43C51 47.9878 61.592 52.0313 74.6578 52.0313Z" stroke="#61DAFB" stroke-width="1.5"/>
<path d="M66.8351 47.5156C73.368 58.8288 82.1664 65.9783 86.4868 63.4844C90.8072 60.9905 89.0136 49.7976 82.4807 38.4844C75.9477 27.1712 67.1493 20.0217 62.8289 22.5156C58.5085 25.0095 60.3021 36.2024 66.8351 47.5156Z" stroke="#61DAFB" stroke-width="1.5"/>
<path d="M66.8351 38.4844C60.3021 49.7976 58.5085 60.9904 62.8289 63.4844C67.1493 65.9783 75.9477 58.8288 82.4807 47.5156C89.0136 36.2024 90.8072 25.0095 86.4868 22.5156C82.1664 20.0217 73.368 27.1711 66.8351 38.4844Z" stroke="#61DAFB" stroke-width="1.5"/>
</svg>
