<svg width="50" height="50" viewBox="0 0 50 50" fill="none" xmlns="http://www.w3.org/2000/svg">
<path d="M24.6578 29.408C27.0928 29.408 29.0668 27.4344 29.0668 24.9999C29.0668 22.5654 27.0928 20.5918 24.6578 20.5918C22.2228 20.5918 20.2489 22.5654 20.2489 24.9999C20.2489 27.4344 22.2228 29.408 24.6578 29.408Z" fill="#61DAFB"/>
<path d="M24.6578 34.0313C37.7237 34.0313 48.3157 29.9878 48.3157 25C48.3157 20.0122 37.7237 15.9688 24.6578 15.9688C11.592 15.9688 1 20.0122 1 25C1 29.9878 11.592 34.0313 24.6578 34.0313Z" stroke="#61DAFB" stroke-width="1.5"/>
<path d="M16.8351 29.5156C23.368 40.8288 32.1664 47.9783 36.4868 45.4844C40.8072 42.9905 39.0136 31.7976 32.4807 20.4844C25.9477 9.17116 17.1493 2.02172 12.8289 4.51563C8.50852 7.00955 10.3021 18.2024 16.8351 29.5156Z" stroke="#61DAFB" stroke-width="1.5"/>
<path d="M16.835 20.4844C10.3021 31.7976 8.50849 42.9904 12.8289 45.4844C17.1493 47.9783 25.9477 40.8288 32.4806 29.5156C39.0136 18.2024 40.8072 7.00953 36.4867 4.51562C32.1663 2.0217 23.368 9.17115 16.835 20.4844Z" stroke="#61DAFB" stroke-width="1.5"/>
</svg>
