<svg width="150" height="85" viewBox="0 0 150 85" fill="none" xmlns="http://www.w3.org/2000/svg">
<path d="M100.113 60.4876C111.436 49.1653 113.318 32.6905 104.316 23.6893C95.3155 14.6892 78.8414 16.5707 67.5191 27.8924C56.1968 39.2143 59.4721 60.8453 63.3167 64.6906C66.4235 67.7974 88.7913 71.8092 100.113 60.4876Z" fill="#F89939"/>
<path d="M53.653 44.1272C47.0843 37.5586 37.5249 36.465 32.3012 41.6884C27.0788 46.9111 28.1707 56.4719 34.7407 63.0395C41.3107 69.6102 53.8619 67.7096 56.0912 65.4784C57.8951 63.6774 60.2236 50.6966 53.653 44.1272Z" fill="#3499CD"/>
<path d="M76.3173 57.7123C75.1569 58.7804 74.1389 59.5687 73.264 60.0752C72.3891 60.5834 71.5546 60.8371 70.7606 60.8371C69.8473 60.8371 69.1104 60.4831 68.5518 59.7747C67.9921 59.0656 67.7133 58.1148 67.7133 56.9186C67.7133 55.1263 68.1018 52.9747 68.8787 50.466C69.6544 47.9553 70.5988 45.6418 71.7081 43.5252L74.9606 42.321C75.0626 42.2869 75.1402 42.2695 75.1916 42.2695C75.4384 42.2695 75.6423 42.4514 75.7988 42.8135C75.9569 43.1772 76.0365 43.666 76.0365 44.2804C76.0365 46.0219 75.6356 47.7079 74.8323 49.3383C74.0292 50.9694 72.7749 52.7102 71.0679 54.5627C70.9993 55.4506 70.9652 56.0604 70.9652 56.3937C70.9652 57.1369 71.1016 57.725 71.3748 58.1606C71.6482 58.5969 72.0106 58.8135 72.4633 58.8135C72.925 58.8135 73.4154 58.6484 73.9363 58.3154C74.4562 57.9817 75.2502 57.291 76.317 56.2403V57.7123H76.3173ZM71.4135 52.7066C72.4974 51.5014 73.3776 50.1497 74.0516 48.6543C74.7256 47.1582 75.0623 45.8715 75.0623 44.7933C75.0623 44.479 75.0158 44.2236 74.9225 44.0317C74.8286 43.8395 74.7082 43.7429 74.5635 43.7429C74.2489 43.7429 73.7892 44.5292 73.1871 46.1021C72.585 47.6748 71.9939 49.8766 71.4135 52.7066V52.7066Z" fill="#010101"/>
<path d="M85.8962 57.7124C84.8123 58.7805 83.8394 59.5688 82.9769 60.0753C82.1144 60.5835 81.1636 60.8372 80.1215 60.8372C78.9604 60.8372 78.0237 60.4658 77.3099 59.7239C76.5975 58.9801 76.2418 58.0036 76.2418 56.791C76.2418 54.9817 76.8686 53.3445 78.125 51.8805C79.3787 50.4159 80.7707 49.6841 82.2986 49.6841C83.0926 49.6841 83.7278 49.8897 84.2065 50.2992C84.6846 50.7094 84.9236 51.2467 84.9236 51.9126C84.9236 53.6802 83.0458 55.1134 79.2897 56.215C79.6307 57.8789 80.5227 58.712 81.9656 58.712C82.5293 58.712 83.0665 58.5605 83.5783 58.2583C84.0915 57.9547 84.8635 57.2814 85.8965 56.2407V57.7124H85.8962ZM79.1864 55.3441C81.3712 54.7289 82.4644 53.5943 82.4644 51.938C82.4644 51.1186 82.1652 50.7091 81.5684 50.7091C81.0048 50.7091 80.4675 51.1374 79.9557 51.9962C79.4422 52.8537 79.1864 53.969 79.1864 55.3441V55.3441Z" fill="#010101"/>
<path d="M99.5717 57.7124C98.2057 59.0099 97.2281 59.856 96.6397 60.2492C96.0507 60.6417 95.4873 60.8376 94.9491 60.8376C93.6001 60.8376 92.9646 59.6471 93.0411 57.2651C92.1876 58.4853 91.3996 59.386 90.6782 59.9677C89.9574 60.5481 89.2129 60.8376 88.4436 60.8376C87.6934 60.8376 87.0555 60.4862 86.5297 59.7818C86.0038 59.0774 85.7427 58.2135 85.7427 57.1882C85.7427 55.9084 86.094 54.6875 86.7978 53.5257C87.5029 52.3647 88.4055 51.4266 89.5064 50.7095C90.6073 49.9924 91.5815 49.6333 92.4257 49.6333C93.4931 49.6333 94.2403 50.1244 94.6673 51.1056L97.2843 49.6594H98.0024L96.8721 53.4107C96.2917 55.298 96.0005 56.5914 96.0005 57.2912C96.0005 58.025 96.2603 58.3921 96.7815 58.3921C97.1131 58.3921 97.4802 58.2152 97.8817 57.8605C98.2832 57.5058 98.8456 56.9659 99.571 56.2404V57.7124H99.5717ZM90.1984 58.4175C91.052 58.4175 91.8563 57.69 92.6132 56.2347C93.3688 54.7788 93.7462 53.4355 93.7462 52.2065C93.7462 51.7291 93.6386 51.355 93.4263 51.0866C93.212 50.8168 92.9261 50.683 92.5684 50.683C91.7142 50.683 90.9045 51.4085 90.1419 52.8601C89.378 54.3117 88.9952 55.6477 88.9952 56.8672C88.9952 57.3289 89.1089 57.7024 89.3349 57.9885C89.5609 58.2747 89.8478 58.4175 90.1984 58.4175V58.4175Z" fill="#010101"/>
<path d="M109.138 57.7123C106.995 59.8121 105.342 60.8629 104.182 60.8629C103.66 60.8629 103.22 60.6429 102.863 60.2046C102.505 59.7647 102.325 59.2201 102.325 58.5708C102.325 57.3673 102.97 55.7545 104.259 53.7309C103.627 54.0555 102.936 54.2809 102.184 54.4092C101.629 55.4336 100.758 56.5352 99.5721 57.712H99.2782V56.5609C99.9435 55.8695 100.546 55.1264 101.084 54.3324C100.348 54.0077 99.9819 53.5253 99.9819 52.8861C99.9819 52.2278 100.205 51.5261 100.655 50.7782C101.103 50.032 101.719 49.6589 102.505 49.6589C103.171 49.6589 103.503 49.9993 103.503 50.6826C103.503 51.2205 103.311 51.9885 102.927 52.9877C104.343 52.8336 105.581 51.7504 106.641 49.7352L107.805 49.6837L106.614 52.9616C106.12 54.3447 105.799 55.2868 105.655 55.7856C105.51 56.2844 105.437 56.7271 105.437 57.1105C105.437 57.4696 105.52 57.7564 105.686 57.9684C105.853 58.1833 106.077 58.289 106.359 58.289C106.666 58.289 106.961 58.184 107.242 57.9761C107.524 57.7651 108.156 57.1874 109.138 56.24V57.7123H109.138Z" fill="#010101"/>
<path d="M121.712 57.7123C119.741 59.7964 118.049 60.8375 116.642 60.8375C116.07 60.8375 115.609 60.6369 115.259 60.2354C114.908 59.8346 114.733 59.297 114.733 58.6227C114.733 57.7093 115.109 56.3132 115.861 54.436C116.261 53.4284 116.463 52.7872 116.463 52.515C116.463 52.2416 116.355 52.1048 116.143 52.1048C116.023 52.1048 115.865 52.165 115.669 52.2837C115.489 52.403 115.28 52.5709 115.041 52.7838C114.828 52.9797 114.588 53.2188 114.323 53.4996C114.092 53.7406 113.845 54.0134 113.582 54.3197L112.863 55.1528C112.548 55.5366 112.352 55.9414 112.275 56.3687C112.146 57.0942 112.061 57.7608 112.018 58.3676C111.992 58.8189 111.98 59.4287 111.98 60.1986L109.15 60.8632C109.057 59.7109 109.009 58.8527 109.009 58.29C109.009 56.9156 109.169 55.6135 109.49 54.3845C109.809 53.1542 110.323 51.7722 111.032 50.235L114.156 49.6335C113.499 51.4011 113.068 52.7918 112.863 53.8072C114.264 52.2452 115.374 51.1641 116.196 50.5613C117.018 49.9592 117.749 49.6596 118.388 49.6596C118.823 49.6596 119.186 49.8234 119.475 50.1514C119.765 50.4797 119.91 50.8919 119.91 51.3847C119.91 52.2034 119.543 53.5524 118.81 55.4313C118.305 56.7197 118.053 57.5559 118.053 57.942C118.053 58.4558 118.263 58.7126 118.682 58.7126C119.306 58.7126 120.317 57.8885 121.712 56.241V57.7123Z" fill="#010101"/>
<path d="M81.1622 43.4348C81.1822 43.6609 81.2388 43.8342 81.3317 43.9548C81.5025 44.1733 81.7989 44.2825 82.2208 44.2825C82.472 44.2825 82.693 44.2285 82.8839 44.1205C83.0748 44.01 83.1702 43.8405 83.1702 43.6119C83.1702 43.4386 83.0936 43.3068 82.9404 43.2163C82.8425 43.1611 82.6491 43.097 82.3602 43.0242L81.8215 42.8886C81.4774 42.8032 81.2237 42.7077 81.0604 42.6022C80.7691 42.4189 80.6234 42.1652 80.6234 41.8412C80.6234 41.4594 80.7603 41.1505 81.0341 40.9144C81.3103 40.6783 81.6808 40.5602 82.1455 40.5602C82.7533 40.5602 83.1916 40.7386 83.4603 41.0952C83.6286 41.3213 83.7102 41.5649 83.7052 41.8261H83.0647C83.0522 41.6729 82.9982 41.5335 82.9027 41.4079C82.747 41.2296 82.477 41.1404 82.0927 41.1404C81.8365 41.1404 81.6419 41.1894 81.5088 41.2874C81.3782 41.3853 81.3129 41.5147 81.3129 41.6754C81.3129 41.8512 81.3995 41.9919 81.5728 42.0974C81.6733 42.1602 81.8215 42.2154 82.0174 42.2632L82.4657 42.3724C82.953 42.4905 83.2795 42.6047 83.4453 42.7153C83.709 42.8886 83.8409 43.1611 83.8409 43.5328C83.8409 43.892 83.704 44.2022 83.4302 44.4634C83.1589 44.7246 82.7445 44.8552 82.1869 44.8552C81.5866 44.8552 81.1609 44.7196 80.9097 44.4483C80.6611 44.1745 80.528 43.8367 80.5104 43.4348H81.1622Z" fill="white"/>
<path d="M86.1729 40.5489C86.6276 40.5489 86.9968 40.6594 87.2806 40.8805C87.5669 41.1015 87.739 41.482 87.7967 42.022H87.1374C87.0972 41.7734 87.0056 41.5674 86.8624 41.4042C86.7192 41.2384 86.4894 41.1555 86.1729 41.1555C85.7409 41.1555 85.432 41.3665 85.2461 41.7884C85.1256 42.0622 85.0653 42.4 85.0653 42.8019C85.0653 43.2063 85.1507 43.5466 85.3215 43.8229C85.4923 44.0992 85.761 44.2373 86.1277 44.2373C86.409 44.2373 86.6313 44.1519 86.7946 43.9811C86.9604 43.8078 87.0746 43.5717 87.1374 43.2728H87.7967C87.7214 43.8078 87.533 44.1997 87.2316 44.4483C86.9302 44.6945 86.5447 44.8175 86.075 44.8175C85.5475 44.8175 85.1268 44.6254 84.8129 44.2411C84.4989 43.8543 84.3419 43.3721 84.3419 42.7944C84.3419 42.0861 84.514 41.5348 84.8581 41.1404C85.2022 40.7461 85.6405 40.5489 86.1729 40.5489Z" fill="white"/>
<path d="M88.4749 40.6846H89.1643V44.7007H88.4749V40.6846ZM88.4749 39.1663H89.1643V39.9348H88.4749V39.1663Z" fill="white"/>
<path d="M90.1778 39.1663H90.8296V42.3799L92.5702 40.6657H93.4367L91.892 42.1765L93.5234 44.7007H92.6568L91.3985 42.6663L90.8296 43.1862V44.7007H90.1778V39.1663Z" fill="white"/>
<path d="M94.0508 40.6846H94.7403V44.7007H94.0508V40.6846ZM94.0508 39.1663H94.7403V39.9348H94.0508V39.1663Z" fill="white"/>
<path d="M95.9044 39.5392H96.5901V40.6657H97.2344V41.2196H96.5901V43.853C96.5901 43.9937 96.6378 44.0879 96.7333 44.1356C96.786 44.1632 96.8739 44.177 96.997 44.177C97.0297 44.177 97.0648 44.177 97.1025 44.177C97.1402 44.1745 97.1841 44.1708 97.2344 44.1657V44.7007C97.1565 44.7233 97.0749 44.7397 96.9895 44.7497C96.9066 44.7598 96.8162 44.7648 96.7182 44.7648C96.4017 44.7648 96.187 44.6844 96.074 44.5237C95.9609 44.3604 95.9044 44.1494 95.9044 43.8907V41.2196H95.3581V40.6657H95.9044V39.5392Z" fill="white"/>
</svg>
