<svg width="150" height="85" viewBox="0 0 150 85" fill="none" xmlns="http://www.w3.org/2000/svg">
<path d="M33.1313 41.6736L26.8366 43.729L21.3603 46.146L19.8282 46.5505C19.438 46.9216 19.0289 47.2975 18.5864 47.6781C18.1011 48.0968 17.6491 48.4775 17.3018 48.7534C16.9164 49.0579 16.3454 49.6289 16.0552 49.9904C15.6222 50.5328 15.2797 51.1085 15.1322 51.551C14.8705 52.3504 14.999 53.1592 15.5033 53.9062C16.1504 54.8578 17.4398 55.8283 18.9432 56.4897C19.7093 56.8276 20.9987 57.2605 21.9693 57.5031C23.5821 57.9123 26.7034 58.3548 28.4209 58.4215C28.7682 58.4357 29.2345 58.4357 29.2535 58.4215C29.2916 58.3976 29.5581 57.8886 29.8674 57.2558C30.9236 55.1004 31.6849 53.0783 32.0988 51.3512C32.3462 50.3045 32.5412 48.9104 32.6696 47.2595C32.703 46.798 32.7172 45.2517 32.6887 44.7283C32.6458 43.8719 32.5697 43.1772 32.4508 42.4969C32.4318 42.3969 32.427 42.3065 32.4365 42.3018C32.4555 42.2875 32.5126 42.2685 33.2882 42.0448L33.1312 41.6737V41.6736H33.1313V41.6736ZM31.6944 42.5158C31.7515 42.5158 31.9037 43.9764 31.9418 44.8995C31.9513 45.0946 31.9465 45.223 31.937 45.223C31.899 45.223 31.1329 44.7711 30.5859 44.4285C30.11 44.1288 29.2061 43.5292 29.0634 43.4151C29.0157 43.3818 29.0204 43.377 29.4106 43.2438C30.0719 43.0201 31.6421 42.5158 31.6944 42.5158V42.5158ZM28.4876 43.5721C28.5305 43.5721 28.6398 43.6338 28.9015 43.7957C29.8816 44.4094 31.2139 45.1517 31.7848 45.3991C31.9608 45.4752 31.9798 45.4467 31.5754 45.7227C30.7095 46.3126 29.6294 46.893 28.3067 47.4783C28.0736 47.583 27.8786 47.6638 27.8738 47.6638C27.8643 47.6638 27.8928 47.5449 27.9308 47.4022C28.2496 46.2174 28.4304 45.0184 28.44 44.0573C28.4448 43.5815 28.4448 43.5815 28.4876 43.5673C28.478 43.5721 28.4828 43.5721 28.4876 43.5721V43.5721ZM27.8263 43.8242C27.8547 43.8527 27.8358 44.9185 27.7977 45.2087C27.712 45.9034 27.5788 46.5505 27.36 47.2785C27.3077 47.4544 27.26 47.602 27.2506 47.6115C27.2315 47.6352 26.5796 46.9977 26.3655 46.7503C25.9944 46.3221 25.7042 45.8938 25.4901 45.4752C25.3807 45.2611 25.2094 44.8424 25.2237 44.8281C25.2998 44.7758 27.8072 43.8052 27.8263 43.8242ZM24.7146 45.047C24.7193 45.047 24.724 45.047 24.7289 45.0517C24.7383 45.0612 24.7717 45.1374 24.8003 45.223C24.9525 45.6369 25.295 46.2459 25.59 46.6361C25.9136 47.0643 26.3371 47.521 26.6891 47.8208C26.8033 47.916 26.9079 48.0063 26.9222 48.0206C26.9508 48.0492 26.9603 48.0444 26.1847 48.3394C25.2856 48.682 24.3054 49.0245 23.1825 49.3861C22.9142 49.4726 22.6463 49.5598 22.3785 49.6478C22.3356 49.6621 22.3499 49.6383 22.4736 49.4433C23.0303 48.5725 23.8772 46.8645 24.353 45.656C24.4339 45.4466 24.5147 45.2373 24.5291 45.1897C24.5481 45.1231 24.5718 45.0993 24.6337 45.066C24.667 45.0565 24.7003 45.047 24.7146 45.047V45.047ZM23.7631 45.4419C23.7773 45.4514 23.5346 45.9605 23.2967 46.4267C22.8352 47.326 22.3309 48.211 21.6553 49.2863C21.5411 49.4718 21.4317 49.6431 21.4174 49.6621C21.3936 49.6955 21.3841 49.6859 21.308 49.5384C21.1462 49.2197 21.0129 48.8104 20.9416 48.4346C20.8702 48.0634 20.8845 47.4164 20.9654 47.0167C21.0272 46.7218 21.0225 46.7265 21.1652 46.6551C21.7742 46.3459 23.744 45.4228 23.7631 45.4419V45.4419ZM31.9704 45.775V45.9748C31.9704 47.0358 31.8562 48.4917 31.6896 49.5528C31.6611 49.7383 31.6372 49.8905 31.6325 49.8953C31.6325 49.8953 31.4946 49.8573 31.3328 49.8096C30.6191 49.586 29.8436 49.2577 29.1441 48.8724C28.6826 48.6202 28.0118 48.2062 28.0308 48.1872C28.0355 48.1824 28.2354 48.0778 28.4685 47.954C29.4011 47.4688 30.2955 46.9454 31.0711 46.4268C31.3613 46.2317 31.799 45.9177 31.8942 45.8321L31.9704 45.775ZM20.1708 47.1832C20.1898 47.1832 20.1851 47.2213 20.1565 47.3926C20.1375 47.5163 20.1137 47.7447 20.1042 47.9016C20.0661 48.5963 20.1804 49.1102 20.5229 49.8143C20.6181 50.0094 20.6942 50.1712 20.6894 50.1759C20.6561 50.2045 17.5064 51.1276 16.5167 51.3987C16.2218 51.4796 15.9649 51.551 15.9458 51.5557C15.9125 51.5652 15.9077 51.5605 15.922 51.4795C16.0314 50.7802 16.5643 49.8667 17.3065 49.0958C17.8014 48.582 18.1963 48.2823 18.8719 47.8968C19.3572 47.6209 20.1042 47.2071 20.1613 47.188C20.1613 47.1832 20.1661 47.1832 20.1708 47.1832V47.1832ZM27.5931 48.5107C27.5979 48.5059 27.712 48.5678 27.85 48.6487C28.8682 49.2387 30.286 49.7858 31.4945 50.0665L31.604 50.0904L31.4517 50.1759C30.8189 50.528 28.7397 51.3939 26.613 52.1885C26.3037 52.3027 25.9992 52.4169 25.942 52.4407C25.8849 52.4644 25.8326 52.4787 25.8326 52.474C25.8326 52.4692 25.9183 52.3027 26.0276 52.0981C26.6224 50.9848 27.2219 49.6288 27.5264 48.6867C27.5646 48.5963 27.5883 48.5155 27.5931 48.5107V48.5107ZM26.8366 48.7581C26.8414 48.763 26.8033 48.8628 26.7557 48.977C26.3418 49.9809 25.7993 51.0753 25.1047 52.3028C24.9287 52.6168 24.7812 52.869 24.7764 52.869C24.7717 52.869 24.6289 52.7833 24.4576 52.6786C23.4489 52.0601 22.5545 51.2989 21.9693 50.5614L21.8836 50.4567L22.3165 50.3377C23.8676 49.9143 25.1855 49.4576 26.494 48.8962C26.6796 48.82 26.8319 48.7581 26.8366 48.7581V48.7581ZM31.5374 50.3996C31.5374 50.3996 31.5422 50.4043 31.5374 50.3996C31.5421 50.509 31.2995 51.4892 31.0996 52.198C30.9331 52.7928 30.7903 53.2591 30.5287 54.0821C30.4145 54.4438 30.3147 54.7435 30.3098 54.7435C30.3051 54.7435 30.2766 54.7387 30.248 54.7293C28.8349 54.4723 27.5693 54.1155 26.3799 53.6397C26.0468 53.5064 25.571 53.2923 25.5425 53.2686C25.533 53.2589 25.8185 53.1258 26.18 52.9688C28.3449 52.022 30.5906 50.9467 31.3613 50.4852C31.4517 50.4281 31.5231 50.3996 31.5374 50.3996V50.3996ZM20.6847 50.7707C20.6942 50.7802 20.0899 51.6509 19.243 52.8356C18.948 53.2496 18.6055 53.7348 18.477 53.9156C18.3486 54.0964 18.1535 54.3819 18.0441 54.5532L17.8441 54.8625L17.63 54.6817C17.3778 54.4723 16.9402 54.0251 16.7451 53.7777C16.3359 53.2686 16.06 52.731 15.9506 52.241C15.8982 52.0126 15.8982 51.8983 15.9457 51.8841C16.0171 51.8651 17.2875 51.5653 18.477 51.2893C19.1383 51.1371 19.9043 50.9563 20.1803 50.8897C20.4563 50.823 20.6799 50.7707 20.6847 50.7707V50.7707ZM21.2937 51.0039L21.4459 51.1751C22.1311 51.9412 22.8305 52.5074 23.6774 53.0022C23.8297 53.0879 23.9438 53.1639 23.9342 53.1688C23.901 53.1925 20.9939 54.2249 19.6474 54.6912C18.891 54.9576 18.2676 55.1717 18.2629 55.1717C18.2582 55.1717 18.2154 55.1432 18.1677 55.1099L18.0821 55.048L18.2201 54.8482C18.6673 54.2011 19.2288 53.4922 20.4516 52.0173L21.2937 51.0039ZM25.0905 53.7206C25.0952 53.7158 25.3045 53.7919 25.5614 53.8872C26.18 54.1203 26.67 54.2677 27.3267 54.4343C28.1355 54.6389 29.3059 54.8387 29.9959 54.8958C30.1005 54.9053 30.1576 54.9149 30.1386 54.9291C30.1052 54.9482 29.4059 55.1813 28.892 55.3431C28.0736 55.6 25.5758 56.3374 23.5394 56.9227C23.1635 57.0321 22.84 57.1225 22.8209 57.1272C22.7734 57.1368 22.6164 57.0939 22.6164 57.0749C22.6164 57.0654 22.7305 56.9179 22.8685 56.7562C23.5536 55.9378 24.2341 55.0243 24.8003 54.1583C24.9572 53.9204 25.0905 53.7253 25.0905 53.7206ZM24.253 53.7444C24.2578 53.7492 23.92 54.2915 23.3301 55.2241C23.0779 55.619 22.7971 56.0662 22.6972 56.2232C22.602 56.3755 22.4593 56.6134 22.3785 56.7466L22.2405 56.9893L22.1691 56.9702C21.9978 56.9226 20.7941 56.4991 20.4753 56.3707C20.0804 56.2137 19.6712 56.0234 19.3667 55.8616C18.9861 55.657 18.5103 55.3525 18.5483 55.343C18.5578 55.3383 19.2097 55.1622 19.9947 54.9481C22.0787 54.3819 23.2348 54.0536 23.9914 53.8157C24.1294 53.7729 24.2483 53.7396 24.253 53.7444ZM30.1766 55.1336H30.1814C30.2004 55.1813 29.4297 57.3223 29.1488 57.9979C29.0871 58.1501 29.0634 58.1883 29.03 58.1834C28.9491 58.1787 27.831 58.0217 27.1506 57.9218C25.9659 57.741 23.9771 57.3936 23.4776 57.2795L23.3634 57.2557L24.0722 57.0938C25.5948 56.7513 26.3275 56.5658 27.0697 56.3374C28.007 56.0519 28.9349 55.695 29.8721 55.2574C30.0196 55.1907 30.1433 55.1384 30.1766 55.1336Z" fill="url(#paint0_linear_4_70)"/>
<path d="M26.6416 27.0002C26.5369 26.986 24.8478 27.595 23.7583 28.0375C22.288 28.637 21.1462 29.208 20.442 29.7027C20.1804 29.8884 19.852 30.2166 19.7998 30.3451C19.7807 30.3926 19.7712 30.4497 19.7712 30.5068L20.4088 31.1111L21.9265 31.5964L25.5377 32.2435L29.6675 32.9524L29.7104 32.5956C29.6962 32.5956 29.6866 32.5908 29.6724 32.5908L29.1299 32.5052L29.0205 32.3101C28.4591 31.3204 27.8406 30.0929 27.479 29.265C27.1983 28.6227 26.9318 27.8805 26.7843 27.3476C26.7034 27.0241 26.6939 27.0051 26.6417 27.0003V27.0002H26.6416V27.0002ZM26.5653 27.243H26.5702C26.5749 27.2477 26.594 27.381 26.613 27.5379C26.6938 28.2041 26.8414 28.8463 27.0745 29.541C27.2505 30.0644 27.2505 30.0359 27.046 29.974C26.5607 29.8408 24.3864 29.4649 22.8115 29.246C22.5593 29.2127 22.3452 29.1794 22.3452 29.1747C22.3262 29.1557 23.4823 28.5514 23.9914 28.3135C24.6432 28.0137 26.4322 27.2667 26.5653 27.243V27.243ZM21.9788 29.3745L22.1644 29.4363C23.173 29.7789 25.7089 30.2642 27.1078 30.3784C27.2648 30.3927 27.3981 30.407 27.4027 30.407C27.4075 30.4117 27.2743 30.4831 27.103 30.5639C26.4275 30.9017 25.6852 31.3157 25.1713 31.6345C25.0191 31.7296 24.8811 31.8058 24.8621 31.8058C24.8431 31.8058 24.7432 31.7867 24.6385 31.7725L24.4482 31.7439L23.9725 31.2776C23.1351 30.464 22.4784 29.836 22.2263 29.5981L21.9788 29.3745V29.3745ZM21.7885 29.5219L22.4594 30.3594C22.8257 30.8209 23.1968 31.2728 23.2778 31.3727C23.3586 31.4727 23.4252 31.5536 23.4205 31.5584C23.4015 31.5726 22.4499 31.387 21.9455 31.2729C21.4269 31.1539 21.2128 31.0968 20.8941 30.9969L20.6324 30.9113V30.8446C20.6371 30.5258 21.0416 30.0501 21.7267 29.5648L21.7885 29.5219ZM27.4884 30.6638C27.5075 30.6638 27.5312 30.7067 27.5883 30.8351C27.7501 31.1919 28.2545 32.1531 28.3781 32.3386C28.4163 32.4005 28.4828 32.4053 27.812 32.2958C26.1991 32.0341 25.6804 31.9485 25.6804 31.939C25.6804 31.9343 25.728 31.9009 25.7899 31.8676C26.2895 31.5917 26.7938 31.2396 27.2411 30.8637C27.3505 30.7733 27.4504 30.6877 27.4694 30.6733C27.4741 30.6638 27.4837 30.6591 27.4884 30.6638Z" fill="url(#paint1_linear_4_70)"/>
<path d="M19.833 30.2786C19.833 30.2786 19.7283 30.4452 19.8282 30.6926C19.8902 30.8448 20.0709 31.0303 20.2755 31.2207C20.2755 31.2207 22.3927 33.2856 22.6497 33.5806C23.8201 34.9318 24.3292 36.264 24.3768 38.1006C24.4053 39.2805 24.1816 40.3177 23.625 41.5215C22.6354 43.6816 20.5466 46.0653 17.3255 48.7107L17.7966 48.5537C18.1011 48.3253 18.5151 48.0827 19.4857 47.5498C21.7266 46.3222 24.2483 45.1946 27.3409 44.0337C31.7942 42.3588 39.1167 40.3985 43.2845 39.7611L43.7175 39.6944L43.6509 39.5897C43.2703 38.9997 43.0086 38.6334 42.6945 38.2433C41.7811 37.1109 40.6725 36.1927 39.3165 35.4314C37.4514 34.3894 35.0391 33.5759 31.9846 32.9716C31.4089 32.8574 30.1433 32.6385 29.1156 32.4815C26.9364 32.1438 25.5281 31.9106 23.9771 31.6442C23.4205 31.549 22.5878 31.4063 22.0358 31.2873C21.7504 31.2254 21.2033 31.097 20.7751 30.9495C20.4325 30.8162 19.9376 30.683 19.833 30.2786V30.2786ZM21.0606 31.4681C21.0653 31.4634 21.1414 31.4918 21.2414 31.5252C21.4221 31.587 21.6553 31.6584 21.9313 31.7345C22.1401 31.792 22.3495 31.8475 22.5593 31.901C22.8448 31.9724 23.0826 32.039 23.0874 32.039C23.1207 32.0723 23.6013 33.609 23.7631 34.199C23.8248 34.4227 23.8725 34.613 23.8678 34.613C23.8629 34.6178 23.8106 34.5368 23.7488 34.4274C23.1921 33.4473 22.3119 32.4529 21.2937 31.6535C21.1605 31.5585 21.0606 31.4728 21.0606 31.4681ZM23.4014 32.1152C23.4252 32.1152 23.5299 32.1294 23.6583 32.158C24.4672 32.3387 25.9183 32.6147 26.8461 32.7717C27.0031 32.7955 27.1269 32.8241 27.1269 32.8336C27.1269 32.8431 27.0697 32.8764 26.9983 32.9145C26.8414 32.9953 26.2085 33.3712 25.9992 33.5139C25.4711 33.866 24.9953 34.2466 24.6527 34.5892C24.5148 34.7272 24.3958 34.8414 24.3958 34.8414C24.3958 34.8414 24.3673 34.7605 24.3434 34.6605C24.1722 33.9992 23.8153 33.0191 23.4918 32.3292C23.4395 32.2198 23.3966 32.1199 23.3966 32.1104C23.3966 32.1199 23.3966 32.1152 23.4014 32.1152V32.1152ZM27.5217 32.9002C27.5503 32.9097 27.5979 33.0715 27.693 33.4283C27.8691 34.1182 27.95 34.889 27.9214 35.6074C27.9119 35.8073 27.9024 35.9928 27.8928 36.0166L27.8786 36.0642L27.6312 35.9833C27.1221 35.8215 26.2942 35.5788 25.5853 35.379C25.1808 35.2696 24.8526 35.1697 24.8526 35.1602C24.8526 35.1316 25.4426 34.5416 25.6948 34.3181C26.1752 33.8945 27.4789 32.8859 27.5217 32.9002V32.9002ZM27.85 32.9477C27.8643 32.9335 29.8198 33.2713 30.7095 33.4426C31.3709 33.571 32.332 33.7709 32.389 33.7947C32.4176 33.8042 32.3177 33.8613 31.9989 34.004C30.7428 34.5702 29.8102 35.0792 28.8825 35.6978C28.6399 35.8596 28.4353 35.9928 28.4305 35.9928C28.4258 35.9928 28.421 35.8548 28.421 35.6883C28.421 34.7843 28.2402 33.8708 27.9071 33.1C27.8738 33.0239 27.8453 32.9525 27.85 32.9477V32.9477ZM32.9076 33.9469C32.9219 33.9612 32.86 34.3466 32.803 34.575C32.6317 35.2839 32.1702 36.3355 31.6041 37.325C31.5041 37.5011 31.4137 37.6438 31.4041 37.6486C31.3947 37.6533 31.2662 37.5819 31.1187 37.4963C30.5668 37.1727 29.9388 36.8683 29.2536 36.5827C29.0633 36.5019 28.8968 36.4352 28.892 36.4258C28.8586 36.3972 30.3907 35.3838 31.1996 34.8985C31.8419 34.5084 32.8886 33.9279 32.9076 33.9469V33.9469ZM33.2692 34.004C33.3121 34.004 34.178 34.2419 34.6299 34.3751C35.7481 34.7082 37.0327 35.1792 37.8701 35.5598L38.2173 35.7169L37.9748 35.774C35.9289 36.2449 34.178 36.7874 32.4889 37.4725C32.3509 37.5296 32.2272 37.5772 32.2178 37.5772C32.2082 37.5772 32.2558 37.4678 32.3177 37.3345C32.8268 36.2545 33.1551 35.1269 33.2359 34.1657C33.2407 34.0753 33.2549 34.004 33.2692 34.004V34.004ZM24.648 35.9833C24.6622 35.969 25.3236 36.1261 25.6804 36.2259C26.2228 36.3782 27.3742 36.7635 27.3742 36.7921C27.3742 36.7969 27.2458 36.9063 27.0936 37.0396C26.4703 37.5582 25.8708 38.1053 25.1523 38.7999C24.9382 39.0046 24.7574 39.1711 24.7479 39.1711C24.7384 39.1711 24.7337 39.1425 24.7384 39.1044C24.8478 38.3051 24.8241 37.2774 24.6718 36.2354C24.6575 36.1022 24.6432 35.988 24.648 35.9833V35.9833ZM38.5458 35.9976C38.5552 36.0071 38.2412 36.5019 38.0414 36.7826C37.756 37.1917 37.3372 37.7342 36.3903 38.9237C35.8909 39.5517 35.3293 40.2607 35.1439 40.4985C34.9535 40.7364 34.7965 40.9362 34.7917 40.9362C34.787 40.9362 34.7252 40.8506 34.6585 40.746C34.1256 39.9466 33.488 39.2472 32.7315 38.6192C32.5888 38.5002 32.4319 38.3717 32.3795 38.3336C32.3272 38.2956 32.2843 38.2575 32.2843 38.2528C32.2843 38.2386 33.0931 37.8912 33.707 37.6438C34.7823 37.206 36.2475 36.6827 37.3467 36.3449C37.9224 36.1641 38.5362 35.988 38.5458 35.9976V35.9976ZM38.9121 36.0927C38.9311 36.088 39.0453 36.1451 39.1833 36.2259C40.3395 36.8872 41.4718 37.7389 42.3663 38.6144C42.6185 38.8618 43.2418 39.5089 43.2322 39.5136C43.2322 39.5136 43.0133 39.5327 42.7565 39.5517C40.7534 39.704 38.1889 40.1274 35.7243 40.7221C35.5578 40.7601 35.4104 40.7934 35.4008 40.7934C35.3914 40.7934 35.5769 40.6079 35.81 40.3843C37.2564 38.9903 37.9178 38.1101 38.698 36.5399C38.8074 36.3068 38.9026 36.107 38.9121 36.0927C38.9073 36.0927 38.9073 36.0927 38.9121 36.0927V36.0927ZM28.3163 37.1776C28.3829 37.1918 29.0015 37.4821 29.4677 37.7152C29.8959 37.9292 30.5383 38.2718 30.5716 38.3003C30.5763 38.3051 30.3479 38.424 30.0673 38.562C29.1727 39.0093 28.4067 39.4327 27.6074 39.918C27.379 40.056 27.1887 40.1703 27.184 40.1703C27.1649 40.1703 27.1696 40.1511 27.2981 39.918C27.7264 39.1378 28.0689 38.2052 28.264 37.2964C28.283 37.2251 28.302 37.1776 28.3163 37.1776V37.1776ZM27.6977 37.2917C27.712 37.306 27.5503 37.8912 27.4504 38.21C27.2553 38.8142 26.927 39.5707 26.6083 40.1417C26.532 40.2748 26.4179 40.4699 26.356 40.5793L26.2371 40.7696L25.9707 40.5128C25.6614 40.213 25.4092 40.0275 25.0858 39.8609C24.9572 39.7944 24.8573 39.7372 24.8573 39.7277C24.8573 39.6897 25.6709 38.9522 26.2942 38.4193C26.7414 38.0339 27.6835 37.2774 27.6977 37.2917V37.2917ZM31.4803 38.8476L31.7135 38.9998C32.2463 39.3471 32.8743 39.8086 33.3549 40.213C33.626 40.4366 34.1494 40.9077 34.2542 41.0219L34.3112 41.0838L33.9259 41.1932C31.7467 41.7974 30.0624 42.335 28.0974 43.0583C27.8786 43.1391 27.693 43.2057 27.6787 43.2057C27.6502 43.2057 27.6264 43.2295 28.1165 42.7775C29.3726 41.6214 30.4859 40.3462 31.3138 39.1044L31.4803 38.8476V38.8476ZM30.4859 39.095C30.4954 39.1044 29.8436 40.0227 29.4534 40.5413C28.9871 41.1599 28.1593 42.197 27.5883 42.8726C27.3505 43.1534 27.1459 43.3865 27.1364 43.3913C27.1221 43.396 27.1173 43.3247 27.1173 43.2152C27.1173 42.6395 26.9699 42.0257 26.7129 41.5024C26.6035 41.2835 26.5844 41.2312 26.6083 41.2074C26.6987 41.1265 28.0832 40.3367 28.9586 39.8657C29.5486 39.5517 30.4715 39.0854 30.4859 39.095V39.095ZM24.4719 40.5699C24.4862 40.5699 24.5956 40.6269 24.7194 40.6936C25.0239 40.8601 25.2951 41.0457 25.5377 41.2455C25.5472 41.255 25.4235 41.355 25.2618 41.4738C24.8097 41.7974 24.1246 42.316 23.725 42.6348C23.3062 42.9679 23.2921 42.9774 23.3396 42.906C23.6536 42.4255 23.8106 42.1543 23.9772 41.807C24.1246 41.4977 24.2721 41.1314 24.3768 40.8126C24.4148 40.6746 24.4624 40.5699 24.4719 40.5699ZM26.0754 41.8259C26.0991 41.8213 26.1277 41.864 26.2561 42.0544C26.5273 42.4587 26.7367 43.0012 26.7891 43.4389L26.7985 43.5341L26.1468 43.7863C24.981 44.2382 23.9058 44.6855 23.1778 45.0185C22.9732 45.1137 22.6164 45.2849 22.3833 45.3992C22.1501 45.5181 21.9598 45.6085 21.9598 45.6038C21.9598 45.599 22.1073 45.4896 22.288 45.3563C23.7107 44.3239 24.943 43.1915 25.866 42.0591C25.9659 41.9401 26.0564 41.8307 26.0658 41.826L26.0754 41.8259V41.8259ZM25.3379 42.0068C25.357 42.0258 24.8146 42.6395 24.4434 43.0154C23.5252 43.9528 22.6164 44.6855 21.4888 45.3992C21.346 45.4896 21.2176 45.5704 21.2033 45.58C21.17 45.599 21.2128 45.5514 21.7076 45.0138C22.0217 44.6759 22.2595 44.3905 22.5307 44.0384C22.7115 43.8053 22.7448 43.772 23.0066 43.5864C23.706 43.082 25.3189 41.9877 25.3379 42.0068Z" fill="url(#paint2_radial_4_70)"/>
<path d="M64.544 37.4416C64.4117 37.4416 64.2794 37.4542 64.1483 37.4542C61.4767 37.5967 59.6748 38.7731 58.6213 41.0705C57.7202 43.1482 57.8186 45.8642 58.6314 47.9547C59.5765 49.9973 61.1038 51.0754 63.653 51.4826C64.1924 51.5709 64.5541 51.8672 65.5987 53.0877L66.8841 54.5945H69.2154L67.6653 53.0309C66.8084 52.1735 66.1153 51.427 66.1153 51.3614C66.1153 51.2959 66.4431 51.1522 66.8399 51.0312C68.1479 50.6351 69.2342 49.624 69.994 48.0744C70.609 46.83 70.6973 46.4453 70.7854 44.897C71.0161 40.2886 68.5877 37.4074 64.5439 37.4403L64.544 37.4416V37.4416ZM66.5879 49.4931C65.4538 50.0427 63.8069 50.1524 62.7319 49.7578C61.6205 49.3493 60.5443 48.1944 60.0603 46.8868C59.5223 45.457 59.5991 42.8193 60.2141 41.6315C61.2033 39.7402 62.5114 38.8702 64.423 38.8702C67.2583 38.8702 68.8713 40.6078 69.0818 43.8734C69.2481 46.5994 68.3357 48.6445 66.5891 49.4919L66.5879 49.4931V49.4931ZM106.86 41.3781C105.882 41.3781 105.133 41.7741 104.629 42.5544L104.233 43.1723V41.5659H102.541V51.199H104.232V48.1199C104.232 45.3044 104.267 44.9753 104.661 44.2048C105.203 43.1482 106.135 42.6214 107.036 42.8735L107.641 43.05V41.3806H106.86V41.3781V41.3781ZM96.9172 41.2897C96.5857 41.2897 96.234 41.3339 95.8839 41.4109C93.6193 42.0034 92.3428 44.1721 92.4209 46.4039C92.4209 48.2726 92.7837 49.2068 93.6849 50.1865C95.5311 51.7021 97.2007 51.8231 99.4538 51.0099C99.8382 50.846 100.257 50.6569 100.257 50.6569V49.1414L99.4538 49.5574C97.6304 50.3517 96.2568 50.3517 95.1566 49.4161C94.4549 48.7012 94.146 47.8438 94.0037 46.8655H100.827V45.5666C100.827 42.9188 99.2346 41.2469 96.9158 41.2897H96.9172ZM94.1574 45.5137C94.1574 45.5137 94.4095 43.862 95.3445 43.2139C95.7945 42.8961 96.311 42.7423 96.8163 42.7423C97.323 42.7423 97.8282 42.9062 98.2454 43.2253C99.1024 43.8847 99.246 45.5012 99.246 45.5012H94.1575V45.5137H94.1574ZM53.3576 43.7763C51.5229 42.6641 50.7088 41.8622 50.8084 40.9165C51.0931 38.3002 54.3242 38.6621 56.1135 39.652L56.1263 37.8918C56.1263 37.8918 55.137 37.4631 53.7193 37.4404C51.5443 37.4076 50.1379 38.1212 49.479 39.5737C48.5111 41.7172 49.3681 43.3336 52.4656 45.1368C54.2045 46.1492 54.9732 47.0281 54.9732 47.9863C54.9732 49.9659 52.5877 50.6569 50.1267 49.4149C49.6202 49.1627 49.1917 48.9521 49.1691 48.9521C49.0808 49.5132 49.1263 50.856 49.1263 50.856C49.1263 50.856 49.8824 51.1738 51.0164 51.393C53.829 51.9541 56.3884 50.634 56.6304 48.4905C56.8408 46.4783 56.1136 45.4228 53.3577 43.7749L53.3576 43.7763V43.7763ZM121.838 41.2671C121.508 41.2671 121.157 41.3125 120.792 41.3894C118.53 41.982 117.256 44.1508 117.343 46.3825C117.343 48.2487 117.704 49.1741 118.605 50.1525C120.452 51.6694 122.121 51.7916 124.386 50.9772C124.769 50.8133 125.186 50.6268 125.186 50.6268V49.1087L124.385 49.5272C122.557 50.3191 121.184 50.3191 120.088 49.3835C119.382 48.6699 119.076 47.8225 118.933 46.8327H125.746V45.534C125.746 42.8989 124.153 41.2256 121.834 41.2698L121.838 41.2671V41.2671ZM119.078 45.491C119.078 45.491 119.333 43.8418 120.266 43.181C120.715 42.8621 121.232 42.7082 121.737 42.7082C122.241 42.7082 122.749 42.8721 123.166 43.1924C124.023 43.8518 124.167 45.4796 124.167 45.4796H119.079L119.078 45.491V45.491ZM88.0583 43.7977C86.2236 42.6882 85.4119 41.8836 85.5103 40.9379C85.795 38.3203 89.0262 38.6835 90.8155 39.6733L90.8282 37.9132C90.8282 37.9132 89.8389 37.4845 88.4212 37.4642C86.2462 37.4315 84.8398 38.1452 84.1797 39.5976C83.2131 41.7411 84.0813 43.3576 87.1687 45.1607C88.9052 46.172 89.6739 47.0394 89.6739 47.9976C89.6739 49.9772 87.2897 50.6795 84.8286 49.4261C84.3245 49.174 83.8961 48.9659 83.8709 48.9659C83.7826 49.5269 83.8281 50.8698 83.8281 50.8698C83.8281 50.8698 84.5753 51.1763 85.7057 51.4069C88.5208 51.9693 91.0815 50.6504 91.3222 48.5069C91.5314 46.5046 90.8056 45.4493 88.0583 43.8V43.7977H88.0583ZM131.782 41.3554C130.804 41.3554 130.047 41.7525 129.551 42.533L129.155 43.1483V41.5445H127.463V51.175H129.154V48.0961C129.154 45.2818 129.188 44.9514 129.583 44.1823C130.125 43.127 131.057 42.5987 131.958 42.8521L132.563 43.0285V41.3554H131.782V41.3554ZM74.6 43.7422V37.6067H72.8938V51.1965H80.0691V49.5915H74.6V43.7422H74.6ZM114.058 45.6549L112.651 49.3165L111.299 45.6347L109.926 41.5546H108.179C109.311 44.7648 110.542 48.0304 111.783 51.1965C112.321 51.2091 112.86 51.1965 113.398 51.1965L115.298 46.4253L117.232 41.5558H115.562C115.562 41.5558 114.825 43.49 114.056 45.6562L114.058 45.6549V45.6549ZM78.5316 33.9035C78.8063 33.9035 79.0356 33.8154 79.2247 33.6262C79.4111 33.4395 79.5094 33.2202 79.5094 32.9453C79.5094 32.6704 79.4111 32.4409 79.2247 32.2644C79.0356 32.0879 78.8176 31.9995 78.5441 31.9995C78.267 31.9995 78.0376 32.0879 77.851 32.2744C77.6621 32.4611 77.5764 32.6906 77.5764 32.9554C77.5764 33.2328 77.6646 33.4622 77.851 33.6363C78.0275 33.8128 78.2569 33.9011 78.5316 33.9011V33.9035V33.9035ZM77.9268 32.3401C78.0905 32.1762 78.2897 32.1005 78.5442 32.1005C78.7837 32.1005 78.9828 32.1762 79.1492 32.3401C79.313 32.504 79.4012 32.7032 79.4012 32.9453C79.4012 33.1874 79.313 33.3967 79.1492 33.5606C78.9829 33.7244 78.7837 33.8026 78.5442 33.8026C78.301 33.8026 78.1031 33.727 77.9394 33.5606C77.7756 33.3967 77.6874 33.1874 77.6874 32.9453C77.6874 32.7032 77.763 32.5041 77.9268 32.3401ZM78.3337 33.0336H78.4446C78.5228 33.0336 78.5996 33.1092 78.6651 33.253L78.7975 33.5505H79.0054L78.8417 33.22C78.7749 33.0878 78.7094 33.0108 78.6325 32.9893C78.7295 32.9666 78.8063 32.9339 78.8618 32.8682C78.9171 32.8116 78.9374 32.7346 78.9374 32.6476C78.9374 32.5467 78.9059 32.4712 78.8392 32.4156C78.7635 32.3526 78.6425 32.3186 78.4862 32.3186H78.136V33.5505H78.3124V33.0335L78.3337 33.0336V33.0336ZM78.3337 32.4611H78.4875C78.5984 32.4611 78.6766 32.4838 78.7194 32.5166C78.761 32.5494 78.7723 32.5923 78.7723 32.6704C78.7723 32.8129 78.684 32.8798 78.5203 32.8798H78.3313V32.4611H78.3337V32.4611ZM50.1492 32.9239C50.1492 32.4952 50.1367 32.1762 50.1265 31.9883H50.1367C50.1807 32.2101 50.2349 32.3754 50.279 32.485L51.9172 36.1466H52.1919L53.83 32.4523C53.8743 32.3515 53.9184 32.2001 53.9725 31.9895H53.9851C53.9524 32.3553 53.941 32.673 53.941 32.9264V36.158H54.5017V31.3541H53.7985L52.2927 34.6954C52.2372 34.8277 52.1603 35.0258 52.0621 35.288H52.0393C52.0066 35.1581 51.9297 34.9602 51.8201 34.7181L50.3482 31.3426H49.601V36.1465H50.1403V32.9262L50.1492 32.9239V32.9239ZM55.7304 32.9328H56.2144V35.9248H55.7304V32.9328V32.9328ZM55.9724 31.8358C56.0733 31.8358 56.1589 31.8016 56.2244 31.7349C56.2912 31.6693 56.3354 31.5836 56.3354 31.4828C56.3354 31.3844 56.3026 31.2961 56.2257 31.2306C56.1577 31.1637 56.0707 31.1296 55.9712 31.1296C55.873 31.1296 55.7847 31.1637 55.7191 31.2306C55.6525 31.2961 55.6083 31.3844 55.6083 31.4828C55.6083 31.5925 55.6423 31.6693 55.7191 31.7349C55.7949 31.8016 55.8729 31.8358 55.9712 31.8358H55.9724ZM59.6647 35.9904V35.4633C59.4 35.6613 59.1152 35.7597 58.8204 35.7597C58.4676 35.7597 58.1814 35.6387 57.9722 35.4068C57.7644 35.1773 57.6535 34.8581 57.6535 34.461C57.6535 34.0449 57.7644 33.7144 57.9937 33.4623C58.2142 33.2202 58.5003 33.0992 58.8507 33.0992C59.1367 33.0992 59.4113 33.1875 59.6648 33.3641V32.803C59.4342 32.682 59.1708 32.6265 58.8734 32.6265C58.3239 32.6265 57.8955 32.803 57.5755 33.1436C57.2578 33.484 57.094 33.9467 57.094 34.5053C57.094 35.002 57.2364 35.4194 57.5326 35.7385C57.8413 36.0662 58.2359 36.2327 58.7197 36.2327C59.0938 36.2223 59.4 36.1441 59.6647 35.9904V35.9904ZM61.0495 34.3954C61.0495 34.0007 61.1377 33.6818 61.3015 33.4622C61.4554 33.2643 61.6418 33.1647 61.8623 33.1647C62.0488 33.1647 62.1811 33.1988 62.2781 33.2757V32.7032C62.2025 32.6705 62.0929 32.6591 61.9505 32.6591C61.7527 32.6591 61.5764 32.7258 61.4213 32.8483C61.2575 32.978 61.1265 33.1761 61.0496 33.4283H61.037V32.7259H60.4889V36.1555H61.0383V34.3954H61.0495V34.3954ZM64.2037 36.2236C64.7204 36.2236 65.1362 36.0571 65.4449 35.7268C65.7523 35.3989 65.9061 34.9577 65.9061 34.4078C65.9061 33.8469 65.7651 33.4181 65.4777 33.099C65.193 32.7802 64.7972 32.6262 64.2805 32.6262C63.7637 32.6262 63.3479 32.7801 63.0392 33.0776C62.7091 33.4056 62.5352 33.8683 62.5352 34.4622C62.5352 34.9791 62.6763 35.4079 62.9738 35.7268C63.2812 36.0571 63.6883 36.2223 64.2037 36.2223V36.2236V36.2236ZM63.4224 33.4295C63.6316 33.2088 63.9064 33.099 64.2465 33.099C64.5995 33.099 64.8641 33.2088 65.0606 33.4295C65.2584 33.6602 65.3568 33.9894 65.3568 34.4294C65.3568 34.8479 65.2686 35.177 65.082 35.3977C64.8956 35.6285 64.6209 35.7507 64.2578 35.7507C63.9051 35.7507 63.6316 35.6284 63.4224 35.3977C63.2145 35.1657 63.1149 34.8479 63.1149 34.4294C63.0936 34.0133 63.2032 33.6729 63.4224 33.4295ZM68.3119 35.9248C68.521 35.7382 68.632 35.5087 68.632 35.2211C68.632 34.9689 68.5437 34.7597 68.3799 34.5945C68.2462 34.4622 68.0397 34.3423 67.741 34.2213C67.4763 34.1105 67.3125 34.012 67.2243 33.935C67.1361 33.8468 67.0819 33.7372 67.0819 33.582C67.0819 33.4396 67.1374 33.3299 67.2458 33.2416C67.3567 33.1535 67.4978 33.1106 67.6869 33.1106C67.983 33.1106 68.2362 33.1887 68.4681 33.3539V32.8041C68.2463 32.6933 68.0056 32.6403 67.7309 32.6403C67.3781 32.6403 67.0807 32.7375 66.8613 32.9252C66.6307 33.112 66.5211 33.354 66.5211 33.6388C66.5211 33.891 66.5967 34.1004 66.7403 34.2541C66.8612 34.3853 67.0681 34.519 67.3552 34.6387C67.63 34.7598 67.8165 34.8694 67.916 34.9576C68.0143 35.046 68.0584 35.1556 68.0584 35.2856C68.0584 35.6057 67.8392 35.771 67.4107 35.771C67.0805 35.771 66.7845 35.6625 66.5197 35.4432V36.0356C66.7591 36.1796 67.0465 36.245 67.364 36.245C67.7711 36.2236 68.0898 36.124 68.3091 35.926L68.3119 35.9248V35.9248ZM70.9279 32.6263C70.4111 32.6263 69.9954 32.7802 69.6866 33.0777C69.359 33.4057 69.1826 33.8684 69.1826 34.4623C69.1826 34.9792 69.3251 35.408 69.6211 35.727C69.9299 36.0572 70.3356 36.2224 70.8523 36.2224C71.3815 36.2224 71.7849 36.0561 72.0935 35.7256C72.4023 35.3978 72.556 34.9565 72.556 34.4067C72.556 33.8456 72.4123 33.417 72.1275 33.0979C71.8302 32.7789 71.4344 32.6251 70.9304 32.6251L70.9279 32.6263V32.6263ZM71.9939 34.4294C71.9939 34.8479 71.9057 35.1771 71.7193 35.3978C71.5327 35.6285 71.258 35.7507 70.895 35.7507C70.5421 35.7507 70.2687 35.6284 70.0595 35.3978C69.8516 35.1658 69.7521 34.8479 69.7521 34.4294C69.7521 33.9881 69.8618 33.6477 70.0823 33.4181C70.2901 33.1988 70.565 33.0878 70.9064 33.0878C71.2466 33.0878 71.5201 33.1986 71.7179 33.4181C71.8943 33.6602 71.9927 33.9893 71.9927 34.4294H71.9939V34.4294ZM73.4785 36.1454H74.0266V33.1761H74.8293V32.7146H74.0266V32.185C74.0266 31.7035 74.213 31.4614 74.5987 31.4614C74.7285 31.4614 74.8608 31.4941 74.9591 31.5496V31.0542C74.8608 31.0101 74.7285 31 74.5633 31C74.2672 31 74.0253 31.0883 73.8274 31.2748C73.5967 31.4942 73.4746 31.7792 73.4746 32.1651V32.7275H72.8948V33.1889H73.4746V36.1471L73.4785 36.1454V36.1454ZM75.7303 35.2098C75.7303 35.8807 76.0265 36.2223 76.6313 36.2223C76.8506 36.2223 77.0157 36.1871 77.148 36.1089V35.6374C77.0472 35.7131 76.9274 35.7484 76.7952 35.7484C76.6088 35.7484 76.4777 35.7041 76.4007 35.6045C76.3226 35.5063 76.2785 35.3397 76.2785 35.1102V33.1749H77.1479V32.7133H76.2785V31.7022C76.0895 31.7677 75.9043 31.8233 75.729 31.8786V32.7133H75.1368V33.1748H75.729V35.2086L75.7303 35.2098V35.2098ZM134.705 41.5318C134.519 41.3554 134.298 41.2671 134.025 41.2671C133.748 41.2671 133.518 41.3554 133.332 41.5445C133.145 41.7298 133.057 41.9605 133.057 42.2254C133.057 42.5003 133.145 42.7298 133.33 42.9062C133.517 43.0827 133.746 43.1711 134.023 43.1711C134.297 43.1711 134.527 43.0827 134.716 42.8961C134.902 42.707 135 42.4889 135 42.2153C134.99 41.9379 134.89 41.7084 134.704 41.5319L134.705 41.5318V41.5318ZM134.617 42.8306C134.453 42.9945 134.254 43.0701 134.012 43.0701C133.773 43.0701 133.574 42.9945 133.407 42.8306C133.244 42.6641 133.155 42.4561 133.155 42.2127C133.155 41.9731 133.231 41.774 133.397 41.6076C133.561 41.4438 133.759 41.3679 134.012 41.3679C134.252 41.3679 134.451 41.4438 134.617 41.6076C134.781 41.774 134.869 41.9731 134.869 42.2127C134.869 42.4675 134.793 42.6641 134.617 42.8306V42.8306ZM134.123 42.2695C134.221 42.2468 134.299 42.2027 134.354 42.1485C134.409 42.0917 134.429 42.0147 134.429 41.9267C134.429 41.8283 134.398 41.7501 134.331 41.6959C134.255 41.6328 134.133 41.5987 133.978 41.5987H133.628V42.8293H133.804V42.3123H133.914C133.99 42.3123 134.065 42.3879 134.133 42.5317L134.264 42.828H134.474L134.31 42.4976C134.253 42.3538 134.187 42.2882 134.121 42.2667L134.123 42.2695V42.2695ZM134.002 42.1586H133.813V41.7426H133.968C134.078 41.7426 134.154 41.7626 134.199 41.7968C134.243 41.8295 134.253 41.8724 134.253 41.9506C134.253 42.0931 134.165 42.1587 134.001 42.1587L134.002 42.1586ZM103.344 32.5721H103.498V31.3403H103.905V31.1864H102.937V31.3403H103.344V32.5721H103.344V32.5721ZM104.276 31.6467C104.276 31.5268 104.276 31.4285 104.268 31.3731C104.278 31.4386 104.3 31.4828 104.31 31.5156L104.783 32.5721H104.859L105.332 31.5054C105.345 31.4726 105.355 31.4297 105.377 31.3731C105.366 31.4828 105.366 31.5709 105.366 31.6378V32.5709H105.53V31.1864H105.332L104.904 32.1422C104.894 32.1763 104.86 32.243 104.838 32.3188H104.826C104.817 32.2745 104.794 32.2304 104.763 32.1549L104.334 31.1865H104.113V32.5735H104.268V31.648L104.276 31.6467V31.6467Z" fill="#231F1F"/>
<defs>
<linearGradient id="paint0_linear_4_70" x1="19.7357" y1="55.3229" x2="22.0119" y2="53.978" gradientUnits="userSpaceOnUse">
<stop stop-color="#909CA9"/>
<stop offset="1" stop-color="#EDEDEE"/>
</linearGradient>
<linearGradient id="paint1_linear_4_70" x1="19.7879" y1="29.967" x2="21.6193" y2="29.967" gradientUnits="userSpaceOnUse">
<stop stop-color="#939FAB"/>
<stop offset="1" stop-color="#DCDEE1"/>
</linearGradient>
<radialGradient id="paint2_radial_4_70" cx="0" cy="0" r="1" gradientUnits="userSpaceOnUse" gradientTransform="translate(29.0294 38.3667) rotate(-171.457) scale(2.36125 4.72367)">
<stop stop-color="#EE352C"/>
<stop offset="1" stop-color="#A91D22"/>
</radialGradient>
</defs>
</svg>
