<svg width="150" height="85" viewBox="0 0 150 85" fill="none" xmlns="http://www.w3.org/2000/svg">
<path fill-rule="evenodd" clip-rule="evenodd" d="M89.9904 11.4583L107.538 21.385L107.73 28.3017L96.0745 22.6018L95.9464 27.5331L102.223 30.4791L102.479 37.8441L96.3947 35.5386L96.843 47.2585L90.0544 43.608L89.9904 11.4583Z" fill="#A5AAAA" fill-opacity="0.392157"/>
<path fill-rule="evenodd" clip-rule="evenodd" d="M43.948 23.9115L66.5739 11L67.0657 17.5787L59.9951 21.6981L60.3641 47.1522L54.2772 50.3493L53.232 25.8175L44.5628 30.7976L44.0095 24.1574L43.948 23.9115Z" fill="#A5AAAA" fill-opacity="0.392157"/>
<path d="M73.5215 40.6913L78.3194 37.916L83.0488 40.6913L78.3194 43.4223L73.5215 40.7565V40.6913Z" fill="#F6BD3A"/>
<path d="M59.1235 32.465L78.3194 21.5623L92.6028 29.6818L87.8547 37.9156L78.3194 32.465L63.9248 40.6359L59.1235 32.465Z" fill="#F6BD3A"/>
<path d="M73.5216 51.5942V46.1591L78.2539 43.4222L83.0488 40.6912V46.1591L78.3194 48.8755V54.314L73.5216 57.1004V51.5942ZM73.5216 40.6912L68.7255 37.9739L63.9247 40.6357V35.1897L78.3194 27.0127V37.9155L73.5216 40.6912ZM87.7891 35.1899V32.4651L92.6027 29.6819L92.6508 35.1327L87.8546 37.9157L87.7891 35.1899Z" fill="#EB8C23"/>
<path d="M68.7256 54.2134V37.9739L73.4561 35.3129L73.5216 40.6912L78.3194 43.3729V48.8755L73.5216 46.3217V57.1004L68.7256 54.2134ZM61.4896 39.2183L59.1235 37.8017V32.4654L63.9248 35.1902V40.6362L61.4896 39.2183ZM78.3194 32.4651V27.0129L87.7892 32.4651L87.8547 37.9157L78.3194 32.4651Z" fill="#E35A2B"/>
<path d="M42.3842 62.8404V73.2343H40.5555V62.8404H37V61.0457H45.9399V62.8404H42.3842Z" fill="#EF6639"/>
<path d="M51.9931 66.6237C52.1528 67.1738 52.1573 67.9221 52.1412 67.9958L46.2367 69.7567C46.2871 70.1953 46.2679 70.0179 46.4105 70.3238C46.5535 70.6435 46.7227 70.9154 46.9344 71.1104C47.1438 71.3049 47.3794 71.4571 47.6325 71.5654C47.8857 71.6642 48.1617 71.7139 48.4313 71.7127C48.8126 71.7127 49.1702 71.6532 49.4825 71.5143C49.8104 71.3852 50.1154 71.2148 50.4148 70.9875L51.4832 72.1185C51.0785 72.5053 50.6235 72.8004 50.1186 73.011C49.6287 73.2342 49.03 73.323 48.3238 73.323C47.7956 73.323 47.2831 73.234 46.8028 73.011C46.3222 72.8004 45.8973 72.4891 45.5429 72.0998C45.1764 71.6797 44.8945 71.1904 44.6894 70.6002C44.4734 70.0104 44.3717 69.3362 44.3717 68.578C44.3717 67.7873 44.465 67.0976 44.6668 66.5069C44.8687 65.9166 45.1383 65.431 45.4843 65.0214C45.8378 64.623 46.2609 64.3155 46.7478 64.113C47.2411 63.8988 47.7922 63.7932 48.3824 63.7932C49.03 63.7932 49.5922 63.9193 50.0777 64.1611C50.5647 64.4079 50.965 64.7368 51.2772 65.1576C51.6049 65.5786 51.8367 66.0521 51.9931 66.6237V66.6237ZM50.2787 67.0246C50.2611 66.7245 50.0406 66.3459 49.8572 66.1014C49.7028 65.8842 49.4633 65.6963 49.2117 65.6016C48.9424 65.4974 48.5804 65.4507 48.2561 65.4675C47.6565 65.491 46.9923 65.691 46.6557 66.1593C46.319 66.6278 46.2235 67.3971 46.2365 68.2327L50.2787 67.0246ZM58.6281 73.1451V67.9636C58.6281 67.0242 58.4591 66.3801 58.127 66.0092C57.7984 65.6384 57.3365 65.452 56.741 65.452C56.1391 65.452 55.6789 65.6616 55.3543 66.0523C55.0222 66.4724 54.8671 67.0376 54.8671 67.7796V73.1451H53.071V63.9871H54.8671V64.8629C55.0916 64.5258 55.4218 64.2647 55.8346 64.0792C56.2475 63.8938 56.6899 63.7932 57.1623 63.7932C58.2347 63.7932 59.0451 64.1385 59.5931 64.8289C60.1439 65.509 60.4229 66.5317 60.4229 67.8959V73.1451H58.6281ZM67.7959 70.7354C67.7959 71.2415 67.7024 71.6642 67.5133 72.02C67.3197 72.3498 67.0654 72.6358 66.7513 72.8499C66.4316 73.0527 66.073 73.2041 65.6602 73.3045C65.2474 73.3843 64.8204 73.44 64.3666 73.44C63.7361 73.44 63.1076 73.3148 62.492 73.0956C61.8652 72.8764 61.3254 72.6059 60.8542 72.2631L61.6773 70.9161C62.1088 71.2155 62.5515 71.4386 63.0145 71.5882C63.4734 71.7378 63.92 71.814 64.3421 71.814C65.4577 71.814 66.0181 71.4771 66.0181 70.8029C66.0181 70.4647 65.8319 70.1675 65.4574 69.9609C65.0788 69.7581 64.5593 69.5225 63.8874 69.2696C63.399 69.0842 62.9881 68.8942 62.6505 68.7012C62.307 68.5213 62.021 68.2955 61.81 68.074C61.5988 67.855 61.4433 67.6231 61.3429 67.3369C61.2579 67.0743 61.2077 66.7509 61.2077 66.3963C61.2077 65.9768 61.2836 65.6219 61.4351 65.3177C61.5824 65.0034 61.8023 64.7313 62.0835 64.534C62.354 64.3157 62.6888 64.1616 63.0702 64.0546C63.4574 63.9531 63.8782 63.899 64.3333 63.899C64.9069 63.899 65.4673 63.9951 66.0142 64.1803C66.5458 64.3657 67.0294 64.6104 67.4342 64.9097L66.6505 66.2795C66.2797 66.0252 65.9006 65.8265 65.5136 65.6908C65.1263 65.5706 64.7135 65.5093 64.2749 65.5093C63.8365 65.5093 63.5122 65.5854 63.3224 65.7453C63.1206 65.9011 63.025 66.1011 63.025 66.35C63.025 66.4553 63.0448 66.5746 63.095 66.654C63.1381 66.7628 63.2221 66.8741 63.3562 66.9614C63.475 67.0784 63.6554 67.174 63.8662 67.2933C64.0771 67.3971 64.367 67.533 64.7096 67.6683C65.2266 67.8548 65.6732 68.0599 66.0566 68.2222C66.432 68.4143 66.7641 68.6086 67.0255 68.836C67.2866 69.0636 67.4787 69.343 67.6032 69.6423C67.7366 69.9415 67.7959 70.313 67.7959 70.7354V70.7354ZM76.1463 68.6207C76.1463 69.3788 76.045 70.0571 75.8267 70.6551C75.6238 71.2536 75.3362 71.7515 74.9619 72.1796C74.5876 72.5772 74.1497 72.8969 73.6514 73.1074C73.1553 73.3186 72.6036 73.4397 72.0099 73.4397C71.4363 73.4397 70.8975 73.3111 70.4088 73.0846C69.9202 72.8613 69.4985 72.5546 69.1363 72.1183C68.7819 71.7125 68.492 71.2151 68.2972 70.6184C68.0874 70.0446 67.99 69.4035 67.99 68.6706C67.99 67.9228 68.0915 67.2563 68.3011 66.6663C68.5125 66.0763 68.7954 65.5825 69.161 65.1697C69.5352 64.7566 69.9579 64.4373 70.4548 64.2261C70.9516 64.0115 71.481 63.8986 72.068 63.8986C72.6419 63.8986 73.1888 64.0113 73.6894 64.2361C74.1759 64.4601 74.6241 64.7906 74.9877 65.1911C75.3501 65.6007 75.6352 66.0966 75.8388 66.6784C76.0459 67.2604 76.1463 67.9223 76.1463 68.6207ZM74.3269 68.6706C74.3269 67.7358 74.1283 66.9902 73.7154 66.4266C73.3024 65.894 72.7258 65.6064 72.0005 65.6064C71.3101 65.6064 70.7707 65.894 70.3871 66.4266C69.9918 66.9902 69.798 67.7114 69.798 68.6207C69.798 69.6423 70.0121 70.3949 70.433 70.9256C70.8458 71.4562 71.4025 71.7367 72.0797 71.7367C72.4172 71.7367 72.7258 71.6532 73.0118 71.4851C73.2823 71.317 73.5261 71.1017 73.7262 70.8392C73.9143 70.5468 74.0658 70.2407 74.1752 69.8678C74.2838 69.4924 74.3269 69.1003 74.3269 68.6706V68.6706ZM81.9376 65.9844C81.7335 65.9002 81.5337 65.8144 81.323 65.7515C81.1143 65.6881 80.8563 65.6628 80.5532 65.6628C79.9805 65.6628 79.5421 65.8573 79.2274 66.2608C78.9181 66.6494 78.7585 67.2463 78.7585 68.0063V73.2345H76.9635V64.0879H78.7585V64.9639C78.9644 64.6606 79.2591 64.4118 79.6217 64.2017C79.9844 64.0069 80.3931 63.8988 80.8479 63.8988C81.2185 63.8988 81.5262 63.9367 81.77 63.9987C82.0095 64.0582 82.2209 64.1611 82.3926 64.2813L81.9376 65.9844Z" fill="#EF6639"/>
<path d="M84.9352 62.8404V66.0332H88.4497V67.828H84.9352V73.2343H83.1223V61.0454H90.9836V62.8404H84.9352ZM91.2799 73.2346V61.476L93.0749 60.5325V73.2343H91.2799V73.2346ZM102.226 68.6208C102.226 69.3789 102.14 70.0572 101.92 70.6552C101.704 71.2537 101.417 71.7516 101.046 72.1797C100.675 72.5772 100.245 72.897 99.7521 73.1075C99.2348 73.3187 98.7043 73.4398 98.1056 73.4398C97.516 73.4398 96.9809 73.3112 96.5042 73.0847C96.0102 72.8614 95.5862 72.5547 95.2318 72.1183C94.8771 71.7126 94.5863 71.2152 94.3772 70.6185C94.1826 70.0447 94.0702 69.4035 94.0702 68.6707C94.0702 67.9229 94.1867 67.2564 94.3895 66.6664C94.5923 66.0763 94.8856 65.5826 95.2617 65.1697C95.6312 64.7567 96.0529 64.4374 96.5346 64.2262C97.0466 64.0116 97.5796 63.8987 98.1635 63.8987C98.7373 63.8987 99.2843 64.0113 99.7735 64.2362C100.274 64.4602 100.723 64.7907 101.083 65.1912C101.445 65.6008 101.724 66.0966 101.92 66.6785C102.144 67.2605 102.226 67.9224 102.226 68.6208ZM100.424 68.6707C100.424 67.7358 100.208 66.9903 99.8107 66.4267C99.3826 65.8941 98.8215 65.6065 98.0962 65.6065C97.4056 65.6065 96.8625 65.8941 96.4673 66.4267C96.083 66.9903 95.8891 67.7114 95.8891 68.6208C95.8891 69.6423 96.0923 70.395 96.5286 70.9257C96.9344 71.4562 97.498 71.7368 98.1785 71.7368C98.5097 71.7368 98.8213 71.6533 99.092 71.4852C99.376 71.3171 99.6061 71.1018 99.823 70.8393C100.01 70.5469 100.161 70.2408 100.274 69.8679C100.364 69.4925 100.424 69.1004 100.424 68.6707V68.6707ZM111.089 73.2346H109.554L108.317 68.6208C108.214 68.2725 108.134 67.9219 108.057 67.5468C107.967 67.1766 107.904 66.8856 107.838 66.6664C107.779 66.9624 107.716 67.2576 107.648 67.5516C107.559 67.9224 107.462 68.293 107.386 68.6456L106.16 73.2346H104.615L102.116 64.088H103.886L104.98 68.5289C105.064 68.894 105.147 69.2694 105.226 69.6423C105.31 70.0178 105.369 70.3172 105.435 70.5405L105.662 69.6423C105.74 69.2694 105.832 68.894 105.933 68.5289L107.16 64.088H108.588L109.842 68.5533C109.931 68.9104 110.008 69.2699 110.1 69.6421C110.192 70.0175 110.264 70.317 110.315 70.5403C110.38 70.317 110.453 70.0139 110.529 69.635C110.602 69.2692 110.679 68.8938 110.77 68.5286L111.864 64.0877H113.634L111.089 73.2346Z" fill="#A6A7A9"/>
</svg>
