<svg width="150" height="85" viewBox="0 0 150 85" fill="none" xmlns="http://www.w3.org/2000/svg">
<path d="M37.4644 32.2145H32.2762V48.2854H30.1566V32.2145H25V30.3164H37.4644V32.2145ZM47.2398 35.4413L41.3239 50.3417C40.28 52.9991 38.7931 54.3277 36.895 54.3277C36.3572 54.3277 35.9143 54.2645 35.5663 54.1696V52.3347C36.0092 52.4929 36.4204 52.5562 36.7684 52.5562C37.8124 52.5562 38.5717 51.9234 39.1095 50.6897L40.1218 48.2537L35.1234 35.4413H37.4011L40.881 45.3116C40.9127 45.4382 41.0076 45.7545 41.1341 46.2923H41.1974C41.229 46.1025 41.3239 45.7861 41.4505 45.3432L45.0886 35.4413H47.2398ZM50.5932 46.4189H50.5299V54.1696H48.4736V35.4413H50.5299V37.6874H50.5932C51.6055 35.9791 53.0924 35.125 55.0221 35.125C56.6672 35.125 57.9643 35.6944 58.8817 36.8333C59.7991 37.9722 60.2736 39.5223 60.2736 41.4521C60.2736 43.6033 59.7358 45.3116 58.6919 46.6087C57.6479 47.9057 56.2243 48.5384 54.4211 48.5384C52.8077 48.6017 51.5106 47.8741 50.5932 46.4189ZM50.5615 41.2623V43.0655C50.5615 44.1411 50.9095 45.0269 51.6055 45.7545C52.3015 46.4821 53.1556 46.8618 54.2313 46.8618C55.465 46.8618 56.4457 46.3872 57.1734 45.4382C57.8693 44.4891 58.2173 43.1604 58.2173 41.4521C58.2173 40.0285 57.901 38.8896 57.2366 38.0987C56.5723 37.2762 55.6865 36.8966 54.5476 36.8966C53.3455 36.8966 52.3964 37.3078 51.6688 38.1303C50.9095 38.9529 50.5615 39.9968 50.5615 41.2623ZM72.8646 42.3695H63.8168C63.8485 43.7931 64.2281 44.9003 64.9557 45.6912C65.6833 46.4821 66.6957 46.8618 67.9927 46.8618C69.448 46.8618 70.7767 46.3872 71.9788 45.4382V47.3679C70.8399 48.1904 69.3531 48.6017 67.5182 48.6017C65.715 48.6017 64.2914 48.0323 63.2474 46.8618C62.2034 45.6912 61.6972 44.0462 61.6972 41.9582C61.6972 39.9652 62.2667 38.3202 63.4056 37.0864C64.5444 35.8209 65.9364 35.1882 67.6131 35.1882C69.2898 35.1882 70.5868 35.726 71.5043 36.8333C72.4217 37.9089 72.8962 39.4274 72.8962 41.3572L72.8646 42.3695ZM70.745 40.6295C70.745 39.4274 70.4603 38.51 69.8909 37.8456C69.3214 37.1813 68.5305 36.8649 67.5498 36.8649C66.5691 36.8649 65.7466 37.2129 65.0823 37.9089C64.4179 38.6049 63.975 39.5223 63.8168 40.6295H70.745ZM73.8769 47.6526V46.229C75.174 47.0516 76.4711 47.4628 77.7997 47.4628C79.1917 47.4628 80.2673 47.1781 80.9949 46.577C81.7226 45.976 82.0705 45.1851 82.0705 44.1411C82.0705 43.2237 81.8175 42.496 81.3429 41.9266C80.8684 41.3888 79.7928 40.6295 78.1794 39.6805C76.3445 38.6049 75.2056 37.7191 74.7311 37.0231C74.2566 36.2955 74.0035 35.473 74.0035 34.5555C74.0035 33.2901 74.5096 32.2145 75.4903 31.3287C76.4711 30.4429 77.7997 30 79.4448 30C80.5204 30 81.596 30.1898 82.64 30.5378V31.8349C81.596 31.3603 80.4571 31.1072 79.255 31.1072C78.0212 31.1072 77.0721 31.4236 76.3445 32.0247C75.6169 32.6574 75.2689 33.4166 75.2689 34.3657C75.2689 35.2831 75.522 36.0108 75.9965 36.5486C76.4711 37.0864 77.5467 37.8456 79.1601 38.763C80.8368 39.7121 81.944 40.5663 82.5134 41.2939C83.0829 42.0215 83.336 42.8757 83.336 43.8564C83.336 45.2483 82.8614 46.3556 81.9124 47.2414C80.9633 48.1272 79.603 48.5384 77.863 48.5384C77.2303 48.5384 76.5343 48.4435 75.7118 48.2537C74.8893 48.0639 74.2882 47.9057 73.8769 47.6526ZM94.0288 47.7159C93.0797 48.2854 91.9408 48.6017 90.6121 48.6017C88.8722 48.6017 87.4486 48.0006 86.373 46.7985C85.2974 45.5963 84.7596 44.0462 84.7596 42.0848C84.7596 40.0601 85.3606 38.3834 86.5628 37.0864C87.7649 35.7893 89.3151 35.125 91.2132 35.125C92.1939 35.125 93.143 35.3148 94.0604 35.726V37.0231C93.143 36.4537 92.1307 36.1689 91.055 36.1689C89.5365 36.1689 88.3344 36.7067 87.3853 37.7823C86.4363 38.858 85.9934 40.2816 85.9934 41.9899C85.9934 43.6666 86.4363 44.9953 87.2904 46.0076C88.1446 47.0199 89.2835 47.5261 90.6754 47.5261C91.9725 47.5261 93.0797 47.1781 94.0288 46.5138V47.7159ZM101.685 36.6435C101.305 36.3587 100.862 36.2322 100.324 36.2322C99.3119 36.2322 98.4578 36.77 97.7934 37.814C97.0974 38.858 96.7811 40.3448 96.7811 42.2746V48.317H95.6422V35.4413H96.7811V38.2885H96.8444C97.1291 37.3078 97.6036 36.5486 98.2363 36.0108C98.869 35.473 99.5966 35.1882 100.451 35.1882C100.925 35.1882 101.368 35.2515 101.716 35.4097V36.6435H101.685ZM103.519 32.2145C103.266 32.2145 103.045 32.1196 102.855 31.9298C102.665 31.74 102.57 31.5185 102.57 31.2338C102.57 30.9491 102.665 30.7276 102.855 30.5694C103.045 30.4113 103.266 30.3164 103.519 30.3164C103.773 30.3164 103.994 30.4113 104.215 30.5694C104.405 30.7276 104.5 30.9491 104.5 31.2338C104.5 31.4869 104.405 31.74 104.215 31.9298C103.994 32.1196 103.773 32.2145 103.519 32.2145ZM102.95 48.2854V35.4413H104.089V48.2854H102.95ZM108.043 46.0076H107.98V54.2012H106.841V35.4413H107.98V38.0987H108.043C108.518 37.1496 109.151 36.422 110.005 35.9158C110.859 35.4097 111.808 35.1566 112.82 35.1566C114.465 35.1566 115.731 35.726 116.648 36.8333C117.566 37.9722 118.009 39.4907 118.009 41.4204C118.009 43.5717 117.471 45.3116 116.427 46.6403C115.383 47.969 113.991 48.6333 112.283 48.6333C110.384 48.6017 108.961 47.7475 108.043 46.0076ZM107.98 41.2306V42.844C107.98 44.1411 108.391 45.2483 109.182 46.1658C110.005 47.0832 111.049 47.5577 112.377 47.5577C113.674 47.5577 114.75 46.9883 115.573 45.881C116.395 44.7422 116.806 43.2869 116.806 41.4521C116.806 39.8387 116.427 38.5732 115.668 37.6242C114.908 36.6751 113.928 36.2006 112.662 36.2006C111.175 36.2006 110.005 36.7067 109.182 37.7191C108.36 38.7314 107.98 39.8703 107.98 41.2306ZM125 48.0955C124.399 48.3803 123.829 48.5068 123.323 48.5068C121.425 48.5068 120.476 47.3679 120.476 45.0902V36.5169H118.167V35.473H120.476V32.1196L121.046 31.9298L121.615 31.74V35.473H125V36.5169H121.615V44.9953C121.615 45.8811 121.742 46.5138 122.026 46.925C122.311 47.3363 122.786 47.5261 123.45 47.5261C123.924 47.5261 124.431 47.3679 125 47.0516V48.0955Z" fill="#007ACC"/>
</svg>
