<svg width="63" height="50" viewBox="0 0 63 50" fill="none" xmlns="http://www.w3.org/2000/svg">
<path d="M50.1797 18.7044L49.3762 20.1056C49.0823 20.6249 48.4552 20.8405 47.8966 20.6347C46.7404 20.2036 45.6822 19.5863 44.7513 18.8122C44.3005 18.4398 44.183 17.7833 44.4769 17.2738L45.2804 15.8726C44.6043 15.0887 44.0752 14.1774 43.7224 13.1877H42.1056C41.5177 13.1877 41.0082 12.7664 40.9102 12.1785C40.7142 11.0027 40.7044 9.76802 40.9102 8.5432C41.0082 7.95528 41.5177 7.52414 42.1056 7.52414H43.7224C44.0752 6.53448 44.6043 5.6232 45.2804 4.83931L44.4769 3.43811C44.183 2.92858 44.2907 2.27207 44.7513 1.89972C45.6822 1.12563 46.7502 0.508316 47.8966 0.0771757C48.4552 -0.128596 49.0823 0.0869743 49.3762 0.606302L50.1797 2.00751C51.2086 1.82133 52.257 1.82133 53.2859 2.00751L54.0894 0.606302C54.3833 0.0869743 55.0104 -0.128596 55.569 0.0771757C56.7252 0.508316 57.7835 1.12563 58.7143 1.89972C59.1651 2.27207 59.2827 2.92858 58.9887 3.43811L58.1852 4.83931C58.8613 5.6232 59.3904 6.53448 59.7432 7.52414H61.36C61.9479 7.52414 62.4574 7.94548 62.5554 8.5334C62.7514 9.70923 62.7612 10.9439 62.5554 12.1687C62.4574 12.7566 61.9479 13.1877 61.36 13.1877H59.7432C59.3904 14.1774 58.8613 15.0887 58.1852 15.8726L58.9887 17.2738C59.2827 17.7833 59.1749 18.4398 58.7143 18.8122C57.7835 19.5863 56.7154 20.2036 55.569 20.6347C55.0104 20.8405 54.3833 20.6249 54.0894 20.1056L53.2859 18.7044C52.2668 18.8906 51.2086 18.8906 50.1797 18.7044ZM49.1509 12.9428C52.9233 15.8432 57.2249 11.5416 54.3245 7.7691C50.5521 4.85891 46.2505 9.17031 49.1509 12.9428ZM37.853 28.0229L41.1552 29.669C42.1448 30.2374 42.576 31.4426 42.184 32.5205C41.312 34.8917 39.5972 37.067 38.0098 38.9679C37.2847 39.84 36.0305 40.0556 35.0408 39.4873L32.1894 37.8411C30.6216 39.1835 28.7991 40.2516 26.81 40.9473V44.2396C26.81 45.3763 25.9967 46.3561 24.8796 46.5521C22.4692 46.9636 19.9411 46.9832 17.4425 46.5521C16.3156 46.3561 15.4828 45.3861 15.4828 44.2396V40.9473C13.4936 40.2418 11.6711 39.1835 10.1033 37.8411L7.25191 39.4775C6.27205 40.0458 5.00802 39.8302 4.28292 38.9582C2.69554 37.0572 1.01998 34.8819 0.1479 32.5205C-0.244046 31.4524 0.187094 30.2472 1.17676 29.669L4.4397 28.0229C4.05755 25.975 4.05755 23.8683 4.4397 21.8105L1.17676 20.1546C0.187094 19.5863 -0.253844 18.381 0.1479 17.313C1.01998 14.9417 2.69554 12.7664 4.28292 10.8655C5.00802 9.99339 6.26225 9.77782 7.25191 10.3461L10.1033 11.9923C11.6711 10.6499 13.4936 9.58185 15.4828 8.88615V5.58401C15.4828 4.45716 16.2862 3.4773 17.4033 3.28133C19.8138 2.86979 22.3516 2.85019 24.8503 3.27153C25.9771 3.4675 26.81 4.43757 26.81 5.58401V8.87635C28.7991 9.58185 30.6216 10.6401 32.1894 11.9825L35.0408 10.3363C36.0207 9.76802 37.2847 9.98359 38.0098 10.8557C39.5972 12.7566 41.263 14.9319 42.135 17.3032C42.527 18.3712 42.1448 19.5765 41.1552 20.1546L37.853 21.8007C38.2352 23.8585 38.2352 25.9652 37.853 28.0229ZM26.3298 30.0904C32.1306 22.5454 23.5176 13.9324 15.9727 19.7332C10.1719 27.2782 18.7849 35.8912 26.3298 30.0904ZM50.1797 47.9925L49.3762 49.3937C49.0823 49.913 48.4552 50.1286 47.8966 49.9228C46.7404 49.4917 45.6822 48.8744 44.7513 48.1003C44.3005 47.7279 44.183 47.0714 44.4769 46.5619L45.2804 45.1607C44.6043 44.3768 44.0752 43.4655 43.7224 42.4759H42.1056C41.5177 42.4759 41.0082 42.0545 40.9102 41.4666C40.7142 40.2908 40.7044 39.0561 40.9102 37.8313C41.0082 37.2434 41.5177 36.8122 42.1056 36.8122H43.7224C44.0752 35.8226 44.6043 34.9113 45.2804 34.1274L44.4769 32.7262C44.183 32.2167 44.2907 31.5602 44.7513 31.1878C45.6822 30.4137 46.7502 29.7964 47.8966 29.3653C48.4552 29.1595 49.0823 29.3751 49.3762 29.8944L50.1797 31.2956C51.2086 31.1094 52.257 31.1094 53.2859 31.2956L54.0894 29.8944C54.3833 29.3751 55.0104 29.1595 55.569 29.3653C56.7252 29.7964 57.7835 30.4137 58.7143 31.1878C59.1651 31.5602 59.2827 32.2167 58.9887 32.7262L58.1852 34.1274C58.8613 34.9113 59.3904 35.8226 59.7432 36.8122H61.36C61.9479 36.8122 62.4574 37.2336 62.5554 37.8215C62.7514 38.9973 62.7612 40.232 62.5554 41.4568C62.4574 42.0447 61.9479 42.4759 61.36 42.4759H59.7432C59.3904 43.4655 58.8613 44.3768 58.1852 45.1607L58.9887 46.5619C59.2827 47.0714 59.1749 47.7279 58.7143 48.1003C57.7835 48.8744 56.7154 49.4917 55.569 49.9228C55.0104 50.1286 54.3833 49.913 54.0894 49.3937L53.2859 47.9925C52.2668 48.1787 51.2086 48.1787 50.1797 47.9925ZM49.1509 42.2211C52.9233 45.1215 57.2249 40.8199 54.3245 37.0474C50.5521 34.147 46.2505 38.4486 49.1509 42.2211Z" fill="#0085FF"/>
</svg>
