<svg width="148" height="50" viewBox="0 0 148 50" fill="none" xmlns="http://www.w3.org/2000/svg">
<path d="M25.303 25.0505C27.5556 25.0051 29.3636 23.1717 29.3636 20.9141C29.3636 18.6566 27.5505 16.8283 25.303 16.7778V16.7727H18.8081C17.7727 16.7727 16.9343 17.6111 16.9343 18.6465V23.197C16.9343 24.2323 17.7727 25.0707 18.8081 25.0707L25.303 25.0505ZM44.8081 20.803C44.8081 9.31313 35.495 0 24.0051 0V0.0202025H4.17172C1.84849 0.136364 0 2.0404 0 4.38889V8.29798H0.0303028V33.3081H0V41.6061V45.4293C0 47.8535 1.96465 49.8232 4.39394 49.8232H25.9444C26.3283 49.8232 26.7121 49.6717 26.9596 49.2071C27.2626 48.6364 27.0657 48.1061 27.0657 48.1061L24.3283 41.6061C24.3283 41.6061 22.3838 37.2172 21.2626 34.6919C21.2626 34.6919 20.8333 33.303 19.3889 33.303H18.8131C17.7778 33.303 16.9394 34.1414 16.9394 35.1768V39.7273C16.9394 40.7626 16.101 41.601 15.0657 41.601H16.9394H8.74748V38.9242V33.3081V8.29798H24.0051V8.30303C28.9444 8.30303 33.4141 11.2071 35.4242 15.7172C37.995 21.4849 35.8333 28.1465 30.6212 31.3939L30.6717 31.3687C29.8081 31.7879 29.4242 32.7879 29.7323 33.6717L31.8889 38.5101C32.3384 39.3535 33.0657 39.5152 33.7626 39.1717C40.5253 35.5859 44.8081 28.5404 44.8081 20.803Z" fill="white"/>
<path d="M77.2771 42.3458C78.188 41.4095 79.5165 40.9288 81.2498 40.9288C82.6541 40.9288 83.7295 41.2704 84.4886 41.9283C85.2477 42.5988 85.6273 43.5603 85.6273 44.8129C85.6273 46.1033 85.2351 47.1028 84.4633 47.8366C83.6916 48.5578 82.5909 48.9247 81.1739 48.9247C79.8707 48.9247 78.5676 48.5451 77.2645 47.786V42.3458H77.2771ZM76.9229 49.7977L77.2265 48.6969C78.517 49.532 79.8834 49.9495 81.3383 49.9495C82.1734 49.9495 82.9451 49.823 83.641 49.5699C84.3368 49.3169 84.9314 48.9626 85.4375 48.5072C85.9436 48.0517 86.3358 47.5077 86.6015 46.8751C86.8798 46.2425 87.019 45.5467 87.019 44.7876C87.019 44.0284 86.8798 43.3453 86.6015 42.7506C86.3231 42.156 85.9309 41.6373 85.4375 41.2197C84.9441 40.8022 84.3495 40.4733 83.6663 40.2582C82.9831 40.0305 82.2366 39.9166 81.4269 39.9166C80.516 39.9166 79.7063 40.0431 78.9851 40.3088C78.264 40.5745 77.6946 40.9035 77.2898 41.283V36.2603H75.7969V49.7977H76.9229V49.7977ZM65.0808 48.4566C64.5874 48.115 64.347 47.6595 64.347 47.0775C64.347 45.6985 65.6248 45.0026 68.1805 45.0026C69.2306 45.0026 70.2807 45.1418 71.3434 45.4075V47.9631C70.2174 48.6337 68.9143 48.9753 67.4087 48.9753C66.346 48.9626 65.5742 48.7982 65.0808 48.4566ZM63.1704 48.5072C63.4361 48.8741 63.7777 49.1651 64.2078 49.3928C64.6253 49.6079 65.0935 49.7723 65.6122 49.8609C66.1309 49.9495 66.6496 50.0001 67.1557 50.0001C67.9275 50.0001 68.6739 49.9242 69.3951 49.7724C70.1289 49.6205 70.8247 49.3675 71.4953 49.0386L71.7736 49.8103H72.8363V43.1175C72.8363 42.4596 72.7351 41.9283 72.5201 41.5108C72.305 41.0932 72.0013 40.7769 71.6091 40.5492C71.2169 40.3215 70.7615 40.157 70.2174 40.0811C69.6734 39.9925 69.0788 39.9546 68.4335 39.9546C67.6618 39.9546 66.9153 40.0178 66.1942 40.1317C65.4604 40.2582 64.7392 40.448 64.0307 40.701V41.8017C64.2964 41.6752 64.6127 41.5614 64.9796 41.4475C65.3465 41.3463 65.726 41.2577 66.1309 41.1818C66.5358 41.1059 66.9406 41.0553 67.3581 41.0173C67.763 40.9794 68.1425 40.9541 68.4841 40.9541C69.2179 40.9541 69.7873 41.03 70.1795 41.1691C70.5717 41.3083 70.85 41.5234 71.0271 41.8017C71.2043 42.0801 71.3055 42.4343 71.3308 42.8518C71.3561 43.282 71.3687 43.7754 71.3687 44.3574C70.8121 44.2309 70.2554 44.1297 69.6987 44.0538C69.142 43.9778 68.5727 43.9525 67.9907 43.9525C67.434 43.9525 66.8521 44.0031 66.2448 44.0917C65.6375 44.1929 65.0808 44.3574 64.5621 44.5978C64.056 44.8382 63.6259 45.1671 63.2969 45.572C62.968 45.9895 62.8035 46.4955 62.8035 47.1155C62.7782 47.6848 62.9047 48.1403 63.1704 48.5072ZM60.0074 36.2603H58.5145V49.7977H60.0074V36.2603Z" fill="white"/>
<path d="M137.297 31.6674H138.79V24.304C139.473 23.9371 140.156 23.6208 140.852 23.3298C141.548 23.0389 142.294 22.8997 143.104 22.8997C143.458 22.8997 143.8 22.9376 144.116 23.0135C144.433 23.0895 144.724 23.216 144.964 23.3805C145.217 23.5449 145.407 23.76 145.546 24.013C145.685 24.2661 145.761 24.5697 145.761 24.9113V31.68H147.254V24.6077C147.254 24.1269 147.14 23.7221 146.912 23.3678C146.685 23.0262 146.381 22.7352 146.014 22.4948C145.647 22.2671 145.23 22.09 144.787 21.9888C144.331 21.8749 143.876 21.8243 143.408 21.8243C142.573 21.8243 141.763 21.9382 140.979 22.1659C140.194 22.3936 139.473 22.7099 138.79 23.1274V18.1553H137.297V31.6674ZM123.203 29.0611C123.532 29.6937 123.975 30.2251 124.544 30.6426C125.113 31.0601 125.784 31.3637 126.556 31.5662C127.327 31.7686 128.162 31.8698 129.061 31.8698C130.022 31.8698 130.971 31.7559 131.895 31.5282C132.818 31.3005 133.704 30.9968 134.577 30.6046V29.2888C133.78 29.757 132.907 30.1238 131.945 30.3895C130.984 30.6552 130.086 30.7944 129.238 30.7944C128.517 30.7944 127.846 30.7185 127.239 30.5667C126.632 30.4148 126.1 30.1745 125.657 29.8455C125.215 29.5292 124.86 29.1117 124.62 28.6056C124.367 28.0996 124.253 27.5049 124.253 26.8091C124.253 26.1132 124.38 25.5186 124.62 25.0125C124.873 24.5065 125.215 24.1016 125.657 23.7727C126.1 23.4564 126.632 23.216 127.239 23.0642C127.846 22.9123 128.517 22.8364 129.238 22.8364C129.579 22.8364 129.972 22.8491 130.414 22.8744C130.857 22.8997 131.3 22.9503 131.743 23.0262C132.186 23.1021 132.629 23.216 133.046 23.3678C133.476 23.5196 133.843 23.7347 134.172 23.9877V22.672C133.413 22.3557 132.616 22.1406 131.794 22.0014C130.984 21.8623 130.149 21.799 129.314 21.799C128.416 21.799 127.568 21.8875 126.771 22.0647C125.974 22.2418 125.265 22.5328 124.671 22.925C124.063 23.3172 123.595 23.8359 123.241 24.4685C122.899 25.1011 122.722 25.8729 122.722 26.7838C122.722 27.6694 122.887 28.4285 123.203 29.0611ZM118.598 31.6674V24.1649C118.876 23.798 119.256 23.5196 119.711 23.3298C120.167 23.1527 120.66 23.0642 121.166 23.0642V21.8116C120.103 21.8116 119.18 22.2798 118.408 23.2286L118.13 22.0141H117.105V31.68H118.598V31.6674ZM106.414 30.3263C105.921 29.9847 105.68 29.5292 105.68 28.9472C105.68 27.5682 106.958 26.8723 109.514 26.8723C110.564 26.8723 111.627 27.0115 112.689 27.2772V29.8329C111.563 30.5034 110.26 30.8324 108.755 30.8324C107.679 30.8324 106.907 30.6679 106.414 30.3263ZM104.504 30.3769C104.769 30.7438 105.111 31.0348 105.528 31.2625C105.946 31.4776 106.414 31.6421 106.933 31.7306C107.452 31.8192 107.97 31.8698 108.476 31.8698C109.248 31.8698 109.995 31.7939 110.716 31.6421C111.449 31.4902 112.145 31.2372 112.816 30.9083L113.094 31.68H114.157V24.9872C114.157 24.3293 114.056 23.798 113.841 23.3805C113.626 22.963 113.322 22.6467 112.942 22.4189C112.55 22.1912 112.082 22.0267 111.551 21.9508C111.007 21.8622 110.412 21.8243 109.767 21.8243C108.995 21.8243 108.249 21.8875 107.527 22.0141C106.794 22.1406 106.072 22.3304 105.364 22.5834V23.6841C105.63 23.5576 105.946 23.4437 106.313 23.3298C106.68 23.2286 107.059 23.1401 107.464 23.0642C107.869 22.9883 108.274 22.9376 108.691 22.8997C109.109 22.8617 109.476 22.8364 109.817 22.8364C110.551 22.8364 111.121 22.9124 111.513 23.0515C111.905 23.1907 112.183 23.4058 112.36 23.6841C112.538 23.9624 112.639 24.3167 112.664 24.7342C112.689 25.1644 112.702 25.6578 112.702 26.2398C112.145 26.1132 111.589 26.012 111.032 25.9361C110.475 25.8602 109.906 25.8349 109.324 25.8349C108.767 25.8349 108.185 25.8855 107.578 25.9741C106.971 26.0753 106.414 26.2398 105.895 26.4801C105.389 26.7205 104.959 27.0495 104.63 27.4543C104.301 27.8718 104.124 28.3779 104.124 28.9979C104.099 29.5545 104.238 30.01 104.504 30.3769ZM92.067 24.5191C92.358 24.1396 92.6996 23.8233 93.1044 23.5702C93.5093 23.3172 93.9647 23.1274 94.4708 23.0135C94.9769 22.887 95.5082 22.8238 96.0649 22.8238C96.5583 22.8238 97.0644 22.887 97.5831 23.0135C98.1019 23.1401 98.57 23.3172 99.0001 23.5702C99.4303 23.8233 99.7719 24.1396 100.038 24.5191C100.303 24.8987 100.442 25.3541 100.442 25.8855H91.4723C91.5862 25.3541 91.776 24.8987 92.067 24.5191ZM90.3463 29.0991C90.6753 29.7317 91.1307 30.2504 91.7001 30.6552C92.2694 31.0601 92.9399 31.3637 93.7117 31.5662C94.4835 31.7686 95.3058 31.8698 96.1661 31.8698C97.1656 31.8698 98.1398 31.7306 99.0634 31.4649C99.987 31.1993 100.873 30.8071 101.708 30.301V29.1244C100.835 29.7063 99.949 30.1239 99.076 30.4022C98.2031 30.6679 97.2668 30.807 96.2674 30.807C95.5715 30.807 94.9263 30.7311 94.3443 30.5793C93.7496 30.4275 93.2436 30.1998 92.8008 29.8835C92.358 29.5672 92.0164 29.1623 91.7633 28.6816C91.5103 28.2008 91.3711 27.6188 91.3585 26.9483H102.011V26.6446C102.011 25.8476 101.859 25.1517 101.568 24.5444C101.265 23.9498 100.86 23.4437 100.329 23.0389C99.7972 22.634 99.1899 22.3304 98.4814 22.1153C97.7729 21.9129 97.0012 21.8116 96.1661 21.8116C95.3058 21.8116 94.4834 21.9128 93.7243 22.1279C92.9652 22.343 92.2947 22.6593 91.7127 23.0768C91.1434 23.4943 90.6879 24.0257 90.3463 24.6583C90.0174 25.2909 89.8529 26.0373 89.8529 26.885C89.8529 27.72 90.0174 28.4665 90.3463 29.0991ZM80.8701 31.6674C81.6419 31.7939 82.4263 31.8571 83.2234 31.8571C83.7421 31.8571 84.3114 31.8192 84.9187 31.7559C85.526 31.68 86.0827 31.5408 86.5887 31.3384C87.0948 31.136 87.525 30.8323 87.8666 30.4528C88.2082 30.0732 88.3726 29.5672 88.3726 28.9599C88.3726 28.3273 88.1702 27.8339 87.7527 27.4796C87.3352 27.1254 86.8291 26.8344 86.2092 26.632C85.5893 26.4169 84.9187 26.2651 84.1976 26.1512C83.4764 26.0373 82.8059 25.9235 82.1859 25.7843C81.566 25.6451 81.0599 25.468 80.6424 25.2403C80.2249 25.0125 80.0225 24.6962 80.0225 24.2787C80.0225 23.9498 80.1363 23.6714 80.3767 23.469C80.6045 23.2666 80.8954 23.1148 81.2244 23.0009C81.5533 22.8997 81.9076 22.8364 82.2745 22.7985C82.6414 22.7605 82.9577 22.7479 83.236 22.7479C83.9698 22.7479 84.7289 22.8238 85.5133 22.963C86.2978 23.1021 86.9809 23.3805 87.6009 23.7727V22.5707C86.905 22.3177 86.1839 22.1153 85.4501 21.9888C84.7163 21.8622 83.9698 21.799 83.2234 21.799C82.7553 21.799 82.2492 21.8369 81.7178 21.9002C81.1738 21.9761 80.6804 22.1026 80.2123 22.2924C79.7568 22.4822 79.3646 22.7479 79.0483 23.0895C78.732 23.4311 78.5802 23.8739 78.5802 24.4179C78.5802 24.9999 78.7826 25.4553 79.1875 25.7843C79.5923 26.1132 80.0984 26.3789 80.7183 26.5687C81.3383 26.7585 81.9962 26.9103 82.7047 27.0368C83.4131 27.1507 84.071 27.2898 84.691 27.4417C85.3109 27.5935 85.817 27.7959 86.2218 28.049C86.6267 28.302 86.8291 28.6562 86.8291 29.1244C86.8291 29.5039 86.7026 29.7949 86.4369 30.0226C86.1712 30.2504 85.8549 30.4148 85.4754 30.5287C85.0958 30.6426 84.691 30.7185 84.2861 30.7564C83.8686 30.7944 83.527 30.8197 83.2234 30.8197C82.7553 30.8197 82.3251 30.807 81.9455 30.7691C81.566 30.7438 81.1991 30.6805 80.8448 30.6173C80.5032 30.5414 80.1363 30.4528 79.7821 30.3516C79.4152 30.2377 79.023 30.1112 78.5802 29.972V31.136C79.3266 31.3637 80.0857 31.5409 80.8701 31.6674ZM66.2827 24.5191C66.561 24.1396 66.9152 23.8233 67.3201 23.5702C67.725 23.3172 68.1804 23.1274 68.6865 23.0135C69.1926 22.887 69.7239 22.8238 70.2806 22.8238C70.774 22.8238 71.2801 22.887 71.7988 23.0135C72.3175 23.1401 72.7857 23.3172 73.2158 23.5702C73.646 23.8233 73.9876 24.1396 74.2533 24.5191C74.519 24.8987 74.6581 25.3541 74.6581 25.8855H65.6754C65.8019 25.3541 65.9917 24.8987 66.2827 24.5191ZM64.5747 29.0991C64.9036 29.7317 65.3591 30.2504 65.9284 30.6552C66.4977 31.0601 67.1683 31.3637 67.94 31.5662C68.7118 31.7686 69.5342 31.8698 70.3945 31.8698C71.394 31.8698 72.3682 31.7306 73.2917 31.4649C74.2153 31.1993 75.1009 30.8071 75.936 30.301V29.1244C75.063 29.7063 74.1774 30.1239 73.3044 30.4022C72.4314 30.6679 71.4825 30.807 70.4957 30.807C69.7998 30.807 69.1546 30.7311 68.5726 30.5793C67.978 30.4275 67.4719 30.1998 67.0291 29.8835C66.5863 29.5672 66.2447 29.1623 65.9917 28.6816C65.7386 28.2008 65.5995 27.6188 65.5868 26.9483H76.2396V26.6446C76.2396 25.8476 76.0878 25.1517 75.7968 24.5444C75.4931 23.9498 75.0883 23.4437 74.5569 23.0389C74.0382 22.634 73.4182 22.3304 72.7097 22.1153C72.0013 21.9129 71.2295 21.8116 70.3945 21.8116C69.5342 21.8116 68.7118 21.9128 67.9527 22.1279C67.1936 22.343 66.5104 22.6593 65.9411 23.0768C65.3717 23.4943 64.9163 24.0257 64.5747 24.6583C64.2457 25.2909 64.0686 26.0373 64.0686 26.885C64.0686 27.72 64.2331 28.4665 64.5747 29.0991ZM59.9441 31.6674V24.1649C60.2225 23.798 60.602 23.5196 61.0575 23.3298C61.5129 23.1527 62.0064 23.0642 62.5124 23.0642V21.8116C61.4497 21.8116 60.5261 22.2798 59.7417 23.2286L59.4633 22.0141H58.4386V31.68H59.9441V31.6674Z" fill="white"/>
<path d="M122.102 0H120.609V13.5374H122.102V0ZM109.855 12.1963C109.362 11.8547 109.122 11.3992 109.122 10.8172C109.122 9.43821 110.399 8.74236 112.955 8.74236C114.005 8.74236 115.055 8.88154 116.118 9.14723V11.7029C114.992 12.3734 113.689 12.7024 112.183 12.7024C111.121 12.7024 110.349 12.5379 109.855 12.1963ZM107.958 12.2469C108.223 12.6138 108.578 12.9048 108.995 13.1199C109.413 13.335 109.881 13.4994 110.399 13.588C110.918 13.6766 111.424 13.7272 111.943 13.7272C112.715 13.7272 113.461 13.6513 114.182 13.4994C114.916 13.3476 115.612 13.0946 116.283 12.7656L116.561 13.5374H117.611V6.84459C117.611 6.1867 117.51 5.65534 117.295 5.23783C117.08 4.82032 116.776 4.50402 116.396 4.27629C116.004 4.04855 115.536 3.88409 115.005 3.80818C114.461 3.71961 113.866 3.68165 113.221 3.68165C112.449 3.68165 111.703 3.74492 110.981 3.87144C110.248 3.99796 109.526 4.18773 108.818 4.44076V5.54146C109.084 5.41494 109.4 5.30108 109.767 5.18721C110.134 5.086 110.513 4.99745 110.918 4.92154C111.323 4.84563 111.728 4.79501 112.145 4.75706C112.563 4.7191 112.93 4.6938 113.271 4.6938C114.005 4.6938 114.575 4.7697 114.967 4.90887C115.359 5.04804 115.637 5.26312 115.814 5.54146C115.992 5.8198 116.093 6.17405 116.118 6.59156C116.143 7.02172 116.156 7.51514 116.156 8.09713C115.599 7.97061 115.043 7.86939 114.486 7.79348C113.929 7.71757 113.36 7.69226 112.778 7.69226C112.221 7.69226 111.639 7.74287 111.032 7.83143C110.425 7.93264 109.868 8.09713 109.349 8.33751C108.843 8.5779 108.413 8.90685 108.084 9.3117C107.755 9.72921 107.591 10.2353 107.591 10.8552C107.553 11.4245 107.679 11.88 107.958 12.2469ZM100.999 4.85828V13.5374H102.492V4.85828H105.807V3.87144H102.492V1.42964H101.214L100.999 3.87144H98.6839V4.85828H100.999ZM95.1667 0H93.5979V2.31526H95.1667V0ZM91.5736 3.87144V4.85828H93.6738V12.5506H91.5736V13.5374H97.2796V12.5506H95.1667V3.87144H91.5736ZM82.7933 9.47616C82.3758 9.3876 82.0215 9.24844 81.7179 9.04601C81.4142 8.85623 81.1739 8.60319 80.9841 8.28689C80.7943 7.9706 80.7057 7.59106 80.7057 7.14824C80.7057 6.68013 80.807 6.30058 80.9967 5.98428C81.1865 5.66799 81.4395 5.4276 81.7685 5.22517C82.0848 5.03539 82.4517 4.89622 82.8692 4.80766C83.2867 4.7191 83.7169 4.68115 84.1597 4.68115C85.0706 4.68115 85.8171 4.85827 86.3864 5.22517C86.9557 5.59207 87.2594 6.19936 87.2594 7.08498C87.2594 7.98326 86.9557 8.62849 86.3611 9.0207C85.7665 9.40025 84.9947 9.60269 84.0585 9.60269C83.6283 9.61534 83.1981 9.56473 82.7933 9.47616ZM80.5539 9.70391C80.2123 9.83042 79.9087 10.0075 79.643 10.2353C79.3773 10.463 79.2508 10.754 79.2508 11.1209C79.2508 11.5258 79.4153 11.8547 79.7569 12.1204C80.0858 12.3861 80.516 12.5885 81.0473 12.753C81.5661 12.9048 82.1607 13.0313 82.8059 13.1072C83.4512 13.1958 84.0838 13.2591 84.6911 13.3223C85.2983 13.3729 85.8677 13.4362 86.3737 13.4994C86.8798 13.5627 87.272 13.6386 87.5251 13.7398C87.7907 13.841 88.0564 13.9802 88.3095 14.132C88.5625 14.2965 88.689 14.5116 88.689 14.8026C88.689 15.2454 88.4992 15.587 88.1197 15.8527C87.7401 16.1184 87.2847 16.3208 86.7533 16.4726C86.2346 16.6244 85.6905 16.713 85.1212 16.7636C84.5645 16.8142 84.1091 16.8268 83.7675 16.8268L83.6789 17.8263C84.0205 17.8263 84.4127 17.8137 84.8808 17.7631C85.3363 17.7251 85.8171 17.6619 86.2978 17.5733C86.7786 17.4847 87.2467 17.3582 87.7148 17.2191C88.1703 17.0672 88.5878 16.8774 88.9421 16.6497C89.309 16.422 89.5999 16.1436 89.8277 15.84C90.0554 15.5364 90.1693 15.1568 90.1693 14.7393C90.1693 14.2965 90.0301 13.9422 89.7644 13.6513C89.4987 13.3729 89.1445 13.1452 88.7017 12.9681C88.2589 12.7909 87.7654 12.6644 87.1961 12.5758C86.6394 12.4873 86.0574 12.4114 85.4755 12.3608C84.8808 12.3102 84.3115 12.2596 83.7548 12.209C83.1981 12.1583 82.6921 12.0824 82.2493 11.9939C81.8065 11.9053 81.4522 11.7788 81.1865 11.6143C80.9208 11.4498 80.7817 11.2348 80.7817 10.9438C80.7817 10.7666 80.8576 10.6148 80.9967 10.4883C81.1359 10.3618 81.2877 10.2606 81.4395 10.1847C81.8318 10.3365 82.2493 10.4504 82.6794 10.5263C83.1096 10.6022 83.5397 10.6275 83.9826 10.6275C84.6025 10.6275 85.2098 10.5516 85.7791 10.3998C86.3484 10.2479 86.8545 10.0328 87.2973 9.7292C87.7401 9.43821 88.0817 9.05865 88.3474 8.60319C88.6131 8.14773 88.7396 7.6037 88.7396 6.98376C88.7396 6.68012 88.7017 6.36383 88.6131 6.06019C88.5245 5.75655 88.398 5.46557 88.2082 5.19988L90.1693 4.83297V3.84613L87.6136 3.99795C87.019 3.99795 86.437 3.93469 85.8677 3.82082C85.2983 3.70696 84.7164 3.6437 84.1217 3.6437C83.5271 3.6437 82.9325 3.70696 82.3505 3.84613C81.7558 3.9853 81.2371 4.18773 80.7817 4.47872C80.3262 4.75706 79.9466 5.12396 79.6557 5.56677C79.3647 6.00958 79.2255 6.54095 79.2255 7.16089C79.2128 8.22364 79.6683 9.05867 80.5539 9.70391ZM74.8606 0H73.2918V2.31526H74.8606V0ZM71.2549 3.87144V4.85828H73.3551V12.5506H71.2549V13.5374H76.9608V12.5506H74.848V3.87144H71.2549ZM60.1213 11.5511C59.4002 10.8046 59.0459 9.79247 59.0459 8.51464C59.0459 7.22416 59.3875 6.26262 60.0834 5.63003C60.7666 4.99745 61.842 4.68115 63.2843 4.68115C64.8531 4.68115 66.1942 5.13661 67.2822 6.06019V11.4878C66.0297 12.2722 64.6253 12.6644 63.0692 12.6644C61.8167 12.6644 60.8425 12.2975 60.1213 11.5511ZM57.9326 10.5642C58.1856 11.1968 58.5398 11.7535 59.008 12.2216C59.4761 12.6897 60.0454 13.044 60.7159 13.3096C61.3865 13.5627 62.1583 13.7019 63.0059 13.7019C64.5747 13.7019 66.0297 13.2717 67.3708 12.4114L67.7377 13.55H68.7751V0.0126448H67.2822V4.84561C66.3333 4.07385 64.8784 3.68165 62.9427 3.68165C62.1203 3.68165 61.3738 3.79553 60.7033 4.01061C60.0328 4.22569 59.4761 4.54198 59.008 4.95949C58.5398 5.377 58.1856 5.87042 57.9326 6.46506C57.6795 7.05969 57.5657 7.73022 57.5657 8.48933C57.5657 9.23578 57.6795 9.93163 57.9326 10.5642Z" fill="white"/>
</svg>
