<?xml version="1.0" encoding="UTF-8"?><svg id="Layer_2" xmlns="http://www.w3.org/2000/svg" viewBox="0 0 156.21 14.09"><defs><style>.cls-1{fill:#231f20;}</style></defs><g id="Layer_1-2"><g><path class="cls-1" d="M148.53,4.82c.72-.74,1.77-1.12,3.14-1.12,1.11,0,1.97,.27,2.57,.79,.6,.53,.9,1.29,.9,2.28s-.31,1.81-.92,2.39c-.61,.57-1.48,.86-2.6,.86-1.03,0-2.06-.3-3.09-.9V4.82Zm-.29,5.89l.24-.87c1.02,.66,2.1,.99,3.25,.99,.66,0,1.27-.1,1.82-.3,.55-.2,1.02-.48,1.42-.84,.4-.36,.71-.79,.92-1.29,.22-.5,.33-1.05,.33-1.65s-.11-1.14-.33-1.61c-.22-.47-.52-.88-.92-1.21-.39-.33-.86-.59-1.4-.76-.54-.18-1.13-.27-1.76-.27-.72,0-1.36,.1-1.93,.31-.57,.21-1.02,.47-1.34,.77V0h-1.18V10.7h.89Zm-9.36-1.06c-.39-.27-.58-.63-.58-1.09,0-1.09,1.01-1.63,3.03-1.63,.83,0,1.66,.11,2.5,.32v2.02c-.89,.53-1.92,.8-3.11,.8-.84,0-1.45-.14-1.84-.41m-1.5,.05c.21,.29,.48,.52,.82,.7,.33,.17,.7,.3,1.11,.37,.41,.07,.82,.11,1.22,.11,.61,0,1.2-.06,1.77-.18,.58-.12,1.13-.32,1.66-.58l.22,.61h.84V5.41c0-.52-.08-.94-.25-1.27s-.41-.58-.72-.76c-.31-.18-.67-.31-1.1-.37-.43-.07-.9-.1-1.41-.1-.61,0-1.2,.05-1.77,.14-.58,.1-1.15,.25-1.71,.45v.87c.21-.1,.46-.19,.75-.28,.29-.08,.59-.15,.91-.21,.32-.06,.64-.1,.97-.13,.32-.03,.62-.05,.89-.05,.58,0,1.03,.06,1.34,.17,.31,.11,.53,.28,.67,.5,.14,.22,.22,.5,.24,.83,.02,.34,.03,.73,.03,1.19-.44-.1-.88-.18-1.32-.24s-.89-.08-1.35-.08-.9,.04-1.38,.11c-.48,.08-.92,.21-1.33,.4-.4,.19-.74,.45-1,.77-.26,.33-.39,.73-.39,1.22,0,.44,.11,.8,.32,1.09m-2.51-9.68h-1.18V10.7h1.18V0Z"/><path class="cls-1" d="M119.58,10.7h1.18V4.88c.54-.28,1.08-.54,1.63-.77,.55-.23,1.14-.34,1.78-.34,.28,0,.55,.03,.8,.09,.25,.06,.48,.16,.67,.29,.2,.13,.35,.3,.46,.5,.11,.2,.17,.44,.17,.71v5.35h1.18V5.1c0-.38-.09-.7-.27-.98-.18-.28-.42-.5-.71-.69-.29-.18-.62-.32-.97-.4-.36-.09-.72-.13-1.09-.13-.66,0-1.3,.09-1.92,.27-.62,.18-1.19,.43-1.73,.76V0h-1.18V10.7Zm-11.13-2.06c.26,.5,.61,.92,1.06,1.25,.45,.33,.98,.57,1.59,.73,.61,.16,1.27,.24,1.98,.24,.76,0,1.51-.09,2.24-.27,.73-.18,1.43-.42,2.12-.73v-1.04c-.63,.37-1.32,.66-2.08,.87-.76,.21-1.47,.32-2.14,.32-.57,0-1.1-.06-1.58-.18-.48-.12-.9-.31-1.25-.57-.35-.25-.63-.58-.82-.98-.2-.4-.29-.87-.29-1.42s.1-1.02,.29-1.42c.2-.4,.47-.72,.82-.98,.35-.25,.77-.44,1.25-.56,.48-.12,1.01-.18,1.58-.18,.27,0,.58,.01,.93,.03,.35,.02,.7,.06,1.05,.12,.35,.06,.7,.15,1.03,.28,.34,.12,.63,.29,.89,.49v-1.04c-.6-.24-1.23-.42-1.88-.53-.64-.11-1.3-.16-1.96-.16-.71,0-1.38,.07-2.01,.21-.63,.14-1.19,.37-1.66,.68-.48,.31-.85,.72-1.13,1.22-.27,.5-.41,1.11-.41,1.83s.13,1.29,.39,1.8m-3.65,2.06V4.77c.22-.29,.52-.51,.88-.66,.36-.14,.75-.21,1.15-.21v-.99c-.84,0-1.57,.37-2.18,1.12l-.22-.96h-.81v7.64h1.18Zm-9.63-1.06c-.39-.27-.58-.64-.58-1.09,0-1.09,1.01-1.64,3.03-1.64,.83,0,1.67,.11,2.51,.32v2.02c-.89,.53-1.92,.8-3.11,.8-.84,0-1.45-.14-1.84-.4m-1.5,.04c.21,.29,.48,.52,.81,.7,.33,.17,.7,.3,1.11,.37s.82,.11,1.22,.11c.61,0,1.2-.06,1.77-.18,.58-.12,1.13-.31,1.66-.58l.22,.61h.84V5.41c0-.52-.08-.94-.25-1.27-.17-.33-.41-.58-.71-.76-.31-.18-.68-.31-1.1-.37-.43-.07-.9-.1-1.41-.1-.61,0-1.2,.05-1.77,.15-.58,.1-1.15,.25-1.71,.45v.87c.21-.1,.46-.19,.75-.28,.29-.08,.59-.15,.91-.21,.32-.06,.64-.1,.97-.13,.33-.03,.62-.05,.89-.05,.58,0,1.03,.06,1.34,.17,.31,.11,.53,.28,.67,.5,.14,.22,.22,.5,.24,.83,.02,.34,.03,.73,.03,1.19-.44-.1-.88-.18-1.32-.24-.44-.06-.89-.08-1.35-.08s-.9,.04-1.38,.11c-.48,.08-.92,.21-1.33,.4-.4,.19-.74,.45-1,.77-.26,.33-.4,.73-.4,1.22,0,.44,.11,.8,.32,1.09m-9.84-4.63c.23-.3,.5-.55,.82-.75,.32-.2,.68-.35,1.08-.44,.4-.1,.82-.15,1.26-.15,.39,0,.79,.05,1.2,.15,.41,.1,.78,.24,1.12,.44,.34,.2,.61,.45,.82,.75,.21,.3,.32,.66,.32,1.08h-7.09c.09-.42,.25-.78,.47-1.08m-1.35,3.62c.26,.5,.62,.91,1.07,1.23,.45,.32,.98,.56,1.59,.72,.61,.16,1.26,.24,1.94,.24,.79,0,1.56-.11,2.29-.32s1.43-.52,2.09-.92v-.93c-.69,.46-1.39,.79-2.08,1.01s-1.43,.32-2.22,.32c-.55,0-1.06-.06-1.52-.18-.47-.12-.87-.3-1.22-.55-.35-.25-.62-.57-.82-.95-.2-.38-.31-.84-.32-1.37h8.42v-.24c0-.63-.12-1.18-.35-1.66-.24-.47-.56-.87-.98-1.19-.42-.32-.9-.56-1.46-.73-.56-.16-1.17-.24-1.83-.24s-1.33,.08-1.93,.25c-.6,.17-1.13,.42-1.59,.75-.45,.33-.81,.75-1.08,1.25-.26,.5-.39,1.09-.39,1.76s.13,1.26,.39,1.76m-7.5,2.03c.61,.1,1.23,.15,1.86,.15,.41,0,.86-.03,1.34-.08,.48-.06,.92-.17,1.32-.33,.4-.16,.74-.4,1.01-.69,.27-.3,.4-.7,.4-1.19s-.16-.89-.49-1.17c-.33-.28-.73-.51-1.22-.67-.49-.17-1.02-.29-1.59-.38-.57-.09-1.1-.18-1.59-.29-.49-.11-.89-.25-1.22-.43-.33-.18-.49-.43-.49-.76,0-.27,.09-.48,.28-.64,.18-.16,.41-.28,.67-.37,.26-.08,.54-.13,.83-.16,.29-.02,.54-.04,.76-.04,.58,0,1.18,.06,1.8,.17,.62,.11,1.16,.33,1.65,.64v-.95c-.55-.2-1.12-.36-1.7-.46s-1.17-.15-1.76-.15c-.37,0-.77,.03-1.19,.08-.43,.06-.82,.16-1.19,.31-.36,.15-.67,.36-.92,.63-.25,.27-.37,.62-.37,1.05,0,.46,.16,.82,.48,1.08,.32,.26,.72,.47,1.21,.62,.49,.15,1.01,.27,1.57,.37,.56,.09,1.08,.2,1.57,.32,.49,.12,.89,.28,1.21,.48,.32,.2,.48,.48,.48,.85,0,.3-.1,.53-.31,.71-.21,.18-.46,.31-.76,.41-.3,.09-.62,.15-.94,.18-.33,.03-.6,.05-.84,.05-.37,0-.71-.01-1.01-.04-.3-.02-.59-.07-.87-.12-.27-.06-.56-.13-.84-.21-.29-.09-.6-.19-.95-.3v.92c.59,.17,1.2,.31,1.81,.41m-11.53-5.65c.22-.3,.5-.55,.82-.75,.32-.2,.68-.35,1.08-.44,.4-.1,.82-.15,1.26-.15,.39,0,.79,.05,1.2,.15,.41,.1,.78,.24,1.12,.44,.34,.2,.61,.45,.82,.75,.21,.3,.32,.66,.32,1.08h-7.1c.09-.42,.25-.78,.47-1.08m-1.35,3.62c.26,.5,.62,.91,1.07,1.23,.45,.32,.98,.56,1.59,.72,.61,.16,1.26,.24,1.94,.24,.79,0,1.56-.11,2.29-.32,.73-.21,1.43-.52,2.09-.92v-.93c-.69,.46-1.39,.79-2.08,1.01s-1.44,.32-2.22,.32c-.55,0-1.06-.06-1.52-.18-.47-.12-.87-.3-1.22-.55-.35-.25-.62-.57-.82-.95s-.31-.84-.32-1.37h8.42v-.24c0-.63-.12-1.18-.35-1.66-.24-.47-.56-.87-.98-1.19-.41-.32-.9-.56-1.46-.73-.56-.16-1.17-.24-1.83-.24s-1.33,.08-1.93,.25c-.6,.17-1.14,.42-1.59,.75-.45,.33-.81,.75-1.08,1.25-.26,.5-.4,1.09-.4,1.76s.13,1.26,.4,1.76m-3.66,2.03V4.77c.22-.29,.52-.51,.88-.66,.36-.14,.75-.21,1.15-.21v-.99c-.84,0-1.57,.37-2.19,1.12l-.22-.96h-.81v7.64h1.18Z"/><path class="cls-1" d="M51.01,0h-1.18V10.7h1.18V0Zm-9.68,9.64c-.39-.27-.58-.63-.58-1.09,0-1.09,1.01-1.64,3.03-1.64,.83,0,1.66,.11,2.5,.32v2.02c-.89,.53-1.92,.8-3.11,.8-.84,0-1.45-.14-1.84-.41m-1.51,.05c.21,.29,.49,.52,.82,.69,.33,.17,.7,.3,1.11,.37,.41,.07,.82,.11,1.22,.11,.6,0,1.2-.06,1.77-.18,.58-.12,1.13-.32,1.66-.58l.22,.61h.84V5.41c0-.52-.08-.94-.25-1.27s-.41-.58-.71-.76c-.31-.18-.68-.31-1.1-.37-.43-.07-.9-.1-1.41-.1-.61,0-1.2,.05-1.77,.15-.58,.1-1.15,.25-1.71,.45v.87c.21-.1,.46-.19,.75-.28,.29-.08,.59-.15,.91-.21,.32-.06,.64-.1,.97-.13,.32-.03,.62-.05,.89-.05,.58,0,1.03,.06,1.34,.17,.31,.11,.53,.28,.67,.5,.14,.22,.22,.5,.24,.83,.02,.34,.02,.73,.02,1.19-.44-.1-.88-.18-1.32-.24s-.89-.08-1.35-.08-.9,.04-1.38,.11c-.48,.08-.92,.21-1.33,.4-.4,.19-.74,.45-1,.77-.26,.33-.39,.73-.39,1.22,0,.44,.11,.8,.32,1.09m-5.5-5.85v6.86h1.18V3.84h2.62v-.78h-2.62V1.13h-1.01l-.17,1.93h-1.83v.78h1.83ZM29.73,0h-1.24V1.83h1.24V0Zm-2.84,3.06v.78h1.66v6.08h-1.66v.78h4.51v-.78h-1.66V3.06h-2.84Zm-6.94,4.43c-.32-.07-.61-.18-.85-.34s-.43-.35-.58-.6c-.15-.24-.22-.55-.22-.9s.08-.67,.23-.92c.15-.24,.35-.44,.6-.6s.54-.26,.87-.33c.33-.07,.67-.1,1.02-.1,.72,0,1.3,.14,1.76,.43,.46,.28,.69,.77,.69,1.47s-.24,1.22-.71,1.53c-.47,.3-1.08,.46-1.82,.46-.35,0-.68-.03-1.01-.11m-1.76,.18c-.27,.1-.51,.24-.72,.42-.21,.18-.31,.41-.31,.7,0,.32,.13,.58,.39,.79,.26,.21,.6,.37,1.02,.5,.41,.12,.88,.22,1.39,.28,.51,.07,1.01,.12,1.49,.17,.48,.05,.92,.09,1.33,.14,.4,.05,.71,.11,.91,.19,.21,.08,.42,.19,.62,.31,.2,.13,.3,.3,.3,.53,0,.35-.15,.62-.45,.83-.3,.21-.66,.37-1.08,.49s-.84,.19-1.29,.23c-.44,.04-.8,.05-1.07,.05l-.07,.79c.27,0,.58-.01,.95-.05,.36-.03,.74-.08,1.12-.15,.38-.07,.75-.17,1.12-.28,.36-.12,.69-.27,.97-.45,.29-.18,.52-.4,.7-.64,.18-.24,.27-.53,.27-.87s-.11-.63-.32-.86c-.21-.22-.49-.41-.84-.54-.35-.14-.74-.24-1.19-.31-.44-.07-.9-.13-1.36-.17-.47-.04-.92-.08-1.36-.12-.44-.04-.84-.1-1.19-.17-.35-.07-.63-.17-.84-.3-.21-.13-.32-.3-.32-.53,0-.14,.06-.26,.17-.36s.23-.18,.35-.24c.31,.12,.64,.21,.97,.27,.34,.06,.68,.08,1.03,.08,.49,0,.97-.06,1.42-.17,.45-.12,.85-.29,1.2-.53,.35-.23,.62-.53,.83-.89,.21-.36,.31-.79,.31-1.28,0-.24-.03-.49-.1-.73-.07-.24-.17-.47-.32-.68l1.55-.29v-.78l-2.02,.12c-.47,0-.93-.05-1.38-.14-.45-.09-.91-.14-1.38-.14s-.94,.05-1.4,.16c-.47,.11-.88,.27-1.24,.5-.37,.22-.66,.51-.89,.86-.23,.35-.34,.77-.34,1.26,0,.82,.35,1.48,1.06,1.99M13.67,0h-1.24V1.83h1.24V0Zm-2.84,3.06v.78h1.67v6.08h-1.67v.78h4.51v-.78h-1.67V3.06h-2.84ZM2.03,9.13c-.57-.59-.85-1.39-.85-2.4s.27-1.78,.82-2.28c.54-.5,1.39-.75,2.53-.75,1.24,0,2.3,.36,3.16,1.09v4.29c-.99,.62-2.1,.93-3.33,.93-.99,0-1.76-.3-2.33-.89m-1.73-.77c.2,.5,.48,.94,.85,1.31s.82,.65,1.35,.86c.53,.2,1.14,.31,1.81,.31,1.24,0,2.39-.34,3.45-1.02l.29,.9h.82V0h-1.18V3.82c-.75-.61-1.9-.92-3.43-.92-.65,0-1.24,.09-1.77,.26-.53,.17-.97,.42-1.34,.75-.37,.33-.65,.72-.85,1.19-.2,.47-.29,1-.29,1.6s.1,1.14,.29,1.64"/></g></g></svg>