<?xml version="1.0" encoding="UTF-8"?>
<svg id="Layer_2" data-name="Layer 2" xmlns="http://www.w3.org/2000/svg" xmlns:xlink="http://www.w3.org/1999/xlink" viewBox="0 0 197.01 56.69">
  <defs>
    <style>
      .cls-1 {
        clip-path: url(#clippath);
      }

      .cls-2 {
        fill: none;
      }

      .cls-2, .cls-3 {
        stroke-width: 0px;
      }

      .cls-3 {
        fill: #231f20;
      }
    </style>
    <clipPath id="clippath">
      <rect class="cls-2" width="197.01" height="56.69"/>
    </clipPath>
  </defs>
  <g id="Layer_1-2" data-name="Layer 1">
    <g class="cls-1">
      <path class="cls-3" d="M32.25,43.61H1.89v10.17h30.36v-10.17ZM12.01,23.4l-10.12-.02v.02c0,5.59,4.53,10.12,10.12,10.12v-10.12ZM1.94,13.08h30.36V2.92H1.94v10.17ZM52.91,23.25h-10.17v30.52h10.17v-30.52ZM52.91,13.1v-.02c0-5.61-4.55-10.17-10.17-10.17v10.17l10.17.02Z"/>
      <path class="cls-3" d="M90.71,18.8h-1.08v18.24h1.08v-18.24ZM83.67,27.22h-15.96c.3-4.49,3.65-7.74,8.06-7.74s7.63,3.13,7.9,7.74M84.72,28.25c0-.14.02-.31.02-.46,0-5.26-3.73-9.35-8.97-9.35s-9.15,4.09-9.15,9.45,3.94,9.5,9.15,9.5c3.73,0,6.67-1.95,8.39-5.56h-1.15c-1.46,2.82-4.03,4.49-7.25,4.49-4.51,0-7.91-3.41-8.07-8.08h17.03ZM89.37,14.74h1.59v-1.88h-1.59v1.88ZM112.5,27.42c0,4.57-3.28,7.92-7.76,7.92s-7.87-3.41-7.87-7.92,3.39-7.93,7.87-7.93,7.76,3.38,7.76,7.93M113.57,34.35v-15.56h-.82l-.16,4.58c-1.41-2.97-4.36-4.94-7.94-4.94-5.02,0-8.88,3.9-8.88,8.98s3.84,8.97,8.88,8.97c3.53,0,6.42-1.85,7.85-4.71v2.78c0,5.25-2.89,8.37-7.57,8.37-3.35,0-5.92-1.63-7-4.56h-1.08c1.13,3.51,4.01,5.57,8.08,5.57,5.37,0,8.63-3.58,8.63-9.48M127.63,19.78h1.64v-1.04h-1.57c-3.08,0-5.34,1.62-6.48,4.18l-.18-4.13h-.85v18.24h1.08v-10.27c0-4.04,2.55-6.98,6.36-6.98M148.45,27.92c0,4.82-3.57,8.42-8.4,8.42s-8.4-3.6-8.4-8.42,3.57-8.42,8.4-8.42,8.4,3.6,8.4,8.42M149.55,27.92c0-5.42-4.06-9.48-9.49-9.48s-9.49,4.02-9.49,9.48,4.08,9.47,9.49,9.47,9.49-4.05,9.49-9.47M169.59,29.39v-10.59h-1.08v10.47c0,4.36-2.52,7.08-6.6,7.08s-6.6-2.71-6.6-7.08v-10.47h-1.08v10.59c0,4.87,2.98,8.01,7.68,8.01s7.68-3.13,7.68-8.01M193.44,27.92c0,4.86-3.47,8.42-8.23,8.42s-8.27-3.64-8.27-8.42,3.55-8.42,8.27-8.42,8.23,3.56,8.23,8.42M194.53,27.92c0-5.4-3.85-9.48-9.26-9.48-3.74,0-6.83,2.03-8.32,5.13l-.21-4.77h-.84v24.69h1.08v-11.16c1.51,3.06,4.58,5.07,8.29,5.07,5.41,0,9.26-4.09,9.26-9.47"/>
    </g>
  </g>
</svg>