<svg width="50" height="50" viewBox="0 0 50 50" fill="none" xmlns="http://www.w3.org/2000/svg">
<path d="M18.5185 0H3.08642C1.38184 0 0 1.38184 0 3.08642V18.5185C0 20.2232 1.38184 21.6049 3.08642 21.6049H18.5185C20.2232 21.6049 21.6049 20.2232 21.6049 18.5185V3.08642C21.6049 1.38184 20.2232 0 18.5185 0Z" fill="#0085FF"/>
<path d="M18.5185 28.395H3.08642C1.38184 28.395 0 29.7768 0 31.4814V46.9135C0 48.6182 1.38184 50 3.08642 50H18.5185C20.2232 50 21.6049 48.6182 21.6049 46.9135V31.4814C21.6049 29.7768 20.2232 28.395 18.5185 28.395Z" fill="#0085FF"/>
<path d="M46.9135 0H31.4814C29.7768 0 28.395 1.38184 28.395 3.08642V18.5185C28.395 20.2232 29.7768 21.6049 31.4814 21.6049H46.9135C48.6182 21.6049 50 20.2232 50 18.5185V3.08642C50 1.38184 48.6182 0 46.9135 0Z" fill="#0085FF"/>
<path d="M46.9135 28.395H31.4814C29.7768 28.395 28.395 29.7768 28.395 31.4814V46.9135C28.395 48.6182 29.7768 50 31.4814 50H46.9135C48.6182 50 50 48.6182 50 46.9135V31.4814C50 29.7768 48.6182 28.395 46.9135 28.395Z" fill="#0085FF"/>
</svg>
