<svg width="50" height="50" viewBox="0 0 50 50" fill="none" xmlns="http://www.w3.org/2000/svg">
<path d="M18.5185 0H3.08642C1.38184 0 0 1.38184 0 3.08642V18.5185C0 20.2232 1.38184 21.6049 3.08642 21.6049H18.5185C20.2232 21.6049 21.6049 20.2232 21.6049 18.5185V3.08642C21.6049 1.38184 20.2232 0 18.5185 0Z" fill="url(#paint0_linear_155_48)"/>
<path d="M18.5185 28.395H3.08642C1.38184 28.395 0 29.7768 0 31.4814V46.9135C0 48.6182 1.38184 50 3.08642 50H18.5185C20.2232 50 21.6049 48.6182 21.6049 46.9135V31.4814C21.6049 29.7768 20.2232 28.395 18.5185 28.395Z" fill="url(#paint1_linear_155_48)"/>
<path d="M46.9135 0H31.4814C29.7768 0 28.395 1.38184 28.395 3.08642V18.5185C28.395 20.2232 29.7768 21.6049 31.4814 21.6049H46.9135C48.6182 21.6049 50 20.2232 50 18.5185V3.08642C50 1.38184 48.6182 0 46.9135 0Z" fill="url(#paint2_linear_155_48)"/>
<path d="M46.9135 28.395H31.4814C29.7768 28.395 28.395 29.7768 28.395 31.4814V46.9135C28.395 48.6182 29.7768 50 31.4814 50H46.9135C48.6182 50 50 48.6182 50 46.9135V31.4814C50 29.7768 48.6182 28.395 46.9135 28.395Z" fill="url(#paint3_linear_155_48)"/>
<defs>
<linearGradient id="paint0_linear_155_48" x1="0.120027" y1="0.48011" x2="21.3649" y2="22.0851" gradientUnits="userSpaceOnUse">
<stop stop-color="#F6907E"/>
<stop offset="0.0001" stop-color="#F6907E"/>
<stop offset="1" stop-color="#F7A325"/>
</linearGradient>
<linearGradient id="paint1_linear_155_48" x1="0.120027" y1="28.8751" x2="21.3649" y2="50.4801" gradientUnits="userSpaceOnUse">
<stop stop-color="#F6907E"/>
<stop offset="0.0001" stop-color="#F6907E"/>
<stop offset="1" stop-color="#F7A325"/>
</linearGradient>
<linearGradient id="paint2_linear_155_48" x1="28.515" y1="0.48011" x2="49.7599" y2="22.0851" gradientUnits="userSpaceOnUse">
<stop stop-color="#F6907E"/>
<stop offset="0.0001" stop-color="#F6907E"/>
<stop offset="1" stop-color="#F7A325"/>
</linearGradient>
<linearGradient id="paint3_linear_155_48" x1="28.515" y1="28.8751" x2="49.7599" y2="50.4801" gradientUnits="userSpaceOnUse">
<stop stop-color="#F6907E"/>
<stop offset="0.0001" stop-color="#F6907E"/>
<stop offset="1" stop-color="#F7A325"/>
</linearGradient>
</defs>
</svg>
