<svg width="20" height="21" viewBox="0 0 20 21" fill="none" xmlns="http://www.w3.org/2000/svg">
<path d="M17.8571 0.216797H2.14286C1.57454 0.216797 1.02949 0.442562 0.627628 0.844425C0.225765 1.24629 0 1.79133 0 2.35965L0 18.0739C0 18.6423 0.225765 19.1873 0.627628 19.5892C1.02949 19.991 1.57454 20.2168 2.14286 20.2168H8.27009V13.4172H5.45759V10.2168H8.27009V7.77751C8.27009 5.00296 9.92188 3.47037 12.4518 3.47037C13.6634 3.47037 14.9304 3.68644 14.9304 3.68644V6.40965H13.5344C12.1589 6.40965 11.7299 7.26323 11.7299 8.13867V10.2168H14.8004L14.3094 13.4172H11.7299V20.2168H17.8571C18.4255 20.2168 18.9705 19.991 19.3724 19.5892C19.7742 19.1873 20 18.6423 20 18.0739V2.35965C20 1.79133 19.7742 1.24629 19.3724 0.844425C18.9705 0.442562 18.4255 0.216797 17.8571 0.216797V0.216797Z" fill="white"/>
</svg>
