<svg width="20" height="21" viewBox="0 0 20 21" fill="none" xmlns="http://www.w3.org/2000/svg">
<path d="M18.5714 0.216797H1.42411C0.638393 0.216797 0 0.864118 0 1.65876V18.7748C0 19.5695 0.638393 20.2168 1.42411 20.2168H18.5714C19.3571 20.2168 20 19.5695 20 18.7748V1.65876C20 0.864118 19.3571 0.216797 18.5714 0.216797ZM6.04464 17.3597H3.08036V7.81501H6.04911V17.3597H6.04464ZM4.5625 6.51144C3.61161 6.51144 2.84375 5.73912 2.84375 4.79269C2.84375 3.84626 3.61161 3.07394 4.5625 3.07394C5.50893 3.07394 6.28125 3.84626 6.28125 4.79269C6.28125 5.74358 5.51339 6.51144 4.5625 6.51144V6.51144ZM17.1562 17.3597H14.192V12.7168C14.192 11.6097 14.1696 10.1855 12.6518 10.1855C11.1071 10.1855 10.8705 11.3909 10.8705 12.6364V17.3597H7.90625V7.81501H10.75V9.11858H10.7902C11.1875 8.36858 12.1563 7.5784 13.5982 7.5784C16.5982 7.5784 17.1562 9.55608 17.1562 12.1275V17.3597V17.3597Z" fill="white"/>
</svg>
