<?xml version="1.0" encoding="UTF-8"?><svg id="Layer_2" xmlns="http://www.w3.org/2000/svg" xmlns:xlink="http://www.w3.org/1999/xlink" viewBox="0 0 276.21 98.65"><defs><style>.cls-1{fill:none;}.cls-2{fill:url(#linear-gradient);}.cls-3{clip-path:url(#clippath);}.cls-4{fill:#1e1e1e;}.cls-5{clip-path:url(#clippath-1);}.cls-6{clip-path:url(#clippath-3);}.cls-7{clip-path:url(#clippath-2);}.cls-8{fill:url(#linear-gradient-3);}.cls-9{fill:url(#linear-gradient-4);}.cls-10{fill:url(#linear-gradient-2);}</style><clipPath id="clippath"><path class="cls-1" d="M37.25,33.22c-2.05,0-3.71,1.66-3.71,3.71v9.01c0,2.05,1.66,3.71,3.71,3.71l12.85-.05c4.46-.09,8.04-3.72,8.04-8.18s-3.58-8.09-8.04-8.19h-12.85Z"/></clipPath><linearGradient id="linear-gradient" x1="-134.9" y1="96.57" x2="-133.9" y2="96.57" gradientTransform="translate(3352.73 2417.54) scale(24.61 -24.61)" gradientUnits="userSpaceOnUse"><stop offset="0" stop-color="#f58e84"/><stop offset="1" stop-color="#faa61a"/></linearGradient><clipPath id="clippath-1"><path class="cls-1" d="M.06,16.27v49.69h-.06v24c0,4.81,3.9,8.7,8.7,8.7H51.37c.76,0,1.52-.3,2.01-1.22,.6-1.13,.21-2.18,.21-2.18l-5.42-12.87H17.33V16.27H.06Z"/></clipPath><linearGradient id="linear-gradient-2" x1="-138.34" y1="99.97" x2="-137.34" y2="99.97" gradientTransform="translate(-8715.49 12121.42) rotate(90) scale(87.45 -87.45)" gradientUnits="userSpaceOnUse"><stop offset="0" stop-color="#2d7b9b"/><stop offset="1" stop-color="#123f6d"/></linearGradient><clipPath id="clippath-2"><path class="cls-1" d="M47.53,.04H8.26C3.67,.28,0,4.04,0,8.7v7.73H47.53c9.78,0,18.63,5.76,22.61,14.69,5.09,11.42,.81,24.61-9.51,31.04l.1-.05c-1.71,.83-2.47,2.81-1.85,4.56l4.27,9.58c.89,1.67,2.33,1.99,3.7,1.31,13.39-7.11,21.87-21.06,21.87-36.37C88.72,18.44,70.28,0,47.53,0V.04Z"/></clipPath><linearGradient id="linear-gradient-3" x1="-138.43" y1="98.82" x2="-137.43" y2="98.82" gradientTransform="translate(12282.26 8807.19) scale(88.72 -88.72)" gradientUnits="userSpaceOnUse"><stop offset="0" stop-color="#f58e84"/><stop offset=".97" stop-color="#f05b72"/><stop offset="1" stop-color="#f27186"/></linearGradient><clipPath id="clippath-3"><path class="cls-1" d="M37.25,65.95c-2.05,0-3.71,1.66-3.71,3.71v9.01c0,2.05-1.66,3.71-3.71,3.71h18.34s-3.85-8.69-6.07-13.69c0,0-.85-2.75-3.71-2.75h-1.14Z"/></clipPath><linearGradient id="linear-gradient-4" x1="-144.25" y1="92.45" x2="-143.25" y2="92.45" gradientTransform="translate(1558.16 -2288.04) rotate(-90) scale(16.43 -16.43)" xlink:href="#linear-gradient"/></defs><g id="Layer_1-2"><g><g><g class="cls-3"><rect class="cls-2" x="33.54" y="33.22" width="24.6" height="16.43"/></g><g class="cls-5"><rect class="cls-10" x="-17.84" y="8.22" width="89.64" height="98.48" transform="translate(-26.53 23.31) rotate(-32.3)"/></g><g class="cls-7"><rect class="cls-8" width="88.72" height="78.24"/></g><g class="cls-6"><rect class="cls-9" x="29.83" y="65.95" width="18.34" height="16.43"/></g></g><g><path class="cls-4" d="M138.14,83.58c1.79-1.86,4.41-2.79,7.85-2.79,2.77,0,4.91,.66,6.4,1.98,1.5,1.32,2.24,3.22,2.24,5.69s-.76,4.53-2.29,5.95c-1.53,1.43-3.69,2.14-6.49,2.14-2.57,0-5.15-.75-7.72-2.25v-10.72Zm-.71,14.69l.59-2.17c2.55,1.65,5.25,2.48,8.1,2.48,1.65,0,3.16-.25,4.53-.74,1.37-.49,2.55-1.19,3.55-2.1,.99-.9,1.76-1.98,2.31-3.23,.55-1.25,.82-2.62,.82-4.12s-.27-2.84-.82-4.03c-.54-1.18-1.31-2.19-2.29-3.01-.98-.83-2.14-1.46-3.49-1.91-1.34-.45-2.81-.67-4.41-.67-1.79,0-3.4,.26-4.83,.78-1.43,.52-2.55,1.17-3.36,1.93v-9.92h-2.94v26.71h2.22Zm-23.36-2.65c-.97-.67-1.45-1.59-1.45-2.73,0-2.72,2.52-4.08,7.56-4.08,2.07,0,4.15,.27,6.25,.8v5.04c-2.21,1.32-4.8,1.98-7.77,1.98-2.1,0-3.63-.34-4.6-1.01m-3.76,.11c.53,.72,1.21,1.3,2.04,1.74,.82,.43,1.75,.74,2.77,.92,1.02,.18,2.03,.27,3.04,.27,1.51,0,2.99-.15,4.43-.46,1.44-.31,2.82-.79,4.13-1.45l.54,1.53h2.1v-13.2c0-1.3-.21-2.35-.63-3.17s-1.02-1.45-1.79-1.91c-.77-.46-1.69-.77-2.75-.93-1.06-.16-2.24-.25-3.53-.25-1.51,0-2.99,.12-4.43,.36-1.44,.24-2.86,.62-4.26,1.13v2.17c.53-.25,1.15-.48,1.87-.69,.71-.2,1.47-.38,2.27-.52,.8-.14,1.6-.25,2.41-.32,.81-.07,1.55-.11,2.22-.11,1.46,0,2.57,.14,3.34,.42,.77,.28,1.33,.69,1.68,1.24,.35,.55,.55,1.24,.59,2.08,.04,.84,.06,1.83,.06,2.98-1.09-.25-2.19-.45-3.3-.59s-2.23-.21-3.38-.21-2.24,.09-3.44,.28c-1.2,.19-2.31,.52-3.32,.99-1.01,.47-1.84,1.11-2.5,1.93-.66,.81-.99,1.83-.99,3.05,0,1.09,.26,2,.8,2.73m-6.25-24.18h-2.94v26.71h2.94v-26.71Z"/><path class="cls-4" d="M256.56,62.49h2.94v-14.54c1.34-.71,2.7-1.36,4.07-1.93,1.37-.57,2.85-.86,4.45-.86,.7,0,1.36,.08,1.99,.23,.63,.15,1.19,.39,1.68,.72,.49,.33,.87,.74,1.16,1.24,.28,.5,.42,1.09,.42,1.78v13.36h2.94v-13.97c0-.94-.22-1.76-.67-2.44-.45-.69-1.04-1.26-1.77-1.72-.73-.46-1.54-.79-2.43-1.01-.9-.21-1.81-.32-2.73-.32-1.65,0-3.25,.22-4.79,.67-1.54,.44-2.98,1.07-4.32,1.89v-9.81h-2.94v26.71Zm-27.79-5.13c.64,1.26,1.53,2.3,2.65,3.11,1.12,.81,2.44,1.42,3.97,1.81,1.53,.39,3.17,.59,4.93,.59,1.9,0,3.76-.22,5.58-.67,1.82-.44,3.58-1.05,5.29-1.81v-2.59c-1.57,.92-3.3,1.64-5.18,2.17-1.89,.53-3.67,.8-5.35,.8-1.43,0-2.74-.15-3.95-.46-1.2-.31-2.24-.78-3.13-1.41-.88-.63-1.57-1.45-2.06-2.44-.49-.99-.73-2.17-.73-3.55s.24-2.56,.73-3.55c.49-.99,1.18-1.81,2.06-2.44,.88-.63,1.92-1.11,3.13-1.41,1.2-.31,2.52-.46,3.95-.46,.67,0,1.44,.03,2.31,.08,.87,.05,1.74,.15,2.62,.3,.88,.15,1.74,.38,2.58,.69,.84,.31,1.58,.71,2.22,1.22v-2.6c-1.51-.61-3.07-1.05-4.68-1.32-1.61-.27-3.24-.4-4.89-.4-1.76,0-3.44,.18-5.02,.53-1.58,.36-2.97,.92-4.16,1.7-1.19,.78-2.13,1.79-2.81,3.04-.69,1.25-1.03,2.77-1.03,4.58s.32,3.23,.96,4.48m-9.11,5.13v-14.81c.56-.74,1.29-1.28,2.2-1.64,.91-.36,1.87-.53,2.87-.53v-2.48c-2.1,0-3.92,.93-5.45,2.79l-.55-2.4h-2.01v19.08h2.94Zm-24.03-2.65c-.97-.67-1.45-1.59-1.45-2.73,0-2.72,2.52-4.08,7.55-4.08,2.07,0,4.16,.27,6.26,.8v5.04c-2.21,1.32-4.8,1.98-7.77,1.98-2.1,0-3.63-.34-4.6-1.01m-3.76,.11c.53,.73,1.21,1.31,2.03,1.74,.83,.43,1.75,.74,2.77,.92s2.04,.27,3.04,.27c1.51,0,2.99-.15,4.43-.46,1.44-.3,2.82-.79,4.13-1.45l.55,1.53h2.1v-13.2c0-1.3-.21-2.35-.63-3.17-.42-.81-1.01-1.45-1.78-1.91-.77-.46-1.69-.77-2.75-.93-1.06-.17-2.24-.25-3.53-.25-1.51,0-2.99,.12-4.43,.36-1.44,.24-2.86,.62-4.26,1.13v2.18c.53-.25,1.16-.48,1.87-.69,.71-.2,1.47-.37,2.27-.51,.8-.14,1.6-.25,2.41-.32,.81-.07,1.55-.11,2.22-.11,1.45,0,2.57,.14,3.34,.42,.77,.28,1.33,.69,1.68,1.24,.35,.55,.55,1.24,.59,2.08,.04,.84,.06,1.83,.06,2.98-1.09-.25-2.19-.45-3.3-.59-1.11-.14-2.23-.21-3.38-.21s-2.24,.09-3.44,.28c-1.2,.19-2.31,.52-3.32,.99-1.01,.47-1.84,1.11-2.5,1.93-.66,.81-.99,1.83-.99,3.05,0,1.09,.27,2,.8,2.73m-24.56-11.56c.56-.75,1.24-1.37,2.03-1.87,.8-.5,1.7-.86,2.71-1.11,1.01-.24,2.05-.36,3.15-.36,.98,0,1.98,.12,3,.36,1.02,.24,1.95,.61,2.79,1.11,.84,.5,1.53,1.12,2.06,1.87,.53,.75,.8,1.65,.8,2.69h-17.71c.22-1.04,.61-1.94,1.18-2.69m-3.38,9.03c.66,1.25,1.55,2.27,2.67,3.07,1.12,.8,2.44,1.4,3.97,1.8,1.52,.39,3.14,.59,4.85,.59,1.98,0,3.9-.27,5.73-.8s3.58-1.3,5.23-2.29v-2.33c-1.74,1.15-3.47,1.98-5.21,2.52s-3.58,.8-5.54,.8c-1.37,0-2.64-.14-3.8-.44-1.16-.29-2.18-.75-3.04-1.37-.87-.62-1.55-1.41-2.06-2.37-.5-.95-.77-2.09-.8-3.42h21.03v-.61c0-1.58-.29-2.96-.88-4.14-.59-1.18-1.4-2.17-2.44-2.98-1.03-.8-2.25-1.41-3.65-1.81-1.4-.41-2.92-.61-4.57-.61s-3.32,.21-4.83,.63c-1.51,.42-2.83,1.04-3.97,1.87-1.13,.83-2.03,1.86-2.69,3.11-.66,1.25-.99,2.71-.99,4.39s.33,3.14,.99,4.39m-18.72,5.08c1.53,.25,3.07,.38,4.64,.38,1.03,0,2.15-.07,3.34-.21,1.19-.14,2.29-.41,3.3-.82,1.01-.41,1.85-.99,2.52-1.74,.67-.75,1.01-1.74,1.01-2.96s-.41-2.22-1.22-2.92c-.81-.7-1.82-1.26-3.04-1.68-1.22-.42-2.54-.74-3.97-.95-1.43-.22-2.75-.46-3.97-.73-1.22-.27-2.23-.62-3.04-1.07-.81-.44-1.22-1.07-1.22-1.89,0-.66,.23-1.2,.69-1.6,.46-.41,1.02-.71,1.68-.92,.66-.2,1.35-.34,2.08-.4,.73-.06,1.36-.09,1.89-.09,1.45,0,2.95,.14,4.49,.42,1.54,.28,2.91,.82,4.11,1.6v-2.36c-1.37-.51-2.78-.89-4.24-1.15s-2.92-.38-4.41-.38c-.92,0-1.92,.07-2.98,.21-1.06,.14-2.05,.4-2.96,.78-.91,.38-1.67,.91-2.29,1.58-.62,.67-.92,1.55-.92,2.61,0,1.15,.4,2.04,1.2,2.69,.8,.65,1.81,1.16,3.02,1.55,1.22,.38,2.52,.69,3.92,.92,1.4,.23,2.71,.49,3.92,.8,1.22,.3,2.22,.7,3.02,1.2,.8,.5,1.2,1.2,1.2,2.12,0,.74-.26,1.33-.78,1.77-.52,.45-1.15,.78-1.91,1.01-.76,.23-1.54,.38-2.35,.46-.81,.07-1.51,.11-2.1,.11-.92,0-1.76-.03-2.52-.1-.76-.06-1.48-.16-2.16-.3-.69-.14-1.39-.32-2.1-.53-.71-.21-1.51-.46-2.37-.74v2.29c1.48,.43,2.99,.78,4.51,1.03m-28.78-14.1c.56-.75,1.24-1.37,2.04-1.87,.8-.5,1.7-.86,2.71-1.11,1.01-.24,2.05-.36,3.15-.36,.98,0,1.98,.12,3,.36,1.02,.24,1.95,.61,2.79,1.11,.84,.5,1.53,1.12,2.06,1.87,.53,.75,.8,1.65,.8,2.69h-17.71c.22-1.04,.61-1.94,1.17-2.69m-3.38,9.03c.66,1.25,1.55,2.27,2.67,3.07,1.12,.8,2.44,1.4,3.97,1.8,1.52,.39,3.14,.59,4.85,.59,1.98,0,3.9-.27,5.73-.8,1.83-.53,3.58-1.3,5.23-2.29v-2.33c-1.74,1.15-3.47,1.98-5.21,2.52s-3.58,.8-5.54,.8c-1.37,0-2.64-.14-3.8-.44-1.16-.29-2.18-.75-3.04-1.37-.87-.62-1.55-1.41-2.06-2.37s-.77-2.09-.8-3.42h21.03v-.61c0-1.58-.29-2.96-.88-4.14-.59-1.18-1.4-2.17-2.44-2.98-1.04-.8-2.25-1.41-3.65-1.81-1.4-.41-2.92-.61-4.57-.61s-3.32,.21-4.83,.63c-1.51,.42-2.83,1.04-3.97,1.87-1.13,.83-2.03,1.86-2.69,3.11-.66,1.25-.99,2.71-.99,4.39s.33,3.14,.99,4.39m-9.13,5.08v-14.81c.56-.74,1.29-1.28,2.2-1.64,.91-.36,1.87-.53,2.88-.53v-2.48c-2.1,0-3.92,.93-5.46,2.79l-.55-2.4h-2.01v19.08h2.94Z"/><path class="cls-4" d="M226.59,0h-2.94V26.71h2.94V0Zm-24.16,24.06c-.97-.67-1.45-1.58-1.45-2.73,0-2.72,2.52-4.08,7.56-4.08,2.07,0,4.15,.27,6.25,.8v5.04c-2.21,1.32-4.8,1.98-7.77,1.98-2.1,0-3.63-.34-4.6-1.01m-3.76,.11c.53,.72,1.21,1.3,2.04,1.74,.82,.43,1.75,.74,2.77,.92,1.02,.18,2.03,.27,3.04,.27,1.51,0,2.99-.15,4.43-.46,1.44-.3,2.82-.79,4.13-1.45l.54,1.53h2.1V13.51c0-1.3-.21-2.35-.63-3.17-.42-.81-1.02-1.45-1.79-1.91-.77-.46-1.69-.77-2.75-.93-1.06-.16-2.24-.25-3.53-.25-1.51,0-2.99,.12-4.43,.36-1.44,.24-2.86,.62-4.26,1.13v2.17c.53-.25,1.15-.48,1.87-.69,.71-.2,1.47-.37,2.27-.51,.8-.14,1.6-.25,2.41-.32,.81-.08,1.55-.11,2.22-.11,1.46,0,2.57,.14,3.34,.42,.77,.28,1.33,.69,1.68,1.24,.35,.55,.55,1.24,.59,2.08,.04,.84,.06,1.83,.06,2.98-1.09-.25-2.19-.45-3.3-.59s-2.23-.21-3.38-.21-2.24,.09-3.44,.29c-1.2,.19-2.31,.52-3.32,.99-1.01,.47-1.84,1.11-2.5,1.93-.66,.81-.99,1.83-.99,3.05,0,1.09,.26,2,.8,2.73m-13.73-14.6V26.71h2.94V9.58h6.55v-1.95h-6.55V2.82h-2.52l-.42,4.81h-4.58v1.95h4.58ZM173.44,0h-3.11V4.58h3.11V0Zm-7.09,7.63v1.95h4.15v15.19h-4.15v1.94h11.25v-1.94h-4.16V7.63h-7.09Zm-17.34,11.07c-.81-.18-1.52-.46-2.12-.84-.6-.38-1.08-.88-1.45-1.49-.36-.61-.54-1.36-.54-2.25s.19-1.68,.57-2.29c.38-.61,.88-1.11,1.51-1.49,.63-.38,1.36-.66,2.18-.82,.83-.16,1.67-.25,2.54-.25,1.79,0,3.26,.36,4.41,1.07s1.72,1.93,1.72,3.66-.59,3.05-1.77,3.82c-1.18,.76-2.69,1.14-4.53,1.14-.87,0-1.71-.09-2.52-.27m-4.41,.46c-.67,.25-1.27,.6-1.79,1.05-.52,.45-.78,1.02-.78,1.74,0,.79,.33,1.44,.99,1.96,.66,.52,1.51,.93,2.54,1.24,1.03,.3,2.19,.54,3.46,.7,1.27,.17,2.51,.31,3.71,.42,1.2,.11,2.31,.23,3.32,.34,1.01,.11,1.77,.27,2.27,.48,.53,.2,1.05,.46,1.55,.78,.5,.32,.76,.76,.76,1.32,0,.86-.38,1.56-1.13,2.08-.76,.52-1.65,.93-2.69,1.22-1.04,.29-2.11,.48-3.21,.57-1.11,.09-1.99,.13-2.67,.13l-.17,1.98c.67,0,1.46-.04,2.37-.11,.91-.08,1.84-.2,2.79-.38,.95-.18,1.88-.41,2.79-.71,.91-.29,1.72-.67,2.43-1.13,.71-.46,1.3-.99,1.74-1.6,.45-.61,.67-1.34,.67-2.17s-.27-1.58-.8-2.14c-.53-.56-1.23-1.01-2.1-1.36-.87-.34-1.85-.6-2.96-.78-1.1-.18-2.24-.32-3.4-.42-1.16-.1-2.3-.2-3.4-.3-1.11-.1-2.09-.24-2.96-.42-.87-.18-1.57-.43-2.1-.75-.53-.32-.8-.76-.8-1.32,0-.36,.14-.65,.42-.9,.28-.24,.57-.44,.88-.59,.78,.3,1.6,.53,2.43,.67,.84,.14,1.69,.21,2.56,.21,1.23,0,2.41-.14,3.55-.44,1.13-.29,2.13-.73,3-1.32,.87-.58,1.56-1.33,2.08-2.23,.52-.9,.78-1.96,.78-3.19,0-.61-.08-1.22-.25-1.81-.17-.6-.43-1.17-.8-1.7l3.86-.72v-1.95l-5.04,.31c-1.17,0-2.32-.11-3.44-.34-1.12-.23-2.27-.34-3.44-.34s-2.34,.13-3.51,.4c-1.16,.27-2.2,.68-3.11,1.24-.91,.56-1.65,1.28-2.23,2.16-.57,.88-.86,1.92-.86,3.15,0,2.03,.88,3.69,2.64,4.96M133.36,0h-3.11V4.58h3.11V0Zm-7.1,7.63v1.95h4.16v15.19h-4.16v1.94h11.25v-1.94h-4.16V7.63h-7.1Zm-21.97,15.15c-1.41-1.48-2.12-3.47-2.12-5.99s.68-4.44,2.03-5.69c1.36-1.25,3.46-1.87,6.32-1.87,3.11,0,5.74,.9,7.89,2.71v10.72c-2.46,1.55-5.23,2.33-8.31,2.33-2.46,0-4.4-.74-5.81-2.21m-4.32-1.93c.49,1.26,1.2,2.35,2.12,3.26s2.05,1.63,3.38,2.14c1.33,.51,2.83,.76,4.51,.76,3.11,0,5.97-.85,8.61-2.56l.71,2.25h2.06V0h-2.94V9.54c-1.87-1.53-4.73-2.29-8.56-2.29-1.62,0-3.09,.21-4.41,.65-1.32,.43-2.43,1.06-3.36,1.87-.92,.82-1.63,1.81-2.12,2.98-.49,1.17-.73,2.51-.73,4.01s.24,2.84,.73,4.1"/></g></g></g></svg>